<?xml version="1.0" encoding="UTF-8"?>
<!-- Created with Inkscape (http://www.inkscape.org/) -->
<svg width="300" height="264.01" version="1.1" viewBox="0 0 300 264.01" xml:space="preserve" xmlns="http://www.w3.org/2000/svg" xmlns:cc="http://creativecommons.org/ns#" xmlns:dc="http://purl.org/dc/elements/1.1/" xmlns:rdf="http://www.w3.org/1999/02/22-rdf-syntax-ns#"><metadata><rdf:RDF><cc:Work rdf:about=""><dc:format>image/svg+xml</dc:format><dc:type rdf:resource="http://purl.org/dc/dcmitype/StillImage"/><dc:title/></cc:Work></rdf:RDF></metadata><g transform="matrix(1.3333 0 0 -1.3333 -340.88 428)"><g transform="matrix(.97729 0 0 .97729 8.6735 5.3162)" fill="#1f663a"><path d="m349.91 196.15h-94.252v3.9347h23.706l0.77129 5.0348c0.71136 3.8724 0.65406 12.478-0.10682 16.033-0.17631 0.82462-0.6732 1.383-1.104 1.2408-0.76494-0.25257-1.0662-1.9048-2.0305-11.138-0.25987-2.4869-0.65469-4.9577-0.87765-5.4906-0.63329-1.5138-1.1554 6.4215-0.65087 9.8934 0.53197 3.6612-0.26987 6.4088-1.7093 5.8561-2.2771-0.87432-10.686 4.5818-10.686 6.9336 0 0.61872-0.47426 1.5995-1.054 2.1795-0.88887 0.88941-0.98313 1.9278-0.60182 6.63 0.24879 3.0665 0.72294 6.0817 1.054 6.7006 0.33099 0.61886 0.60182 2.1445 0.60182 3.3904 0 1.2458 0.26825 2.431 0.59592 2.6337 0.32774 0.20282 0.78037 1.2089 1.0059 2.2362 0.27491 1.2524 1.0356 2.127 2.3092 2.6548 1.0446 0.43294 1.9348 0.96991 1.9783 1.1932 0.0435 0.22336 0.15062 1.7394 0.23797 3.3691 0.3136 5.8457 1.1687 7.1499 6.2197 9.487 4.3765 2.025 4.5492 2.1894 4.0709 3.8757-0.72267 2.5478-0.46253 5.2593 0.67061 6.9896 0.54327 0.82964 0.98778 2.191 0.98778 3.0252 0 1.6873 2.4888 4.3052 5.5706 5.8596 1.1109 0.56033 2.1851 1.4496 2.3871 1.9762 0.36179 0.94341 1.736 0.78594 5.1063-0.58505 0.81177-0.33021 1.2952-0.0371 1.7533 1.0632 0.97267 2.3361 2.321 3.7799 3.5299 3.7799 1.4247 0 6.4994 4.2501 7.3777 6.1788 0.52973 1.1633 1.5453 1.6654 4.5746 2.2618 3.86 0.75985 4.8462 1.4072 6.1598 4.0434 0.37407 0.75077 1.4022 1.7115 2.2847 2.1351 3.2299 1.5501 5.4914 2.3979 6.0374 2.2634 0.30762-0.0757 1.3244 0.37967 2.2595 1.0121 1.8414 1.2454 3.9598 1.6466 3.9598 0.7499 0-0.30677 0.99963-0.55777 2.2214-0.55777 1.2218 0 2.401-0.29067 2.6204-0.64595 0.6469-1.0473 2.5583-0.74227 4.0476 0.64595 0.76222 0.71055 1.9532 1.2919 2.6466 1.2919 0.69343 0 1.9806 0.85592 2.8603 1.902 0.87976 1.0461 1.8012 1.7002 2.0477 1.4534 0.74338-0.74419 5.8278-1.0202 8.6471-0.4694 0.84011 0.16415 2.5158-0.11492 3.7238-0.61979 1.208-0.50504 2.4089-0.89117 2.6688-0.85807 0.25987 0.033 0.75923-0.56093 1.1097-1.32 0.83924-1.8175 1.1343-1.7702 5.4957 0.88072 2.0458 1.2435 4.1991 2.2608 4.7852 2.2608 0.58605 0 1.2321 0.43437 1.4357 0.96523 0.20362 0.53088 0.64854 0.79308 0.98878 0.58267 0.34024-0.21039 1.1397 0.0892 1.7766 0.66596 1.0351 0.9373 1.2446 0.944 1.9751 0.0633 0.44946-0.54187 1.0839-0.98522 1.4099-0.98522s1.428-0.61793 2.4489-1.3732c1.296-0.95869 2.4753-1.2823 3.9071-1.072 1.3479 0.19794 2.1648 3e-3 2.3834-0.56585 0.42875-1.118 5.7812-4.7404 7.0044-4.7404 0.51479 0 0.936 0.28321 0.936 0.62935 0 0.34616 0.87153 1.0803 1.9367 1.6315 1.1029 0.57066 1.9367 0.71685 1.9367 0.33956 0-0.36439 0.55633-0.66255 1.2363-0.66255s2.4095-1.3336 3.8434-2.9635c1.7572-1.9974 2.88-2.7932 3.4442-2.441 1.5522 0.96894 2.9513 0.85977 3.3641-0.26257 1.5992-4.3484 3.791-5.8112 5.5427-3.6993 0.44203 0.53291 1.332 0.96894 1.9777 0.96894 0.6457 0 1.3641 0.30768 1.5964 0.68378 0.23743 0.38437 1.2156 0.50944 2.234 0.28561 0.99641-0.21904 2.941-0.51055 4.3214-0.64795 1.3804-0.13737 3.37-0.60357 4.4213-1.0359 1.0513-0.43232 2.1281-0.73957 2.3928-0.6827 0.26474 0.0568 1.0887-1.1895 1.831-2.7696 1.739-3.7018 2.3036-4.1238 5.9759-4.467 3.559-0.33267 4.9461-1.2742 4.9461-3.3574 0-0.82373 0.32299-1.6974 0.71777-1.9416 0.45893-0.28378 0.57345-1.5326 0.31753-3.4628-0.39738-2.9974-0.37964-3.0335 2.4911-5.0582 1.8008-1.27 3.053-2.7193 3.3199-3.8423 0.54454-2.2914 2.0728-4.0639 3.504-4.0639 1.6804 0 2.4936-1.3698 3.3012-5.5608 0.40333-2.0931 0.98287-4.0818 1.2879-4.4193 0.30503-0.33751 0.5546-1.4276 0.5546-2.4223 0-0.99477 0.23662-1.8087 0.52599-1.8087 1.6521 0 4.2542-10.487 4.0409-16.285-0.11087-3.0149-1.6056-6.6219-2.9977-7.2339-2.4959-1.0974-4.4308-4.9063-4.788-9.425-0.31661-4.0052-0.41371-4.2081-2.1072-4.4031-1.3251-0.15252-1.7801-0.56215-1.794-1.6149-0.0679-5.1384-0.60463-9.721-1.2093-10.326-0.38981-0.39003-0.70876-1.8543-0.70876-3.254v-2.5448l-1.6139 2.3797c-0.88768 1.3088-1.6139 3.2388-1.6139 4.2889 0 1.05-0.29051 1.9092-0.6456 1.9092-0.35506 0-0.64557 1.0485-0.64557 2.33 0 1.8057 0.21796 2.2463 0.96837 1.9581 1.0699-0.41077 1.0406-0.49327 1.1128 3.1404 0.11655 5.8689-0.149 8.1806-0.91107 7.9264-0.42164-0.14061-0.96642-0.9642-1.2106-1.8302-0.65511-2.3232-2.8559-15.05-4.1188-23.819-0.348-2.4164 0.25068-3.2707 2.2917-3.2707 1.726 0 1.8684 0.18362 1.8775 2.4223 5e-3 1.3323 0.29151 2.8584 0.6357 3.3913 0.70906 1.0978 0.82324 0.73241 0.90812-2.9068l0.0603-2.7739h26.282v-3.9346h-130.11zm-14.594 8.3674c0.20011 1.9298 0.25825 5.5436 0.12899 8.0305-0.12899 2.4869-0.22607 5.7631-0.2158 7.2804 0.0216 3.3178-1.9813 5.9351-3.5482 4.6339-0.50884-0.42256-0.92518-1.5692-0.92518-2.5482 0-0.97894-0.45933-2.8799-1.0207-4.2243-0.77946-1.8665-0.95988-4.0429-0.76323-9.2064 0.28708-7.5385 0.9658-8.8094 4.2393-7.9382 1.5545 0.41371 1.7798 0.83895 2.1046 3.9722zm47.998-3.8673c0.35 0.34881 1.3345 3.8032 4.3063 15.11 1.2699 4.8318 0.82521 9.1418-1.1089 10.748-1.3545 1.1248-1.5592 0.56574-1.7504-4.7805-0.0974-2.7252-0.53427-5.3077-0.99084-5.8581-0.48267-0.58194-0.77559-2.5187-0.71642-4.737 0.19903-7.4563 0.11357-7.9513-1.3721-7.9513-1.1072 0-1.2893 0.27575-0.9596 1.4534 0.22363 0.79936 0.58361 2.6595 0.79971 4.1338 0.33348 2.275 0.19172 2.7882-0.93792 3.393-1.609 0.86161-1.8014 0.59346-2.388-3.3281-0.29381-1.9642-0.78102-3.0683-1.354-3.0683-1.4031 0-1.3854-3.741 0.0216-4.8447 0.88037-0.69 5.8206-0.8973 6.4494-0.27063zm16.842 0.0552c0.19713 0.19741 0.51609 2.8176 0.70855 5.823 0.26555 4.1448 0.13899 5.6393-0.52359 6.1895-1.1309 0.93905-1.7794 0.45884-4.2103-3.1174-3.0498-4.4868-3.3872-8.2641-0.81623-9.1377 1.1911-0.40471 4.3529-0.24608 4.8416 0.24284zm15.167 0.84917c2.1366 5.6228 3.1413 23.267 1.325 23.267-1.2686 0-1.8245-2.3134-1.9015-7.913-0.0365-2.6486-0.34484-4.6832-0.70993-4.6832-0.35506 0-0.64557 0.3391-0.64557 0.7536s-0.20363 0.54979-0.45271 0.30065c-0.24906-0.24905-0.56244-1.969-0.69657-3.8219-0.29462-4.0697-1.0458-5.0869-1.9147-2.5928-0.4479 1.2855-0.37872 3.5958 0.22877 7.6389 1.6832 11.205 1.0442 13.307-2.8911 9.5103-1.3789-1.3303-1.9315-2.5874-2.2007-5.0062-0.38849-3.4902-2.2396-14.627-2.809-16.898-0.43594-1.7395 0.38762-1.9831 7.0399-2.0825 4.7804-0.0714 5.0482 1e-3 5.6281 1.5276zm12.655-0.24203c0.9367 1.0363 1.2115 2.2541 1.1529 5.1097-0.10168 4.9597-0.76913 7.6843-1.5715 6.4152-0.32523-0.51439-0.59579-2.0081-0.60122-3.3195-5e-3 -1.3113-0.26744-2.5434-0.58208-2.738-0.62415-0.38597-1.3417 1.7068-1.3557 3.9537-8e-3 1.3158-1.0565 2.5964-1.6441 2.0085-0.45685-0.45711-1.5678-11.662-1.2132-12.236 0.68632-1.1111 4.5682-0.5728 5.8149 0.80636zm15.45-0.68629c0.22904 0.37085 0.0419 1.1259-0.41599 1.6779-0.45784 0.55201-0.92596 1.6167-1.0402 2.366-0.24284 1.5914-1.3112 2.4064-2.5376 1.9355-0.58408-0.22417-0.86553 0.20282-0.86553 1.3136 0 1.9087-0.98408 2.8085-1.526 1.3954-0.59768-1.5584-1.8833-1.1381-1.4931 0.48816 1.1796 4.9167 1.2244 6.2981 0.20443 6.2981-1.7094 0-2.194-3.6625-1.2385-9.3605 0.47718-2.8454 0.99425-5.5368 1.149-5.981 0.34741-0.99668 7.1581-1.1135 7.7636-0.13332zm-153.58 6.2558c0.0589 4.2343-0.16388 6.1661-0.76926 6.6688-0.89122 0.7401-0.84116 0.87407-2.8008-7.4989-0.96188-4.1099-0.46358-5.5895 1.7943-5.3275 1.6834 0.19524 1.6933 0.22986 1.7758 6.1576zm10.852-4.8308c0.89677 4.2376 1.6524 13.077 1.2853 15.035-0.63686 3.3967-1.4802 2.6919-1.6975-1.4186-0.20552-3.8863-1.371-5.2708-2.0749-2.4645-0.31725 1.2648-0.77112 1.6309-1.8365 1.4815-0.99981-0.14034-1.4782 0.18064-1.6302 1.0935-0.41763 2.5082-0.80003 3.1502-1.4744 2.4755-0.87526-0.87577 0.3009-15.44 1.3489-16.703 0.44603-0.53773 1.8737-0.95203 3.2806-0.95203 2.0617 0 2.544 0.2504 2.7985 1.4534zm11.137-0.3989c0.22229 0.58 0.0433 1.6332-0.39819 2.3404-0.54965 0.88067-0.77975 4.1108-0.73013 10.25 0.0606 7.4828-0.0841 8.9638-0.87513 8.9638-0.52118 0-1.1679-0.35671-1.4372-0.7927-0.90682-1.4681-1.9999-8.7714-1.4442-9.6486 0.30068-0.47459 0.55509-2.7523 0.56537-5.0616 0.027-5.802 0.45808-7.1055 2.3562-7.1055 0.85739 0 1.7409 0.47453 1.9633 1.0545zm4.0023-0.17198c0.89403 1.0779 0.45704 9.9718-0.53892 10.968-1.337 1.3378-2.1151-0.72307-2.1151-5.6022 0-6.0199 0.78881-7.6148 2.654-5.3661zm7.1995 1.4585c0.97997 2.9711 0.35731 13.055-0.88275 14.296-1.7063 1.7073-2.4714-0.69889-2.8173-8.8599l-0.32964-7.7768h1.6288c1.2997 0 1.7848 0.47302 2.4009 2.3408zm29.045 1.4017c0.5334 5.312-0.70977 6.2616-1.6478 1.2586-0.57234-3.0526-1.692-3.1723-1.4892-0.15928 0.0836 1.242-0.16658 2.577-0.55593 2.9665-0.38935 0.38959-0.56645 1.7715-0.39357 3.071 0.1728 1.2994-0.0243 3.9614-0.4404 5.9154-1.0989 5.1728-1.3127 8.2904-0.68232 9.9494 0.75338 1.9826 0.0541 2.8708-2.0742 2.6346-0.99041-0.10979-1.7754 0.12061-1.7754 0.52124 0 0.48975-0.25014 0.46806-0.78592-0.0682-1.1651-1.1658-1.9791-26.095-0.94046-28.803 0.34889-0.90972 1.2212-1.0535 5.4287-0.89504l5.013 0.18876zm7.0375-1.2039c2.4219 2.5222 3.2712 5.2235 3.2712 10.405 0 3.067-4.4199 9.9042-6.1816 9.5625-1.1261-0.2185-1.3186-1.9714-1.7624-16.046-0.22715-7.2036 0.74078-8.0157 4.6728-3.9208zm-76.985 1.4582c-0.20606 0.51528-0.35906 0.36222-0.39005-0.39027-0.0281-0.68094 0.12466-1.0625 0.33907-0.84782 0.21445 0.21472 0.23743 0.77178 0.0508 1.2381zm0.95758 3.4986c-0.40325 2.2936-1.3986 2.5294-1.3986 0.33131 0-1.4166 0.26799-2.0271 0.80699-1.8386 0.44383 0.15522 0.71006 0.83354 0.59162 1.5072zm161.61-1.0361c0.76845 1.2441 1.0965 17.285 0.36282 17.739-1.105 0.68334-1.8711-2.2406-1.6073-6.1348 0.13331-1.9666-8e-3 -5.1548-0.31217-7.0847-0.56007-3.545-0.36577-5.1655 0.61936-5.1655 0.29614 0 0.71794 0.29062 0.93733 0.64584zm-93.293 4.501c0.55553 1.6842 0.71824 4.176 0.47451 7.267-0.2039 2.5872-0.15685 5.8667 0.10492 7.2878 0.48759 2.6483-0.24067 6.1366-1.2812 6.1366-0.32034 0-0.59205-0.0727-0.60384-0.16144-0.0108-0.0887-0.18876-5.3211-0.39349-11.627-0.37872-11.67 0.0484-13.908 1.6992-8.9027zm89.614 3.5617c-0.0216 2.8934-0.37158 5.2912-0.87364 5.9751-0.77123 1.0506-0.89771 0.98721-1.5752-0.78887-0.75948-1.991-0.47529-5.1364 0.74473-8.2427 1.1791-3.0023 1.7407-1.995 1.7041 3.0565zm-63.567 1.4598c0.45133 2.4991 0.20282 7.2762-0.37823 7.2741-0.26636-6.2e-4 -0.76723-2e-3 -1.1132-2e-3s-1.0722-0.85761-1.6139-1.9058c-1.8902-3.6573-0.73016-9.0299 1.6719-7.7436 0.61139 0.3274 1.2564 1.3971 1.4334 2.377zm2.1474-0.31758c-0.17902 0.44409-0.32561 0.0806-0.32561-0.80747 0-0.88819 0.14657-1.2515 0.32561-0.80744 0.17902 0.44411 0.17902 1.1708 0 1.6149zm-80.489 3.9182c0.0108 3.371-0.95236 5.8893-2.0036 5.2392-0.63454-0.3924-0.17091-8.3014 0.55968-9.5493 0.64287-1.098 1.4342 1.2644 1.4439 4.3102zm97.133-1.9981c1.9297 2.7566 0.76156 11.139-1.4906 10.696-0.85774-0.16874-1.057-1.0729-1.0654-4.8341-5e-3 -2.5447-0.22093-4.8375-0.47858-5.0952-0.51004-0.51031 0.64213-2.2023 1.4997-2.2023 0.29145 0 0.98216 0.64603 1.5349 1.4356zm-69.616 2.1644c0.49749 1.9833-0.63689 3.5192-1.7653 2.39-0.81988-0.82036-0.23986-4.0522 0.7274-4.0522 0.34154 0 0.8086 0.74798 1.0379 1.6622zm54.357 2.7757c-0.10898 1.8318-0.48883 3.3994-0.84392 3.4835-0.72299 0.17144-1.2579-5.5888-0.66301-7.1399 0.75963-1.9808 1.7059 0.31526 1.5069 3.6564zm-62.507-1.6926c-8e-3 1.1753-0.12953 1.268-0.63567 0.48445-0.80888-1.2523-0.80888-1.9379 0-1.9379 0.35505 0 0.6411 0.65403 0.63567 1.4534zm-24.522 1.1685c0 0.73154-0.29051 1.1504-0.64559 0.93081-0.35506-0.21958-0.64557-0.81807-0.64557-1.33 0-0.51195 0.29051-0.93081 0.64557-0.93081 0.35508 0 0.64559 0.59852 0.64559 1.33zm141.03 0.76934c0.73037 3.3692 0.63488 4.5555-0.42091 5.2288-1.4862 0.94763-1.7811 0.50444-2.2391-3.3648-0.36374-3.073-0.29183-3.3174 0.97611-3.3174 0.89573 0 1.4777 0.50231 1.6839 1.4534zm-128.32 3.1809c1.6117 1.515 1.9735 4.3171 0.71947 5.5718-1.081 1.0816-3.0655 0.96769-3.514-0.20173-0.43886-1.1444 0.30687-6.7746 0.8973-6.7746 0.22174 0 1.0754 0.63203 1.8972 1.4045zm22.013 1.453c1.4328 0.50582 2.7549 0.76986 2.9378 0.58675 0.77453-0.77499 1.1994 5.7814 0.47737 7.367-0.59963 1.3168-0.58267 1.7799 0.0806 2.2008 1.2756 0.80961 1.6262 0.67364 2.0056-0.77772 0.30228-1.1566 0.67102-1.273 2.819-0.89057 1.3592 0.24202 2.6986 0.64684 2.9766 0.89963 0.91023 0.82783-0.19686 2.3811-2.4705 3.4659-1.2271 0.58551-2.2312 1.3285-2.2312 1.651 0 0.51712-2.39 1.4875-4.1962 1.7037-3.7738 0.45179-6.711 2.2525-3.6741 2.2525 0.64227 0 1.7088 0.39581 2.3699 0.87957 0.6612 0.48375 1.7724 0.73037 2.4694 0.548 2.0111-0.52621 1.0098 1.3377-1.2688 2.3619-1.488 0.66886-1.9762 1.3237-2.0154 2.703-0.0284 1.0012 0.36407 2.1657 0.87226 2.5877 0.90945 0.75523 1.0527 0.59525 1.1896-1.3288 0.0427-0.59987 0.71985-0.96894 1.7778-0.96894 1.2125 0 2.289-0.72937 3.7062-2.5112 1.0985-1.3811 1.9973-2.8861 1.9973-3.3444 0-1.0082 3.0533-3.5108 4.2833-3.5108 0.48472 0 0.88132 0.54576 0.88132 1.2128 0 1.9442 1.8676 2.8859 7.1014 3.5807 0.88768 0.1179 2.1224 0.42666 2.7437 0.68629 1.7501 0.73124 1.4015-1.1259-0.55268-2.9448-3.459-3.2196-3.2917-6.3971 0.26555-5.0438 1.8503 0.70393 1.708 0.79825 2.5014-1.6575 0.46049-1.4255 1.015-1.9056 2.2006-1.9056 0.87174 0 1.8807 0.1828 2.242 0.4063 0.36136 0.22337 1.2265-0.44427 1.9226-1.4838 0.77175-1.1526 1.8324-1.8909 2.7182-1.892 0.79889-1e-3 1.4526-0.32364 1.4526-0.71694 0-0.43707 0.43919-0.52453 1.1298-0.22499 0.62137 0.26961 1.7255 0.53835 2.4535 0.5973 2.3062 0.18686 2.9775 0.97765 2.5362 2.988-0.29127 1.327-0.16063 1.8908 0.44638 1.9258 0.47207 0.0273 1.4294 0.15604 2.1275 0.2863 1.6753 0.31268 2.7527-0.65466 3.2494-2.9174 0.32212-1.4674 0.98583-2.0444 3.2331-2.8106 2.4718-0.84273 2.9258-0.84589 3.6066-0.0243 0.42831 0.51639 1.0983 0.82315 1.4888 0.68167 0.39057-0.14143 1.2267 8e-3 1.8581 0.33396 0.83026 0.42756 1.6138 0.22472 2.8308-0.73324 3.3714-2.6534 7.6442-1.0638 6.1226 2.2779-0.40725 0.89439-0.74049 2.323-0.74049 3.1746 0 0.85168-0.66958 2.3274-1.488 3.2793-1.3546 1.5757-1.5791 1.6396-2.5054 0.71274-1.2831-1.2838-1.817-0.76236-1.8159 1.7733l6.4e-4 1.9917-4.5199-0.14414c-2.4857-0.0792-4.5197 0.0433-4.5197 0.2721 0 0.22904 0.47099 0.93695 1.0466 1.5734 0.57567 0.63648 0.8753 1.6041 0.66586 2.1502-0.43841 1.1431-1.7125 1.346-1.7125 0.27275 0-0.4304-0.68221-0.27299-1.6952 0.3911-1.2136 0.79566-1.8248 0.90142-2.1517 0.37223-0.32258-0.52225-0.95138-0.55087-2.1431-0.0976-1.3556 0.51569-1.9785 0.39335-3.1743-0.62337l-1.4878-1.265 1.7054-1.451c1.8588-1.5815 1.7155-3.2352-0.43513-5.0211-1.0378-0.8618-1.0934-0.81426-0.65685 0.56184 0.53681 1.6923-1.4512 4.3355-4.0027 5.3216-0.79889 0.30879-1.4526 1.0681-1.4526 1.6873 0 1.1398 2.9124 4.0738 4.0439 4.0738 0.78499 0-0.0379 3.3945-0.96123 3.9656-0.37867 0.23418-0.51664 0.87378-0.30666 1.4214 0.58411 1.523-3.4957 2.6084-8.0245 2.1347-2.1278-0.22256-4.5418-0.0968-5.5524 0.28929-1.6902 0.64568-1.7225 0.73105-0.59133 1.5623 0.8711 0.64011 1.646 0.70831 2.8488 0.25068 2.0743-0.78911 2.9008-0.0297 2.6222 2.409-0.21065 1.8443-0.54232 2.0023-2.5558 1.2174-0.76953-0.29997-1.2382 0.12169-1.7418 1.567-0.549 1.5758-1.0564 1.9755-2.4978 1.9677-4.5969-0.0243-8.9989-3.0599-6.5944-4.5468 1.6001-0.98949-0.62759-2.549-3.6412-2.549-2.3927 0-2.81 0.20309-2.9874 1.4534-0.2863 2.0169-4.7262 2.5171-5.334 0.60095-0.24689-0.77853-0.98127-1.2469-1.9549-1.2469-1.7415 0-7.2397-5.212-8.5624-8.1168-1.1415-2.5069-3.3996-2.3714-3.3996 0.20389 0 1.7949-0.17172 1.9379-2.3277 1.9379-1.5326 0-2.9742-0.54424-4.22-1.5931-1.8318-1.5423-1.962-1.5598-4.0783-0.55006-2.0091 0.95866-2.2702 0.95896-3.225 3e-3 -0.57139-0.57172-2.1189-1.213-3.439-1.425-1.3201-0.21201-3.1264-0.5552-4.0141-0.76256-0.88767-0.20741-2.3402-0.4086-3.2279-0.44724-1.1678-0.0508-1.8692-0.6506-2.5374-2.1696-0.92418-2.1012-2.6272-2.8852-2.6272-1.2098 0 0.48941-0.43199 1.2486-0.95998 1.687-1.2129 1.0072-4.2046 0.31398-4.2046-0.97426 0-1.4264-1.3321-1.1591-3.214 0.64486-1.4922 1.4305-1.923 1.5318-4.033 0.94885-1.3831-0.38213-2.5258-1.1677-2.7565-1.895-0.21688-0.6833-1.3229-1.5811-2.458-1.9952-1.9317-0.70461-4.3235-4.19-4.3235-6.3002 0-0.8691 3.6214-1.0421 4.1428-0.19795 0.1901 0.30763 1.0804 0.41877 1.9785 0.24689 0.8982-0.17171 2.0672 0.0481 2.5977 0.4887 0.7678 0.63759 1.1623 0.63695 1.933-3e-3 1.4622-1.2142 1.1393-3.3046-0.88806-5.7506-1.7839-2.1521-3.3082-2.305-3.3082-0.3317 0 0.84906-2.3952 2.2067-3.893 2.2067-1.4649 0-5.0304-4.0306-5.4244-6.1321-0.53024-2.828 0.23716-4.2752 3.0792-5.8066 2.1084-1.1361 2.3419-1.1441 3.8842-0.13305 0.90249 0.5917 2.1254 0.88976 2.7176 0.66239 0.85693-0.32902 0.99041-0.14143 0.65396 0.91929-0.3489 1.1-0.079 1.4083 1.5451 1.7652 1.0823 0.23797 1.8013 0.70209 1.5977 1.0316-0.76375 1.2365 0.44319 3.1714 1.9782 3.1714 0.84279 0 1.7125 0.29176 1.9328 0.64833 0.22012 0.3566 1.0578 0.48324 1.8614 0.28145 1.6594-0.41671 2.6002 0.48976 3.2251 3.1075 0.23337 0.977 0.67745 1.7764 0.98708 1.7764 0.30966 0 1.9711-1.1643 3.6922-2.5873 2.8969-2.3952 3.3934-2.5768 6.6875-2.446 4.234 0.1682 6.8915 2.0334 6.2724 4.4025-0.20498 0.78413-0.0279 1.9909 0.39338 2.6817 0.66079 1.0835 0.46941 1.5231-1.3938 3.2014-1.1879 1.0699-2.0024 2.1028-1.8102 2.2951 0.19227 0.19226 1.823-3e-3 3.6237-0.43613 1.8008-0.43224 3.9775-0.60928 4.8371-0.39341 1.723 0.43272 2.8555-0.54789 1.3156-1.1392-1.2948-0.49714-1.2147-1.8934 0.287-5.0033 1.2402-2.5685 1.2401-2.6037-0.0135-3.8594-0.9763-0.97686-1.1168-1.5469-0.61348-2.488 0.35915-0.67145 1.0194-1.3915 1.4674-1.6001 0.64925-0.30236 0.65073-0.45568 8e-3 -0.75609-1.1318-0.52848-1.0091-2.207 0.16144-2.207 0.53262 0 0.93397-0.21796 0.89192-0.48446-0.35333-2.239 2.0231-3.1572 4.7057-1.8182 1.6294 0.81331 1.8407 0.76242 2.7783-0.66937 1.1792-1.8007 1.8314-1.8773 5.3645-0.62996zm43.716 13.937c0.21958 0.35527 0.52713 0.64595 0.6837 0.64595s0.28467-0.29068 0.28467-0.64595c0-0.35528-0.30766-0.64595-0.68367-0.64595-0.37602 0-0.50414 0.29067-0.2847 0.64595zm1.9708 2.5286c-0.20795 0.33651-0.10276 0.78203 0.23364 0.99001 0.33632 0.20795 0.78156 0.10276 0.98943-0.23365 0.20796-0.3365 0.10276-0.78202-0.23364-0.99-0.33632-0.20795-0.78156-0.10276-0.98941 0.23364zm-18.272 5.9431c-1.154 0.73943-2.0981 1.7028-2.0981 2.1408 0 0.89565-1.5557 1.7846-5.8102 3.3201-4.1465 1.4965-5.5552 1.5349-10.779 0.29394-4.5866-1.0897-6.615-0.87761-5.7046 0.59636 0.2569 0.41598 1.0931 0.69716 1.858 0.62485 0.76498-0.0722 2.537 0.37421 3.9379 0.9922 3.2488 1.4332 4.2223 1.6098 9.719 1.763 4.6835 0.13035 9.4093-1.3922 11.265-3.6298 0.45336-0.5466 1.0695-0.84217 1.3692-0.65682 0.2997 0.18523 0.98378-0.51215 1.5202-1.55 0.92002-1.7802 0.88681-1.9824-0.58727-3.5739-1.8735-2.0227-2.019-2.0326-4.6906-0.32069zm84.044-16.125c0.89754 0.40917 1.8023 1.2812 2.0106 1.9379 0.20822 0.65663 0.89365 1.1939 1.523 1.1939 0.75568 0 1.4236 0.84671 1.9666 2.493 0.71185 2.1582 0.67107 2.8118-0.30362 4.867-0.95853 2.0211-3.5399 4.4263-3.5399 3.2983 0-0.20255-0.58102-0.0573-1.2912 0.32299-0.71014 0.38026-1.2912 1.1368-1.2912 1.6811 0 0.69579 0.38348 0.86797 1.2912 0.5797 1.843-0.58527 1.6624 1.0407-0.32279 2.9068-0.89747 0.84362-1.6203 2.2557-1.6283 3.1809-8e-3 0.9151-0.51629 2.3083-1.1298 3.0961-1.1714 1.5041-2.2438 1.49-14.456-0.19119-1.3014-0.17902-2.5369-0.0495-2.7456 0.28832-0.20849 0.33775-1.9036 0.49324-3.7667 0.34557-3.3615-0.26637-5.647-1.798-5.647-3.7842 0-0.43848-0.58513-1.3271-1.3003-1.9747-0.79208-0.71726-1.1563-1.6314-0.93181-2.339 0.33356-1.0516-0.0627-1.1484-4.1852-1.022-2.5045 0.0768-4.5523 0.28491-4.5506 0.46255 2e-3 0.17766 0.6545 0.64827 1.4506 1.0458 5.0626 2.5282 5.515 2.9344 6.8511 6.1513 1.4695 3.5382 1.7824 6.6857 0.72937 7.3369-0.35506 0.21958-0.64557 0.9347-0.64557 1.5892 0 0.68637-1.0055 1.7836-2.3758 2.5926-1.9838 1.1712-2.6128 1.2757-3.8119 0.63356-0.78984-0.42296-1.7214-0.59259-2.0701-0.37696-0.34871 0.21552-0.96777-0.0108-1.3757-0.50219-1.1031-1.3299-5.1778-2.1194-13.133-2.5445-4.6532-0.24879-7.4001 0.52937-4.5249 1.2817 1.5278 0.39976 3.6491 3.8326 3.1586 5.1116-0.6411 1.6716 0.32221 2.8291 2.7295 3.2797 1.2972 0.24283 2.7125 0.90474 3.145 1.471 0.99484 1.3023 1.0444 0.59757 0.1033-1.4692-0.39836-0.8748-1.3005-1.7413-2.0048-1.9256-1.4449-0.37808-1.2847-1.6023 0.3443-2.6304 0.78783-0.49725 1.4444-0.46534 2.3737 0.11547 0.70655 0.44148 2.2724 0.80271 3.4796 0.80271 2.1172 0 2.2129 0.10871 2.7008 3.0683 0.57853 3.5096 0.51031 4.4556-0.46158 6.3989-0.87156 1.7428-3.8167 2.4395-4.8188 1.1399-0.77296-1.0024-2.6539-0.62861-3.7941 0.75401-0.35506 0.43059-2.3126 1.0579-4.3501 1.3941-3.2535 0.53675-3.961 0.45084-5.8102-0.7056-1.1581-0.72421-2.6549-1.2357-3.3262-1.1366-2.0829 0.30755-9.3482-1.3138-10.134-2.2616-0.41054-0.49495-1.1-0.8999-1.5321-0.8999-0.43213 0-1.1305-0.75736-1.5521-1.683-1.1155-2.4498 0.25771-6.0685 2.3028-6.0685 1.26 0 1.4842-0.33459 1.4842-2.2147 0-1.2181-0.43575-2.6507-0.96837-3.1836-1.3236-1.3244-1.2813-3.2575 0.06-2.7424 3.475 1.3342 3.9788 1.2092 4.7681-1.1837 0.50379-1.5274 1.4683-2.6881 2.8113-3.3829 1.1244-0.58178 2.8132-1.6266 3.753-2.3217 1.4474-1.0708 2.0396-1.1571 3.8735-0.56482 2.6672 0.86139 3.9987 0.67672 5.6045-0.77732 0.68313-0.61858 2.3675-1.3038 3.743-1.5228 2.6843-0.42724 6.6972-3.0561 6.6972-4.3873 0-0.44632 0.87153-0.98592 1.9367-1.1991 1.3676-0.27366 1.9367-0.76255 1.9367-1.6635 0-0.70179 0.36315-1.5084 0.80699-1.7925 0.91428-0.58526 2.0892-2.3409 3.1556-4.7153 2.6857-5.98 3.9107-7.0334 8.326-7.1595 7.3693-0.21038 7.219-0.23607 8.695 1.481 2.2151 2.5767 2.5585 5.763 0.97443 9.0435-0.86672 1.795-1.1965 3.3849-0.94236 4.5428 0.45006 2.0502 0.36288 2.0141 2.5052 1.0375 1.9577-0.89252 2.2513-1.7462 2.1584-6.2757-0.053-2.5812 0.19686-3.617 0.97794-4.0543 0.57697-0.32307 0.9022-0.97029 0.72272-1.4382-0.4288-1.1181 2.9372-4.9286 4.3537-4.9286 0.60714 0 1.2861 0.57456 1.5089 1.2768 0.39419 1.2427 0.46869 1.2351 2.7872-0.28497 2.8167-1.8466 2.8274-1.8486 4.9217-0.89378zm-4.6582 13.567c0.33508 1.0058 1.7794 1.182 1.83 0.2231 0.0189-0.35528-0.45046-0.74639-1.0427-0.86913-0.67315-0.13953-0.96829 0.10249-0.78727 0.64595zm-22.997 8.1967c-0.22337 0.36169-0.0917 0.85214 0.29286 1.0899 0.99257 0.61379 1.633-0.22688 0.80439-1.056-0.46366-0.4639-0.82475-0.47505-1.0972-0.0338zm-46.221 13.364c0 0.55387 2.8529 1.4733 3.4582 1.1145 0.30419-0.18037 0.159-0.57778-0.3228-0.88319-0.96724-0.61323-3.1354-0.77318-3.1354-0.23121zm90.441-34.579c1.5001 0 2.0259 1.6963 0.88089 2.842-0.51752 0.51783-0.94095 1.6945-0.94095 2.6148 0 1.4623 0.20363 1.6222 1.614 1.268 1.3235-0.3324 1.6139-0.17009 1.6139 0.90274 0 0.71945-0.76182 1.8634-1.6929 2.542-2.1475 1.5653-1.6693 3.8616 0.86699 4.163 2.1559 0.25635 2.6675 1.6489 0.70833 1.928-0.81574 0.11628-1.5728 0.68235-1.6824 1.2581-0.15305 0.8042 0.18199 0.97389 1.446 0.73213 1.1936-0.22823 1.6452-0.0387 1.6452 0.69144 0 1.3297-0.99162 1.8825-3.6684 2.0451-1.2127 0.0736-2.5298 0.45903-2.9268 0.85633-0.72094 0.72137-0.64741 0.77473 2.3175 1.6821 1.1952 0.36577 2.0089 4.8444 1.0516 5.7878-0.54398 0.5361-1.0978 0.22661-2.14-1.1964l-1.406-1.9197-0.34819 1.9197c-0.35055 1.9328-0.99322 2.1844-3.5317 1.3825-0.97997-0.30957-1.4857 0.0108-2.0982 1.3239-0.44384 0.95247-0.80696 1.9495-0.80696 2.2157 0 0.89527-2.8921 3.5966-4.3362 4.0501-1.1659 0.36617-1.506 0.15062-1.8356-1.1633-0.35365-1.4099-0.6052-1.5363-2.0003-1.0056-2.4878 0.94644-7.0544 0.73903-7.9675-0.36187-0.44202-0.53291-1.0746-0.96894-1.4056-0.96894-0.58224 0-5.118-1.8872-8.1406-3.387-0.81201-0.40292-1.392-1.1713-1.2888-1.7074 0.23932-1.244 4.9604-1.4636 8.5964-0.3999 1.7104 0.50036 3.0709 0.55282 3.9667 0.15279 1.0573-0.47207 1.6685-0.30339 2.7227 0.75146 1.9381 1.9392 2.8112 1.6786 4.1562-1.2403 0.65063-1.412 1.5948-2.5672 2.0982-2.5672 0.50336 0 0.91518-0.48127 0.91518-1.0694 0-0.58822 0.72629-2.0222 1.614-3.1867 0.88767-1.1645 1.6139-2.5842 1.6139-3.155 0-0.57077 0.56514-2.1462 1.2559-3.501 1.0955-2.1486 1.1778-3.0154 0.64408-6.786-0.50189-3.5461-0.42807-4.6783 0.41088-6.3016 0.8767-1.6963 1.2881-1.9258 2.8816-1.6069 1.0224 0.20471 2.0482 0.0654 2.2796-0.30909 0.29302-0.47442 0.63364-0.46798 1.1225 0.0216 0.38603 0.38621 1.1937 0.70222 1.7948 0.70222zm-169.34 21.205c2.1953 0.83465 3.4045 0.9919 4.1259 0.53654 0.74419-0.46969 1.6633-0.26474 3.3942 0.75723 1.3055 0.77075 2.9381 1.4013 3.6279 1.4013 0.68986 0 1.2543 0.31145 1.2543 0.69211 0 0.38064 0.45649 0.23527 1.0145-0.32298 1.4044-1.4053 1.6227-1.3324 3.911 1.306 1.7417 2.0081 2.2039 2.2312 3.3508 1.617 1.0905-0.58397 1.6442-0.44249 3.0698 0.78453 1.4848 1.2779 1.6322 1.6972 1.0075 2.8652-1.3251 2.4774-5.43 2.6501-7.996 0.33629-0.62137-0.56028-1.1298-0.84314-1.1298-0.62859 0 0.21471-1.0234-0.0376-2.2741-0.5606-2.0194-0.84425-2.3164-0.84057-2.6514 0.033-0.44635 1.1639-2.2544 1.2927-3.3105 0.2358-0.56604-0.56639-0.99676-0.54062-1.7757 0.10628-0.87832 0.72937-1.0789 0.6609-1.3742-0.4691-0.24094-0.92223-0.72012-1.2252-1.5813-0.99982-1.4798 0.38719-1.602 1.648-0.26717 2.7564 1.1855 0.98451 1.2559 2.8328 0.14305 3.757-0.61558 0.51117-1.3798 0.1179-3.0072-1.5475-1.8347-1.8776-2.175-2.6861-2.1388-5.0815 0.027-1.7908-0.27201-2.9697-0.80541-3.1745-0.97267-0.37348-1.9143-3.9289-1.3027-4.919 0.55982-0.9063 1.1322-0.84332 4.7152 0.51891zm-10.848 3.6524c0.85623 1.0323 0.17118 2.9184-1.0599 2.9184-1.2262 0-4.7407-1.832-4.7407-2.4712 0-1.8402 4.366-2.1768 5.8006-0.44719zm140.1 2.5593c0 0.47107-0.72626 1.3326-1.6139 1.9146-1.5716 1.0303-1.6139 1.0162-1.6139-0.53957 0-0.87873 0.50216-1.8789 1.116-2.2226 1.2842-0.71907 2.1119-0.38689 2.1119 0.84752zm-88.665 7.1218c2.8877 2.705 3.9227 3.3389 4.417 2.7053 1.2136-1.5558 2.8474-1.7394 3.5636-0.40049 0.37299 0.69733 1.249 1.2679 1.9466 1.2679 1.3428 0 1.707 0.94444 0.62285 1.6149-0.35506 0.21958-0.64557 0.67524-0.64557 1.0125 0 0.33732 0.54768 0.2711 1.217-0.14711 1.5828-0.98908 4.9758 0.31969 5.4407 2.0986 0.1974 0.75561 1.1079 1.4 2.321 1.6427 1.5451 0.3092 1.9961 0.73922 1.9961 1.9032 0 2.6577-1.3626 4.8587-2.7376 4.422-1.434-0.45541-3.0208 1.2788-3.0521 3.3358-0.0162 0.98719-0.987 1.8221-3.6268 3.1155-3.5819 1.7549-3.6224 1.7591-5.9716 0.61383-1.3009-0.63422-2.5686-1.1641-2.8172-1.1776-0.24852-0.0135-0.77708-0.3499-1.1745-0.74755-0.41509-0.41536-1.8819-0.59232-3.4469-0.41582-1.9875 0.22418-2.9552 0.0289-3.5781-0.72212-1.0006-1.2064-0.48835-3.0999 0.71875-2.6566 0.45728 0.16793 1.2672 0.0189 1.7998-0.33386 1.4592-0.96315-0.34111-1.8993-2.8646-1.4896-1.4152 0.22986-2.4786-0.0595-3.6061-0.98091-2.3399-1.9122-0.94474-2.9391 4.0489-2.9802 4.4102-0.0362 5.7824-0.55049 5.2403-1.9639-0.24122-0.62919-0.93224-0.8045-2.1835-0.55412-1.0718 0.21444-2.6689-0.0522-3.8532-0.6433-1.5135-0.75549-2.4473-0.84808-3.7096-0.36787-0.92783 0.35297-3.0169 0.79541-4.6423 0.98321-3.0481 0.35219-4.9378 1.4517-3.4396 2.0014 1.4011 0.51403 0.87432 1.4803-0.80695 1.4803-1.2834 0-1.614-0.32488-1.614-1.5862 0-0.87243-0.72626-2.6571-1.6139-3.9659-2.1406-3.1562-2.1716-5.0633-0.0736-4.5365 1.2137 0.30482 1.6184 0.0876 1.909-1.0241 0.34903-1.3355 0.43334-1.3524 1.577-0.3168 1.3537 1.2258 3.0822 1.4306 3.6955 0.43768 0.22309-0.36109 0.69424-0.47794 1.0472-0.2596 0.35289 0.21822 1.1935-0.10303 1.8681-0.71377 0.67453-0.6108 1.673-0.93909 2.2188-0.72951 0.60101 0.23066 0.99241 0.0243 0.99241-0.52148 0-1.3899 1.8609-2.9327 3.5375-2.9327 0.93732 0 2.9364 1.3376 5.2799 3.5329zm6.031 5.4724c0 0.33432 0.29051 0.78749 0.64557 1.0071 0.35505 0.21958 0.64557-0.0538 0.64557-0.60785 0-0.55387-0.29052-1.007-0.64557-1.007-0.35506 0-0.64557 0.27353-0.64557 0.60782zm2.5823 12.904c0 1.3044 0.83113 2.6367 1.6449 2.6367 1.3015 0 1.7925-1.2299 0.91394-2.2892-0.8657-1.0437-2.5589-1.2736-2.5589-0.34751zm-7.747-20.903c0 0.55387-0.29524 0.82448-0.65611 0.60133-0.36085-0.2231-0.48897-0.67635-0.28467-1.0071 0.55341-0.89598 0.94078-0.72891 0.94078 0.40574zm-32.226 1.5768c0.89054 0 1.2384 0.4536 1.2384 1.6149 0 1.987-1.0567 2.0605-3.0249 0.21038-1.7183-1.6152-1.9693-2.7919-0.47299-2.2174 0.56163 0.21553 1.5784 0.39208 2.2595 0.39208zm121.33 2.1785c5e-3 0.75587 0.28235 1.8054 0.61531 2.3323 0.4708 0.745 0.90974 0.26961 1.974-2.1376 0.95501-2.1602 1.6935-3.0331 2.4438-2.8885 1.7744 0.34194 1.624 2.3334-0.30147 3.9906-1.7088 1.4708-1.7552 1.6487-0.86266 3.3173 0.89963 1.6819 0.85106 1.8413-1.0542 3.4604-1.0985 0.93348-2.3306 2.3357-2.7379 3.116-0.71375 1.3673-0.82821 1.3825-3.1574 0.42015-3.2113-1.3269-4.3881-2.4502-5.9512-5.6809-1.7441-3.6048-1.6493-4.7558 0.46788-5.686 0.97645-0.42899 2.0214-1.1739 2.322-1.6554 0.33619-0.53835 1.1288-0.72921 2.0586-0.4957 0.83157 0.20876 1.7008 0.0738 1.9317-0.30001 0.6305-1.0207 2.2396 0.5569 2.2515 2.2075zm-128.48 2.7044c0 0.55387-0.29051 0.8274-0.64557 0.60782s-0.64557-0.67275-0.64557-1.0071c0-0.33429 0.29051-0.60782 0.64557-0.60782s0.64557 0.45317 0.64557 1.0071zm151.19 0.42344c0.30465 0.45669 0.40181 1.661 0.21579 2.6762-0.31152 1.701-0.21147 1.8141 1.2736 1.4411 0.89057-0.22363 1.6117-0.12385 1.6117 0.2231 0 1.1958-1.5015 3.9188-2.2018 3.9929-0.38683 0.0411-1.1391 0.11358-1.6717 0.16144-0.53261 0.0479-1.0651 0.81369-1.1834 1.7019-0.25608 1.9245-3.795 5.8136-5.29 5.8136-0.58048 0-1.451-0.73964-1.9346-1.6437-0.48354-0.90404-1.9126-2.1234-3.1756-2.7097-2.9881-1.3871-5.1764-3.4325-5.1904-4.8514-0.0135-1.3742 0.4731-1.4018 3.3685-0.19146 2.1858 0.91383 2.2961 0.88692 4.1037-1.0009 1.3044-1.3623 2.2645-1.8378 3.2242-1.5968 1.8352 0.46087 2.2562-0.10357 1.4303-1.9174-1.1521-2.53-0.22391-3.7557 2.5082-3.3121 1.2965 0.21066 2.6065 0.75642 2.9112 1.2131zm-156.36 1.3528c0 0.46501-0.42653 1.4097-0.94785 2.0994-0.81763 1.0816-0.95065 1.1058-0.96837 0.17632-0.0289-1.5199 0.65837-3.1211 1.3397-3.1211 0.31707 0 0.57651 0.38045 0.57651 0.84546zm6.6148 2.8688c1.4642 3.3679 1.9819 5.7679 1.435 6.6533-0.34133 0.5526-0.60763 0.51956-1.0056-0.12466-0.29773-0.48202-0.90068-0.87643-1.3399-0.87643s-1.2229-1.3672-1.7415-3.0382c-0.77026-2.4818-0.79122-3.2212-0.11439-4.0372 1.2124-1.4618 1.5983-1.2632 2.7663 1.4233zm23.727 4.6832c0 0.71055-0.27337 1.2919-0.60747 1.2919-0.86661 0-1.4772-1.1757-1.0065-1.9379 0.6747-1.0923 1.6139-0.71642 1.6139 0.64595zm46.482-0.0108c1.3588 0.36544 1.614 0.81842 1.614 2.8647 0 1.9695 0.32269 2.5999 1.7009 3.3226 1.5568 0.81639 1.8467 0.75674 3.4226-0.70455 2.5257-2.3421 6.902-1.8061 7.7771 0.95252 0.61488 1.9384-2.1778 7.3203-3.5032 6.751-0.55265-0.23742-1.6404-0.39692-2.4172-0.35465-0.88459 0.0481-1.5643-0.40201-1.8189-1.2045-0.48781-1.5379-1.908-1.6235-4.4998-0.2712-1.0565 0.55122-2.4225 0.87096-3.0356 0.71055-0.61307-0.16036-1.2042-0.0216-1.3136 0.3056-0.10952 0.3285-1.6134 0.7032-3.342 0.83265-3.5077 0.26257-7.4425-1.056-7.5926-2.5446-0.0533-0.52816-0.12601-1.3236-0.16144-1.7677-0.036-0.45008 0.47648-0.71401 1.1579-0.59633 2.2926 0.3959 2.673-1.9001 0.91074-5.4967-1.0821-2.2084-0.23986-3.5178 2.0079-3.1216 1.0521 0.18551 2.0986 0.0365 2.3256-0.33083 0.39213-0.63486 2.8675-0.39603 6.7677 0.65295zm45.836 1.0486c0 0.68054 0.35119 0.9032 1.0197 0.64654 0.56082-0.21525 1.7229-0.21498 2.5823 9e-4 2.6634 0.66885 1.7218 4.7741-1.095 4.7741-0.60952 0-1.2594 0.36336-1.4443 0.80745-0.24445 0.58756-0.58621 0.49959-1.2547-0.32296-1.0799-1.3288-2.4513-1.4519-3.5973-0.32299-0.65771 0.64795-1.1314 0.44732-2.3979-1.0157-1.8099-2.0907-1.4521-3.7088 0.44103-1.9946 1.1804 1.0689 1.227 1.0356 1.227-0.87304 0-2.0627 0.61396-2.6007 3.0665-2.6868 0.92492-0.0324 1.4526 0.32609 1.4526 0.98705zm38.018 1.1371c0.55809 0.67286 0.49352 1.0817-0.27112 1.7167-1.2339 1.0246-2.6108-0.0557-2.0233-1.5876 0.47818-1.2468 1.3277-1.2947 2.2944-0.12899zm-139.01 3.1205 0.45041 1.4199 1.1818-1.4604 1.1818-1.4604 2.3435 1.5934c1.8735 1.2738 2.7201 1.4853 4.2215 1.0544 1.0329-0.29641 1.878-0.31766 1.878-0.0473 0 0.27045 0.79892 0.90371 1.7754 1.4073s1.995 1.2567 2.2634 1.6736c0.26852 0.4169 1.4305 0.96258 2.5823 1.2126 1.1518 0.25014 2.3077 0.78143 2.5686 1.1809 0.29854 0.45717 0.47797 0.30743 0.48419-0.40414 0.0108-1.3826 1.2018-1.4948 1.7132-0.16144 0.20444 0.53291 0.75552 0.96893 1.2248 0.96893 1.8745 0 2.7392 1.7716 2.2285 4.566-0.53084 2.9047-1.4189 3.8438-3.195 3.3791-0.6179-0.16171-1.5735 0.15631-2.1236 0.7068-0.90317 0.90368-1.2491 0.86431-3.5668-0.40595-2.185-1.1976-2.6731-1.8683-3.2829-4.5116-1.4513-6.2912-4.1663-8.0992-6.0926-4.0573-1.386 2.9082-3.4834 3.0362-5.2947 0.32299-0.99163-1.4855-1.7779-1.9346-3.3893-1.936-2.0877-2e-3 -2.9238-1.3529-1.4148-2.2861 0.39203-0.24256 0.50776-1.2226 0.2715-2.299-0.31293-1.4256-0.17739-1.8764 0.56428-1.8764 0.53689 0 1.1788 0.63897 1.4266 1.4199zm90.018 1.4548c0 1.9279 1.7335 3.0768 3.2307 2.1413 0.8145-0.50895 1.7822-0.15035 4.2384 1.5708 1.7506 1.2267 3.7053 2.1119 4.3437 1.9671 2.4288-0.55063 4.1727 2.6869 1.9057 3.538-0.62137 0.23337-1.4203 0.78099-1.7754 1.2172-0.35506 0.43613-1.2266 0.89733-1.9367 1.0249-0.87045 0.1563-1.2324 0.65839-1.1109 1.5408 0.15225 1.1057-0.19848 1.3197-2.2581 1.3781-2.8488 0.0808-3.769-0.92773-2.3142-2.5362 0.95956-1.0609 0.8691-1.206-1.3238-2.1228-1.2946-0.54122-2.3538-1.2424-2.3538-1.5581s-0.87153-0.8781-1.9367-1.2496c-1.0652-0.37155-1.9367-1.1165-1.9367-1.6554 0-1.7748-2.2233-2.3866-5.0484-1.3892-1.42 0.50127-2.7533 0.73981-2.9629 0.53004-0.74238-0.74281-0.36728-3.2492 0.60739-4.0586 0.81414-0.67607 1.133-0.62328 1.8071 0.29919 0.76737 1.0501 1.0184 1.0199 4.0147-0.48185 4.1124-2.0612 4.8101-2.0838 4.8101-0.15577zm53.184-0.41477c0.1774 0.28713-0.37607 1.3772-1.2298 2.4223-1.1984 1.467-1.5576 1.6425-1.5755 0.76986-0.0135-0.62175 0.26717-1.1304 0.62234-1.1304 0.35508 0 0.64559-0.58138 0.64559-1.2919 0-1.291 0.92841-1.7558 1.5374-0.76983zm-29.616 0.77686c0.22175 0.35915 1.2717 0.58678 2.333 0.50587 1.5003-0.11438 2.2914 0.31531 3.5551 1.9308 1.0415 1.3316 2.1932 2.078 3.2063 2.078 1.751 0 3.2882 2.433 2.6268 4.1575-0.50095 1.3062-4.2703 1.339-5.9533 0.0516-0.68924-0.52715-2.3046-1.2548-3.5898-1.6171-3.253-0.9169-5.7331-3.0227-5.7331-4.8678 0-2.0428 2.6466-3.7097 3.555-2.239zm1.9324 4.5147c-0.21931 0.35527-0.0914 0.64597 0.28469 0.64597 0.37602 0 0.68368-0.2907 0.68368-0.64597 0-0.35528-0.12818-0.64595-0.2847-0.64595-0.15657 0-0.46423 0.29067-0.68367 0.64595zm6.133 3.2298c0 0.35527 0.43575 0.64594 0.96837 0.64594 0.53259 0 0.96837-0.29067 0.96837-0.64594 0-0.35528-0.43578-0.64598-0.96837-0.64598-0.53262 0-0.96837 0.2907-0.96837 0.64598zm3.8735-5.8136c0 0.35527-0.29051 0.64597-0.64559 0.64597-0.35506 0-0.64557-0.2907-0.64557-0.64597 0-0.35528 0.29051-0.64595 0.64557-0.64595 0.35508 0 0.64559 0.29067 0.64559 0.64595zm-47.958 2.5766c1.1262 0.88638 2.1394 1.1573 3.268 0.87388 1.5631-0.39253 1.6165-0.31411 1.2012 1.7634-0.33224 1.6622-0.25636 1.996 0.32201 1.4172 1.3329-1.3337 3.1411 0.23202 3.1411 2.7199 0 2.707-0.96999 3.4133-2.627 1.9129-0.68995-0.62475-1.4395-0.95077-1.6657-0.72445-0.22607 0.22634 0.066 0.59476 0.64952 0.81877 1.7128 0.65763 1.3302 3.839-0.64898 5.3967-1.6756 1.3189-1.727 1.3211-2.5738 0.11141-0.47523-0.67889-1.1801-2.0627-1.5664-3.0752-0.64433-1.6888-0.77086-1.7475-1.5322-0.71039-1.0969 1.494-2.1191 1.4311-2.6243-0.16144-0.41496-1.3082-2.2595-1.8355-2.2595-0.64595 0 0.9966-2.3265 0.76382-3.2279-0.32299-0.442-0.53291-1.2078-0.96894-1.7018-0.96894-0.49394 0-1.4367-0.33656-2.095-0.74789-1.5517-0.96961-3.3046-0.27897-3.3046 1.302 0 0.68235-0.54409 1.9129-1.209 2.7346-1.1503 1.4214-1.3392 1.451-3.8866 0.60979-2.5507-0.8423-2.7455-0.8112-4.1121 0.65652-1.3655 1.4665-1.4462 1.4795-1.6755 0.26907-0.38462-2.0293-1.5077-2.2558-2.8321-0.57102-1.4178 1.8034-2.3047 1.9774-2.8488 0.55858-0.22148-0.57753 0.245-1.6718 1.1011-2.5838 1.2998-1.3844 1.3426-1.582 0.34267-1.582-1.1939 0-4.4206-1.6042-6.3286-3.1464-0.61231-0.49486-2.1664-0.96374-3.4535-1.042-2.3846-0.14494-3.6291-1.2143-3.3407-2.8708 0.22039-1.2659 3.509-2.0819 4.5259-1.1231 0.43962 0.4145 1.3803 0.8506 2.0905 0.96913 0.71012 0.11844 1.5463 0.46101 1.8582 0.76115 0.31188 0.30011 1.0985 0.21363 1.748-0.19227 0.95942-0.59949 1.4619-0.47391 2.6782 0.66947 0.97164 0.91334 1.9779 1.2816 2.8664 1.0492 0.75306-0.19713 1.9622-0.0408 2.687 0.34744 0.9778 0.52361 2.3169 0.4725 5.1898-0.19822 2.1296-0.49711 3.963-0.81545 4.0742-0.70744 0.11114 0.1079 2.7245 0.38559 5.8073 0.61685l5.6051 0.4205 0.20525-2.1371c0.16738-1.7437 0.47247-2.1277 1.6577-2.0858 0.80363 0.0284 1.4526-0.33235 1.4526-0.80745 0-1.2237 1.1514-1.0625 3.0425 0.42591zm-35.63 14.021c-0.43565 1.0722-0.52697 1.0519-1.1339-0.25176-0.36301-0.77975-0.44681-1.9425-0.18632-2.5838 0.43565-1.0722 0.527-1.0519 1.1339 0.25175 0.36304 0.77976 0.44684 1.9425 0.18632 2.5838zm3.676 3.5454c-0.87237 0.87289-1.6715-0.49884-1.1219-1.9258 0.3903-1.0135 0.47572-1.0062 1.0925 0.0933 0.44186 0.7877 0.45187 1.41 0.0295 1.8326zm103.8-109.65c0 0.51196 0.29051 1.1105 0.64557 1.3301s0.64557-0.1993 0.64557-0.93081c0-0.73154-0.29051-1.33-0.64557-1.33s-0.64557 0.41887-0.64557 0.9308z" stroke-width=".64577"/><path d="m256.39 138.76h4.3321c1.1817 0 2.0146-0.1271 2.4933-0.38129 0.47864-0.2542 0.88697-0.70039 1.2169-1.3413 0.32991-0.63819 0.49487-1.3683 0.49487-2.1742 0-0.74636-0.14062-1.4224-0.42456-2.0227-0.28123-0.60304-0.649-1.0492-1.0952-1.3386 0.64089-0.26771 1.1412-0.72472 1.5035-1.3737 0.36777-0.6463 0.54895-1.4359 0.54895-2.3662 0-1.125-0.23526-2.0795-0.69497-2.8556-0.45971-0.77881-1.0087-1.2574-1.6387-1.4413-0.43808-0.1271-1.4548-0.192-3.0503-0.192h-3.6858zm2.1796-2.5771v-3.5803h1.4413c0.86264 0 1.3981 0.0162 1.6036 0.0541 0.37318 0.0676 0.66253 0.25149 0.87345 0.55165 0.20823 0.29747 0.31369 0.7058 0.31369 1.2223 0 0.457-0.0838 0.82748-0.25419 1.1141-0.17307 0.28394-0.38129 0.45971-0.62197 0.53273-0.24337 0.0676-0.94105 0.10546-2.093 0.10546zm0-6.1601v-4.1374h2.0281c0.88697 0 1.4576 0.0541 1.709 0.16225 0.25149 0.10817 0.46242 0.3245 0.63549 0.6436 0.16766 0.3218 0.25419 0.72472 0.25419 1.2196 0 0.50838-0.0919 0.92212-0.27312 1.252-0.18389 0.32721-0.42726 0.55436-0.72743 0.67605-0.30557 0.12439-0.92483 0.18388-1.8605 0.18388zm8.3046 0.89779c0 1.847 0.22986 3.364 0.69768 4.5593 0.46242 1.1926 1.0709 2.0822 1.8226 2.6663 0.74906 0.5841 1.6577 0.87615 2.7285 0.87615 1.5468 0 2.8069-0.69227 3.7859-2.0795 0.9735-1.3872 1.463-3.364 1.463-5.9276 0-2.5879-0.5165-4.616-1.5495-6.0709-0.9059-1.2926-2.1363-1.9335-3.6912-1.9335-1.5657 0-2.8015 0.63819-3.7101 1.9119-1.033 1.4548-1.5468 3.456-1.5468 5.9979zm2.2499 0.10547c0-1.7821 0.28935-3.1152 0.86264-4.0049 0.5787-0.89238 1.2899-1.3386 2.1444-1.3386 0.85723 0 1.5684 0.44348 2.1336 1.3278 0.56518 0.88157 0.84641 2.2391 0.84641 4.0698 0 1.7956-0.27583 3.1233-0.82478 3.9833-0.54624 0.85993-1.2656 1.2872-2.1552 1.2872-0.88697 0-1.6117-0.43267-2.1688-1.298-0.55976-0.86804-0.8383-2.2093-0.8383-4.0265zm12.385-7.7529v12.867h-3.2126v2.6204h8.5993v-2.6204h-3.2072v-12.867zm15.454 0h-2.377l-0.94646 3.5208h-4.3213l-0.88968-3.5208h-2.3229l4.2131 15.487h2.3148zm-4.0238 6.1277-1.4873 5.7464-1.4657-5.7464zm5.2029-6.1277v15.487h2.1255l4.4294-10.341v10.341h2.0362v-15.487h-2.1985l-4.3592 10.1v-10.1zm10.825 0v15.487h2.1769v-15.487zm11.198 5.695 2.1201-0.95998c-0.33261-1.7334-0.88156-3.0016-1.6496-3.7994-0.76799-0.79774-1.7144-1.198-2.8367-1.198-1.4089 0-2.5528 0.63819-3.4289 1.9119-1.0114 1.4711-1.5143 3.456-1.5143 5.9546 0 2.6447 0.50568 4.7107 1.5225 6.2007 0.88156 1.2953 2.066 1.9443 3.556 1.9443 1.2115 0 2.2255-0.48675 3.0422-1.4548 0.5814-0.69227 1.0087-1.7172 1.2791-3.0774l-2.1606-0.73824c-0.13791 0.841-0.41103 1.4819-0.82477 1.9281-0.41104 0.44889-0.89509 0.67064-1.4522 0.67064-0.80044 0-1.4494-0.40563-1.9551-1.225-0.50297-0.81396-0.75717-2.1634-0.75717-4.0455 0-1.9497 0.24879-3.3397 0.73824-4.1617 0.49217-0.82478 1.1304-1.2358 1.9173-1.2358 0.5787 0 1.0763 0.2623 1.4954 0.78691 0.42185 0.52462 0.72472 1.3575 0.9086 2.4987zm13.74-5.695h-2.3743l-0.94646 3.5208h-4.3213l-0.88968-3.5208h-2.3256l4.2158 15.487h2.3121zm-4.0211 6.1277-1.4873 5.7464-1.4657-5.7464zm5.2407-6.1277v15.36h2.1796v-12.748h5.4354v-2.6122zm12.569 5.0379 2.1309 0.29746c0.24067-1.9768 1.0276-2.9692 2.3608-2.9692 0.65712 0 1.1763 0.20281 1.5549 0.60844 0.38129 0.40563 0.56788 0.9059 0.56788 1.5035 0 0.35425-0.0622 0.65441-0.19471 0.89779-0.1325 0.24878-0.33531 0.4516-0.60573 0.61114-0.27042 0.15685-0.92213 0.42186-1.9605 0.79503-0.93294 0.33262-1.6144 0.68957-2.0444 1.079-0.43267 0.3867-0.77881 0.89509-1.033 1.5252-0.25419 0.63007-0.38129 1.3088-0.38129 2.0335 0 0.84371 0.16225 1.6036 0.48946 2.2823 0.32991 0.67335 0.7788 1.1871 1.3548 1.5333 0.5787 0.34073 1.2872 0.51379 2.1363 0.51379 1.271 0 2.2661-0.40292 2.9773-1.2142 0.71661-0.80855 1.0952-1.9686 1.1358-3.4749l-2.1877-0.13792c-0.0974 0.83289-0.30287 1.4143-0.62196 1.7442-0.31639 0.32991-0.77069 0.49487-1.3602 0.49487-0.5841 0-1.0411-0.14332-1.3575-0.43267-0.31909-0.28935-0.47864-0.6463-0.47864-1.079 0-0.42185 0.14332-0.7734 0.43267-1.0628 0.28935-0.29205 0.95187-0.60573 1.9876-0.95187 1.1006-0.37588 1.8956-0.76799 2.3824-1.179 0.48946-0.41104 0.86534-0.94377 1.1222-1.5928 0.2569-0.65441 0.3867-1.444 0.3867-2.3743 0-1.344-0.35154-2.4716-1.0573-3.3884-0.70579-0.91672-1.8091-1.3737-3.3099-1.3737-2.6501 0-4.1293 1.7712-4.4268 5.311zm10.614 10.449h2.1796v-8.3857c0-1.3061 0.0243-2.1525 0.0784-2.5473 0.0974-0.68416 0.32721-1.2115 0.68957-1.5847 0.36236-0.37317 0.841-0.55976 1.4359-0.55976 0.50298 0 0.91402 0.1325 1.2331 0.39481 0.31639 0.26501 0.53543 0.63278 0.65171 1.1006 0.11898 0.46512 0.17577 1.4711 0.17577 3.0152v8.5669h2.1877v-8.1342c0-2.0768-0.0947-3.5803-0.28124-4.5025-0.192-0.92754-0.61385-1.6766-1.2791-2.2499-0.66252-0.5787-1.5387-0.86264-2.6231-0.86264-1.1276 0-2.0119 0.23797-2.6447 0.71391-0.63278 0.47323-1.0898 1.1439-1.3764 2.0038-0.28665 0.86263-0.42726 2.4527-0.42726 4.7702zm10.938-15.487v15.487h4.5998c1.1763 0 2.02-0.14062 2.523-0.41915s0.91942-0.75988 1.2412-1.4467c0.32721-0.68686 0.48675-1.5089 0.48675-2.4635 0-1.2115-0.24608-2.1904-0.74094-2.9286-0.49757-0.73824-1.2007-1.2034-2.112-1.3926 0.46782-0.39481 0.85452-0.82478 1.1601-1.2926 0.30558-0.47053 0.72473-1.3088 1.252-2.5203l1.3142-3.0233h-2.6014l-1.5846 3.3721c-0.57059 1.2142-0.95728 1.9795-1.1628 2.285-0.20282 0.30828-0.42186 0.5165-0.64901 0.63549-0.22715 0.11628-0.59221 0.17306-1.0952 0.17306h-0.4516v-6.4657zm2.1796 8.9373h1.6225c0.98973 0 1.6198 0.0514 1.8902 0.15414 0.26771 0.10005 0.48675 0.30557 0.65711 0.61655 0.16496 0.30828 0.25149 0.72472 0.25149 1.2358 0 0.49486-0.0865 0.88967-0.25149 1.1898-0.17036 0.30016-0.39751 0.50568-0.68686 0.61655-0.20281 0.0784-0.79503 0.11628-1.7712 0.11628h-1.7118zm11.228-8.9373-3.8616 15.487h2.3689l2.7366-11.463 2.6447 11.463h2.3229l-3.8697-15.487zm7.3283 0v15.487h8.0314v-2.6204h-5.8546v-3.4343h5.4408v-2.6068h-5.4408v-4.2131h6.052v-2.6122zm12.918 0v6.5198l-3.9589 8.9671h2.5555l2.5473-6.125 2.5041 6.125h2.5122l-3.9806-8.9887v-6.4982zm10.752 7.6474c0 1.847 0.22986 3.364 0.69768 4.5593 0.46242 1.1926 1.0736 2.0822 1.8226 2.6663 0.74906 0.5841 1.6577 0.87615 2.7285 0.87615 1.5495 0 2.8096-0.69227 3.7859-2.0795 0.97621-1.3872 1.463-3.364 1.463-5.9276 0-2.5879-0.5165-4.616-1.5495-6.0709-0.9059-1.2926-2.1336-1.9335-3.6912-1.9335-1.5657 0-2.8015 0.63819-3.7074 1.9119-1.033 1.4548-1.5495 3.456-1.5495 5.9979zm2.2499 0.10547c0-1.7821 0.28935-3.1152 0.86264-4.0049 0.5787-0.89238 1.2899-1.3386 2.1444-1.3386 0.85993 0 1.5684 0.44348 2.1336 1.3278 0.56518 0.88157 0.84641 2.2391 0.84641 4.0698 0 1.7956-0.27583 3.1233-0.82478 3.9833-0.54624 0.85993-1.2656 1.2872-2.1552 1.2872-0.88697 0-1.6117-0.43267-2.1688-1.298-0.55976-0.86804-0.8383-2.2093-0.8383-4.0265zm9.9649-7.7529v15.487h7.4203v-2.6204h-5.2407v-3.6642h4.5295v-2.6204h-4.5295v-6.582zm13.361 0v15.487h2.1796v-15.487zm4.2942 0v15.487h2.1282l4.4268-10.341v10.341h2.0362v-15.487h-2.1985l-4.3564 10.1v-10.1zm10.882 15.487h3.9833c1.0087 0 1.7712-0.13251 2.285-0.39752 0.51379-0.2623 0.98702-0.70849 1.417-1.3359 0.43267-0.62466 0.77069-1.4386 1.0195-2.4392 0.24608-1.0006 0.37047-2.2418 0.37047-3.7264 0-1.3413-0.1298-2.5041-0.3894-3.4938-0.2569-0.98973-0.58681-1.7712-0.98162-2.3526-0.39752-0.57599-0.87345-1.0087-1.4359-1.3007s-1.2818-0.44078-2.1661-0.44078h-4.1022zm2.1742-2.6204v-10.254h1.6414c0.70038 0 1.2115 0.0757 1.5252 0.22986 0.31639 0.15414 0.57329 0.3894 0.7734 0.70308 0.20281 0.31369 0.36777 0.80856 0.50027 1.4846 0.13251 0.67605 0.19741 1.5657 0.19741 2.6717 0 1.1466-0.0676 2.0525-0.20282 2.715-0.13521 0.65982-0.34343 1.1844-0.63007 1.563-0.28664 0.38129-0.63008 0.63007-1.0384 0.74906-0.30828 0.0946-0.89779 0.13791-1.7739 0.13791zm8.6831-12.867v15.487h2.1769v-15.487zm14.024 0h-2.3743l-0.94647 3.5208h-4.3213l-0.88968-3.5208h-2.3229l4.2131 15.487h2.3121zm-4.0211 6.1277-1.4873 5.7464-1.4657-5.7464z" fill-rule="evenodd"/><path d="m271.6 165.21h-2.3689v-12.299l-2.8015 2.3689v3.2342h-3.7804l-0.0865-1.152c0-0.40563-0.0974-0.74095-0.29205-1.0114-0.18929-0.27042-0.47053-0.40563-0.8383-0.40563s-1.1358 0.57869-2.2986 1.7307c-1.1574 1.1574-1.7415 1.9362-1.7415 2.3418 0 0.26501 0.0757 0.49757 0.21634 0.69227 0.14602 0.18929 0.34072 0.28665 0.59492 0.28665h2.1363l0.28665 1.7307c-1.1141 0.0974-2.2228 0.34073-3.3207 0.72473-1.0979 0.38399-1.6442 1.298-1.6442 2.742 0 0.55706 0.22175 1.0276 0.66523 1.4116 0.44349 0.384 1.0006 0.5787 1.6712 0.5787 1.1195 0 2.1742-0.53002 3.1747-1.5901 1.0006-1.0546 1.5035-2.1417 1.5035-3.2612v-2.3364h3.7264l0.027 4.2131h-2.5419l-1.444 2.4824h37.74c-0.28664 0.34613-0.57329 0.7734-0.85452 1.2872-0.27583 0.50839-0.41645 1.1844-0.41645 2.0336 0 1.1141 0.28665 2.0011 0.86534 2.6555 0.5787 0.65441 1.3575 0.97891 2.3418 0.97891 1.4008 0 2.6231-0.50838 3.6669-1.5306 1.0384-1.0168 1.9038-2.2228 2.596-3.6074 0.24878-0.61655 0.51379-1.2223 0.7788-1.8172h17.466v-2.4824h-2.3932v-12.299l-2.742 2.3689v2.0498c-0.36777-0.23256-0.78421-0.41104-1.2547-0.53543s-1.0276-0.18929-1.6604-0.18929c-1.3846 0-2.7042 0.63278-3.9535 1.8929-1.2547 1.2602-1.8767 2.3797-1.8767 3.364 0.21093-0.0216 0.39481-0.0325 0.54355-0.0325 0.75446 0 1.4251 0.11358 2.0092 0.34614 0.58952 0.23256 0.88157 0.67605 0.88157 1.3305 0 0.40563-0.11358 0.74095-0.34614 1.0114-0.23256 0.27042-0.45971 0.49757-0.69227 0.69228h-5.0568v-12.299l-2.8286 2.3689v9.9298h-4.4132v-12.299l-2.7691 2.3689v5.1109h-3.8129c-0.54084 0-1.06-0.20552-1.563-0.62196-0.50298-0.41104-0.75176-0.94647-0.75176-1.6009 0-1.0222 0.34613-1.8875 1.0384-2.6014 0.69768-0.7085 1.4008-1.3359 2.1093-1.8767l-0.83289-0.69227c-0.27042 0-1.0546 0.79503-2.358 2.3797-1.298 1.5901-1.947 3.0395-1.947 4.3483 0 0.92483 0.30287 1.682 0.9086 2.2661 0.60574 0.58951 1.3521 0.88156 2.2391 0.88156h4.9703v2.3364h-11.958c0.0757-0.36777 0.15144-0.80044 0.23256-1.298 0.0757-0.50298 0.11358-1.1087 0.11358-1.8172 0-1.4278-0.37318-2.4446-1.1249-3.0611-0.75176-0.61656-1.5198-1.0979-2.3094-1.444 0.27042-0.28664 0.57329-0.58951 0.90861-0.9086 0.33532-0.3191 0.73554-0.6436 1.1952-0.98433 0.46512-0.33532 1.0546-0.69227 1.7794-1.0654 0.71932-0.37858 1.4008-0.71931 2.0336-1.0276l-1.0384-0.69227c-0.75176 0.40563-1.5522 0.85993-2.3959 1.3575-0.84912 0.50298-1.6658 1.0709-2.4554 1.7036-0.78963 0.63278-1.6387 1.444-2.5528 2.423-0.91402 0.98432-1.3737 1.7848-1.3737 2.3959 0 0.44348 0.11358 0.78962 0.34614 1.0438 0.23255 0.24879 0.61655 0.37318 1.1574 0.37318 0.36236 0 0.74094-0.0865 1.1249-0.2596 0.38399-0.17307 0.75176-0.36777 1.0979-0.5787 0.18929 0.13521 0.38399 0.32451 0.57869 0.56247 0.1893 0.24338 0.28665 0.64901 0.28665 1.2277 0 0.34614-0.0216 0.69768-0.0703 1.0546-0.0487 0.35695-0.10276 0.68686-0.16225 0.99514h-9.0374v-12.299l-2.8286 2.3689v9.9298zm208.43 0h-2.3635v-12.299l-2.742 2.3689v9.9298h-2.6285v-5.1109c0-0.86534-0.22174-1.5414-0.66523-2.0227-0.44348-0.48135-1.2331-0.71932-2.3689-0.71932-0.67064 0-1.6442 0.52461-2.9151 1.5738-1.271 1.0492-1.9037 1.9362-1.9037 2.6717v3.6074h-3.6182v-12.299l-2.7691 2.3689v4.8729c-0.30827-0.0757-0.649-0.14062-1.0222-0.20011-0.36777-0.0595-0.72472-0.0865-1.0763-0.0865-0.83288 0-1.6117 0.1947-2.331 0.57869-0.71932 0.384-1.3683 0.76799-1.9524 1.152-0.75718-0.28664-1.5144-0.63277-2.2715-1.0384s-1.1358-0.96269-1.1358-1.6712c0-0.48134 0.14062-0.88697 0.41645-1.2115 0.28123-0.32991 0.70849-0.49217 1.2872-0.49217 0.42185 0 0.76799 0.0379 1.0384 0.11358 0.27041 0.0811 0.46512 0.14603 0.57869 0.20552 0.0216 0.18929 0.0865 0.47593 0.20011 0.85993 0.11899 0.38399 0.56247 0.57869 1.3305 0.57869 0.55706 0 1.0384-0.17306 1.444-0.5192 0.40562-0.34613 0.60573-0.7788 0.60573-1.298 0-0.63278-0.21092-1.0546-0.63278-1.2656-0.42726-0.21092-0.84911-0.36777-1.271-0.46512l1.5846-2.3959-1.271-0.14603-1.1844 2.3418-1.1844 0.0865c-0.95729 0-1.9524 0.5192-2.9692 1.5576-1.0222 1.0384-1.5306 2.1579-1.5306 3.3478 0 0.94646 0.29205 1.6171 0.88157 2.0227 0.5841 0.40022 1.179 0.71931 1.7739 0.95187-0.63278 0.30828-1.2656 0.67605-1.8929 1.1087-0.62196 0.43267-0.93565 1.006-0.93565 1.7199 0 0.59492 0.28124 1.0763 0.84912 1.444 0.56788 0.36236 1.1898 0.54624 1.8659 0.54624 1.1736 0 2.2174-0.37318 3.1314-1.1249 0.91402-0.75176 1.3683-1.6063 1.3683-2.569 0-0.59492-0.14062-1.0384-0.41644-1.325-0.28124-0.29205-0.57329-0.54083-0.88157-0.75176 0.15144-0.11898 0.36777-0.22174 0.63278-0.31909 0.27042-0.0974 0.68686-0.14603 1.2439-0.14603 1.0763 0 1.8875 0.14062 2.4284 0.41645 0.53543 0.28123 0.9681 0.56787 1.298 0.85452v2.1958h-2.3959l-1.7307 2.4824h26.101zm-10.449-5.3705v5.3705h-2.3689v-4.7594c0-0.5787 0.0865-1.0168 0.25961-1.3142 0.17306-0.29746 0.43267-0.4489 0.7788-0.4489 0.36777 0 0.68146 0.10817 0.94106 0.32991s0.3894 0.49757 0.3894 0.82207zm-17.907 5.6572c0 0.30828-0.11358 0.56788-0.34614 0.77881-0.23256 0.21092-0.50839 0.31909-0.8383 0.31909-0.45971 0-0.86534-0.11899-1.2115-0.36236-0.34614-0.23797-0.51921-0.57329-0.51921-0.99514 0-0.48135 0.11899-0.84371 0.36236-1.0979 0.23797-0.24879 0.49217-0.45971 0.76258-0.63278 0.40563 0.17307 0.80585 0.40022 1.2007 0.67605 0.39481 0.28123 0.58952 0.71931 0.58952 1.3142zm-6.1169 8.2315c-0.15144 0.15143-0.36777 0.30287-0.64901 0.44349-0.27582 0.14602-0.67604 0.21633-1.1952 0.21633-0.67604 0-1.2115-0.28123-1.6171-0.8383-0.40563-0.55706-0.60574-1.1898-0.60574-1.9037 0-0.86534 0.0974-1.6225 0.28665-2.2661 0.1947-0.6436 0.39481-1.2061 0.60573-1.6874h2.688v-2.4824h-2.423v-12.299l-2.742 2.3689v1.8442c-0.28664-0.27042-0.67605-0.53543-1.1574-0.79503-0.48135-0.2596-1.1249-0.3894-1.9308-0.3894-0.82748 0-1.7685 0.48675-2.8178 1.4603-1.0492 0.9681-1.5738 1.92-1.5738 2.8448 0 0.94106 0.35696 1.6766 1.0709 2.2066 0.7085 0.53002 1.655 0.79503 2.8286 0.79503 0.78962 0 1.4765-0.16225 2.066-0.49216 0.5841-0.32451 1.0925-0.66523 1.5143-1.0114v3.4668h-10.833v-12.299l-2.742 2.3689v4.04c-0.17307-0.0974-0.38399-0.18929-0.63278-0.27583-0.25419-0.0865-0.60033-0.1298-1.0384-0.1298-0.3894 0-0.81666 0.18389-1.2872 0.54625-0.47053 0.36777-0.9086 0.74094-1.3142 1.1304l-0.95188-1.5035c-0.21092-0.34614-0.52461-0.60033-0.93564-0.76258-0.41645-0.16766-0.73013-0.28664-0.94106-0.36236 0.17307-0.27042 0.3894-0.60033 0.649-0.99514 0.25961-0.39481 0.45972-0.71391 0.59493-0.95187 0.1352-0.24338 0.4543-0.61656 0.96809-1.125 0.50839-0.51379 1.0114-1.0168 1.5144-1.5198l-1.0114-0.45971c-0.0595 0-0.54624 0.54084-1.4603 1.6171-0.91401 1.0763-1.7523 2.2282-2.5257 3.4505-0.76799 1.2223-1.152 2.2337-1.152 3.0449 0 0.42185 0.1298 0.74635 0.3894 0.9681 0.2596 0.22174 0.57329 0.32991 0.93565 0.32991 0.42726 0 0.7085-0.0216 0.85452-0.0703 0.14603-0.0487 0.2542-0.11358 0.32991-0.1893 0.0974 0.0974 0.23256 0.28665 0.40563 0.56247 0.17307 0.28124 0.2596 0.65983 0.2596 1.1412 0 0.50298-0.13521 0.98432-0.40562 1.444h-3.6074v2.4824h25.495c-0.36777 1.1141-0.86534 2.2337-1.4873 3.3478-0.62737 1.1195-1.6009 1.6766-2.9313 1.6766-0.54083 0-1.033-0.0595-1.4873-0.17306-0.4543-0.11358-0.85993-0.23797-1.2277-0.37318l-1.9038 2.9422 2.6826-0.027c1.4278 0 2.6663-0.54624 3.7264-1.6333 0.57329-0.58951 1.0952-1.2358 1.5657-1.9335-0.046 0.28664-0.0676 0.56247-0.0676 0.81937 0 1.4062 0.23797 2.3959 0.71932 2.9638 0.48134 0.56787 1.1303 0.84911 1.9362 0.84911 0.78962 0 1.3629-0.20011 1.7199-0.60574 0.35696-0.40563 0.63819-0.81666 0.84912-1.2439zm-5.6518-13.629v0.86534c-0.24878 0.0974-0.54084 0.1947-0.86534 0.28664-0.32991 0.0974-0.61655 0.14602-0.86534 0.14602-0.96269 0-1.8497-0.21092-2.6609-0.63277-0.80584-0.42727-1.2115-1.033-1.2115-1.8226 0-0.26501 0.14602-0.51379 0.43267-0.73553 0.29205-0.22175 0.57869-0.32991 0.86534-0.32991 0.98432 0 1.8226 0.23796 2.5149 0.71931 0.69227 0.48134 1.2872 0.98432 1.7902 1.5035zm-13.575 1.9632v3.1477h-4.6728c0.11357-0.23256 0.23256-0.5138 0.35695-0.85453 0.12439-0.33532 0.18929-0.74094 0.18929-1.2223v-1.7631c0.19471-0.11898 0.43267-0.22715 0.71932-0.33532 0.29205-0.10276 0.60573-0.15684 0.95187-0.15684 0.69768 0 1.2169 0.1298 1.5738 0.39481 0.35695 0.26501 0.649 0.52461 0.88156 0.78962zm-19.86 3.1477h-2.3959v-12.299l-2.7691 2.3689v5.1109h-3.8129c-0.54084 0-1.06-0.20552-1.563-0.62196-0.50298-0.41104-0.75176-0.94647-0.75176-1.6009 0-1.0222 0.34613-1.8875 1.0384-2.6014 0.69768-0.7085 1.4008-1.3359 2.1093-1.8767l-0.83289-0.69227c-0.27042 0-1.0546 0.79503-2.358 2.3797-1.298 1.5901-1.947 3.0395-1.947 4.3483 0 0.92483 0.30286 1.682 0.9086 2.2661 0.60574 0.58951 1.3521 0.88156 2.2391 0.88156h4.9703v2.3364h-11.152v-12.299l-2.8286 2.3689v9.9298h-4.3591v-12.212l-2.6555 2.3364v2.6285c-0.21093-0.15143-0.47053-0.29746-0.77881-0.43267s-0.67605-0.20011-1.0979-0.20011c-1.0006 0-2.0714 0.55706-3.2072 1.6766-0.24338 0.24068-0.46512 0.47324-0.65712 0.70039-0.22715-0.15144-0.48946-0.28935-0.79773-0.41915-0.3191-0.13521-0.68687-0.20011-1.1114-0.20011-0.59762 0-1.0844 0.16225-1.4548 0.49216-0.38129 0.3245-0.70038 0.66523-0.9708 1.0114l-1.0384-1.6766c-0.1947-0.3245-0.45971-0.56788-0.79503-0.71931-0.34072-0.15684-0.59492-0.2596-0.76799-0.31909l1.3332-2.0498c0.1325-0.23256 0.41374-0.55706 0.84641-0.97891 0.43267-0.42726 0.86534-0.8383 1.2899-1.2439l-0.89508-0.60573c-0.0433 0-0.54084 0.54083-1.5035 1.6171-0.96269 1.0763-1.8118 2.1796-2.5419 3.3045s-1.0952 2.1147-1.0952 2.9584c0 0.44349 0.13251 0.81126 0.40293 1.0979 0.27312 0.28664 0.57599 0.43267 0.92483 0.43267 0.42455 0 0.73013-0.0433 0.92212-0.1298 0.192-0.0865 0.35425-0.18929 0.48946-0.30287 0.0784 0.28664 0.15144 0.62737 0.21634 1.0114 0.0703 0.38399 0.10276 0.7139 0.10276 0.97891 0 0.21634-0.0352 0.43808-0.11358 0.68146-0.0811 0.23796-0.1325 0.42726-0.17307 0.56247h-5.6301v-12.299l-2.742 2.3689v4.9054h-3.2612c-0.0974 0-0.24879-0.0379-0.4489-0.11358-0.20011-0.0811-0.36236-0.1947-0.47593-0.34613-0.11358-0.15684-0.17307-0.39481-0.17307-0.72472v-0.97892c0-0.40563-0.0324-0.69227-0.10276-0.86534-0.0649-0.17307-0.29205-0.2596-0.67605-0.2596-0.54083 0-1.2169 0.46512-2.039 1.4008-0.81667 0.93024-1.2277 1.7523-1.2277 2.4662 0 0.69227 0.20552 1.1952 0.62196 1.5035 0.41644 0.30828 0.94646 0.45971 1.6009 0.45971h6.1818v2.4824h-11.752v-12.299l-2.742 2.3689v1.8442c-0.28664-0.27042-0.67604-0.53543-1.1574-0.79503-0.48134-0.2596-1.1249-0.3894-1.9308-0.3894-0.82748 0-1.7685 0.48675-2.8178 1.4603-1.0492 0.9681-1.5738 1.92-1.5738 2.8448 0 0.94106 0.35695 1.6766 1.0708 2.2066 0.7085 0.53002 1.655 0.79503 2.8286 0.79503 0.78962 0 1.4765-0.16225 2.066-0.49216 0.5841-0.32451 1.0925-0.66523 1.5143-1.0114v3.4668h-8.8373v2.4824h52.142c-0.45972 0.28664-0.92484 0.65982-1.3954 1.1087-0.47053 0.45431-0.7085 1.0925-0.7085 1.92 0 1.3304 0.4543 2.3418 1.3575 3.0341s2.0984 1.0384 3.5803 1.0384c1.5955 0 3.1423-0.5192 4.6296-1.5576 1.4927-1.0384 2.8718-2.2715 4.1428-3.6939 0.48134-0.61655 0.97351-1.2331 1.4711-1.8497h5.1163zm-14.035 2.4824h7.7935c-0.38399 0.40563-0.75717 0.81125-1.1249 1.2115-0.96269 0.96269-2.0335 1.7956-3.218 2.4987-1.1844 0.70309-2.3905 1.0546-3.6236 1.0546-1.0763 0-1.947-0.21633-2.6122-0.649s-0.99514-1.1304-0.99514-2.093c0-0.61656 0.10276-1.0654 0.30287-1.3467 0.20011-0.27582 0.41104-0.50297 0.62196-0.67604h2.569zm-18.859-6.2169c-0.0351 0.16225-0.0541 0.31909-0.0541 0.47323v3.2612h-3.3748c0.0784-0.21093 0.17036-0.48676 0.27853-0.82208 0.10005-0.34072 0.15414-0.75717 0.15414-1.2602 0-0.38399-0.0108-0.70849-0.0243-0.96809-0.0243-0.25961-0.0568-0.46512-0.0947-0.61656 0.13521-0.21633 0.30828-0.37318 0.51921-0.48134 0.21363-0.10276 0.54083-0.15685 0.98432-0.15685 0.48134 0 0.94646 0.14603 1.4008 0.43267 0.073 0.046 0.14061 0.0919 0.21092 0.13792zm6.7334-0.50569v4.2402h-3.986v-4.9649c0-0.38399 0.0757-0.69768 0.23256-0.95187 0.15143-0.24879 0.44348-0.37318 0.86534-0.37318 0.45971 0 0.94646 0.22174 1.4603 0.66523 0.50838 0.44349 0.98432 0.9032 1.4278 1.3845zm-35.338-0.87074v0.86534c-0.24878 0.0974-0.54084 0.1947-0.86534 0.28664-0.32991 0.0974-0.61655 0.14602-0.86534 0.14602-0.96269 0-1.8497-0.21092-2.6609-0.63277-0.80584-0.42727-1.2115-1.033-1.2115-1.8226 0-0.26501 0.14603-0.51379 0.43267-0.73553 0.29205-0.22175 0.5787-0.32991 0.86534-0.32991 0.98432 0 1.8226 0.23796 2.5149 0.71931 0.69227 0.48134 1.2872 0.98432 1.7902 1.5035zm-23.475 0.69227v4.4186h-4.9378c0.46512-0.24879 0.91131-0.57329 1.3575-0.9681 0.44348-0.39481 0.66523-0.94647 0.66523-1.6604 0-0.96269-0.384-1.6117-1.152-1.947-0.77339-0.34072-1.5522-0.59492-2.3418-0.76798 0.13521-0.32451 0.34343-0.65442 0.63548-0.97892 0.28665-0.32991 0.83019-0.49216 1.6144-0.49216 1.06 0 1.9092 0.2596 2.5419 0.7788 0.63818 0.51921 1.1736 1.06 1.6171 1.6171zm-20.157 6.9011h6.9606c-0.44348 1.0384-1.0384 2.0768-1.7902 3.1152-0.75176 1.0384-1.9254 1.5576-3.5208 1.5576-0.76798 0-1.3629-0.21633-1.7739-0.649-0.41645-0.43267-0.62196-0.9681-0.62196-1.6009s0.0811-1.1358 0.24337-1.4981c0.16225-0.36777 0.32991-0.67605 0.50298-0.92483zm-40.622-4.1536v0.66523c0 0.7085-0.0865 1.3142-0.2596 1.8118-0.17307 0.50298-0.54625 0.75177-1.1249 0.75177-0.48135 0-0.84371-0.11899-1.0817-0.36236-0.24337-0.23797-0.36236-0.54084-0.36236-0.90861 0-0.88156 0.31369-1.4224 0.93565-1.6279 0.62196-0.20011 1.2493-0.30828 1.8929-0.32991" fill-rule="evenodd"/></g></g></svg>
