<?xml version="1.0" encoding="utf-8"?>
<!-- Generator: Adobe Illustrator 25.2.0, SVG Export Plug-In . SVG Version: 6.00 Build 0)  -->
<svg version="1.1" xmlns="http://www.w3.org/2000/svg" xmlns:xlink="http://www.w3.org/1999/xlink" x="0px" y="0px"
	 viewBox="0 0 569.94 532.81" style="enable-background:new 0 0 569.94 532.81;" xml:space="preserve">
<g id="_x32_Color_logo">
	<g>
		<path d="M569.94,415.7l-8.1-2.72c-32.4-10.87-88.03-22.35-134.42-24.51c10.86-7.7,16.13-18.65,18.47-25.33
			c15.78-8.77,22.91-21.51,26-32.8c0.22,0.05,0.44,0.07,0.65,0.07c1.06,0,2.09-0.58,2.6-1.58c5.85-11.28,13.55-28.31,17.58-40.92
			c0.25-0.79,0.15-1.65-0.26-2.37c7.48-11.79,8.68-23.26,7.39-32.83c0.66-0.46,1.1-1.18,1.21-2.01c0.92-7.3,1.5-14.73,1.72-22.03
			c0.08-2.38,0.12-4.82,0.12-7.26c0-0.56,0-1.13-0.01-1.7c0.06-0.24,0.1-0.49,0.09-0.74c-0.3-15.93-2.22-31.81-5.7-47.23
			c-0.13-0.54-0.41-1.01-0.78-1.39c-0.55-18.26-11.25-30.65-18.19-36.81c-1.01-24.17-18.48-37.21-26.17-41.78
			c-5.55-16.61-17.46-25.21-27.33-29.61c-6.51-8.69-14.36-14.03-22.06-17.27c-8.41-12.13-18.32-18.45-27.83-21.47
			c-0.04-0.03-0.07-0.06-0.11-0.09c-10.76-7.98-36.93-15.76-54.04-17.8C311.91,1.26,295.41,0,285.33,0c-7.26,0-22.6,0.57-32.96,5
			c-15.8,0.06-48.87,9.09-61.33,18.31c-0.04,0.03-0.06,0.06-0.1,0.09c-9.51,3.02-19.43,9.33-27.83,21.47
			c-7.69,3.25-15.55,8.59-22.06,17.27c-9.86,4.4-21.77,13-27.33,29.61c-7.68,4.58-25.16,17.61-26.16,41.78
			c-6.95,6.17-17.65,18.56-18.2,36.81c-0.37,0.38-0.66,0.86-0.77,1.39c-3.49,15.41-5.41,31.3-5.71,47.23
			c-0.01,0.25,0.04,0.51,0.09,0.74v1.7c0,2.45,0.04,4.89,0.11,7.25c0.22,7.31,0.8,14.73,1.73,22.04c0.1,0.83,0.56,1.55,1.2,2.01
			c-1.28,9.57-0.08,21.04,7.4,32.83c-0.42,0.72-0.52,1.57-0.27,2.37c4.04,12.61,11.73,29.64,17.58,40.92c0.52,1,1.54,1.58,2.61,1.58
			c0.21,0,0.43-0.03,0.65-0.08c3.08,11.29,10.21,24.03,25.99,32.81c2.38,6.75,7.71,17.83,18.78,25.53
			c-45.6,2.58-99.11,13.73-130.65,24.31L0,415.7l36.87,12.93L25.8,460.21l5.79-2.09c29.38-10.61,86.95-21.97,125.81-21.97
			c29.91,0,59.43,3.68,85.35,10.61l10.56,2.83l-23.7-23.69c16.96-5.03,35.68-7.83,55.35-7.83c19.67,0,38.39,2.8,55.34,7.83
			l-23.7,23.69l10.56-2.83c25.92-6.93,55.43-10.61,85.35-10.61c38.86,0,96.42,11.36,125.81,21.97l5.79,2.09l-11.07-31.58
			L569.94,415.7z M442.07,358.9c-0.54,1.88-1.41,4.5-2.78,7.45c-1.56,3.38-3.77,7.2-6.85,10.85c-3.29,3.9-7.07,7.05-11.33,9.46
			c-6.29-3.03-12.83-5.83-19.57-8.4h-0.01c-1.46-0.57-2.95-1.13-4.43-1.66c0.67-0.93,1.4-1.86,2.18-2.78
			c0.22-0.26,0.45-0.52,0.67-0.78c5.27-5.96,11.67-10.24,19.14-12.83c0.46-0.17,0.94-0.32,1.41-0.46c1.9-0.6,3.87-1.09,5.91-1.47
			c1.47-0.27,2.98-0.5,4.52-0.66c3.65-0.4,7.5-0.47,11.53-0.24C442.37,357.8,442.23,358.32,442.07,358.9z M375.8,354.19
			c0-0.11-0.01-0.22-0.04-0.33c-0.05-0.26-0.13-0.53-0.21-0.74c-0.04-0.13-0.08-0.24-0.14-0.36c-0.18-0.36-0.38-0.67-0.6-0.9
			l-0.14-0.23l-0.23-0.15l-0.12-0.13l-0.16-0.08c-0.29-0.22-0.61-0.38-0.93-0.52l-0.29-0.09c-0.36-0.11-0.73-0.17-1.07-0.18
			c6.23-5.08,10.29-11.02,12.9-16.87c0.55-1.2,1.02-2.39,1.45-3.58c3.91-2.66,8.36-4.83,13.34-6.53c0.9-0.31,1.83-0.6,2.77-0.87
			c1.14-0.34,2.29-0.65,3.48-0.94c0.39-0.1,0.8-0.19,1.2-0.28c0.12,2.6,0.09,8.16-1.62,14.67c-0.25,0.99-0.55,1.99-0.89,3.02
			c-0.43,1.29-0.93,2.62-1.51,3.95c-0.04,0.06-0.06,0.14-0.09,0.2c-0.96,2.16-2.07,4.19-3.31,6.09c-3.39,5.18-7.83,9.42-13.32,12.74
			c-2.09,1.26-4.32,2.39-6.7,3.38h-0.01c-1.3,0.54-2.64,1.05-4.03,1.5c-1.36,0.64-2.54,1.1-3.55,1.41
			c2.67-6.31,3.55-11.53,3.76-13.02v-0.03c0.06-0.3,0.08-0.61,0.07-0.93L375.8,354.19z M251.24,356.96
			c-0.05,0.32-0.04,0.68,0.01,1.08c0.02,0.13,0.05,0.25,0.08,0.38c0.06,0.21,0.14,0.47,0.25,0.72c0.01,0.04,0.03,0.06,0.04,0.09
			c-6.45,0.61-12.84,1.41-19.17,2.37c-2.57-1.66-4.94-3.62-7.09-5.86c-1.1-1.13-2.14-2.34-3.13-3.61c-0.06-0.09-0.14-0.17-0.2-0.26
			v-0.01c-6.12-8.05-8.3-16.55-9-19.96c0.57-0.01,1.14-0.02,1.7-0.01c1.91,0.01,3.77,0.08,5.58,0.24
			c7.66,0.62,14.48,2.49,20.44,5.61c4.09,2.14,7.79,4.87,11.05,8.18c1.06,1.06,2.08,2.2,3.06,3.4c0.66,0.81,1.27,1.63,1.85,2.44
			c-1.13,0.68-2.26,1.41-3.41,2.17c-0.08,0.06-0.18,0.1-0.26,0.16c-0.32,0.21-0.63,0.48-0.9,0.82l-0.18,0.25
			c-0.21,0.28-0.36,0.6-0.49,0.95l-0.09,0.15l-0.03,0.17l-0.1,0.25L251.24,356.96z M195.17,355.48c0.97,0.01,1.94,0.04,2.88,0.09
			c1.36,0.06,2.7,0.17,4.01,0.31c0.4,0.05,0.79,0.09,1.18,0.14c7.32,0.92,13.84,2.98,19.5,6.19h0.01c0.46,0.25,0.9,0.52,1.35,0.79
			c-6.47,1.15-12.85,2.47-19.14,3.99c-1.91,0.46-3.8,0.93-5.68,1.43c-0.13-0.25-0.25-0.51-0.35-0.76v-0.01
			C196.55,362.37,195.55,357.77,195.17,355.48z M190.13,355.32v0.03c0.21,1.49,1.07,6.7,3.76,13.02c-1.01-0.31-2.18-0.77-3.55-1.41
			c-1.38-0.46-2.73-0.96-4.03-1.5c-2.38-0.98-4.62-2.1-6.7-3.37c-5.49-3.31-9.94-7.56-13.34-12.74c-1.25-1.9-2.35-3.94-3.31-6.09
			c-0.03-0.07-0.06-0.14-0.09-0.21c-0.58-1.33-1.08-2.65-1.51-3.94c-0.35-1.03-0.65-2.04-0.9-3.03c-1.7-6.51-1.72-12.06-1.6-14.66
			c0.4,0.09,0.81,0.18,1.2,0.28c1.19,0.29,2.35,0.6,3.48,0.94c0.95,0.27,1.86,0.56,2.77,0.88c4.97,1.69,9.42,3.87,13.33,6.52
			c0.42,1.18,0.89,2.37,1.44,3.58c2.61,5.86,6.67,11.8,12.91,16.88c-0.35,0.01-0.71,0.07-1.08,0.18l-0.28,0.09
			c-0.33,0.14-0.64,0.3-0.93,0.52l-0.16,0.08l-0.12,0.13l-0.23,0.15l-0.15,0.23c-0.22,0.23-0.42,0.54-0.59,0.9
			c-0.05,0.12-0.1,0.23-0.15,0.36c-0.07,0.21-0.14,0.47-0.2,0.74c-0.03,0.11-0.04,0.22-0.04,0.33l-0.01,0.2
			C190.04,354.71,190.07,355.02,190.13,355.32z M136.77,334.88c0.63,0.05,1.25,0.12,1.87,0.19c0.37,0.04,0.75,0.08,1.11,0.13
			c3.7,0.46,7.18,1.19,10.46,2.16c2.15,0.64,4.21,1.38,6.17,2.24c0.15,0.47,0.3,0.95,0.46,1.44c1.5,4.42,3.75,9.08,7.08,13.5
			c4.42,5.87,10.76,11.32,19.82,15.2c0.04,0.07,0.08,0.14,0.12,0.21c0.07,0.12,0.14,0.25,0.21,0.37c0.04,0.08,0.08,0.16,0.11,0.25
			c0.08,0.18,0.14,0.35,0.19,0.53c0.01,0.05,0.03,0.09,0.04,0.14c0.05,0.19,0.08,0.39,0.11,0.58c0.01,0.05,0.01,0.11,0.02,0.16
			c0.02,0.24,0.02,0.48,0.01,0.72c-4.11,1.28-7.48,2.41-10.09,3.33c-0.01,0.01-0.02,0.02-0.03,0.03c0,0-0.01-0.01-0.01-0.01
			c0,0-0.01,0-0.01,0l-0.16-0.16c-0.01-0.02-0.03-0.03-0.04-0.04c-5.05-7.66-13.3-16.07-26.37-20.48c-0.04-0.01-0.08-0.03-0.12-0.04
			c-0.08-0.03-0.16-0.05-0.24-0.07c-0.8-0.26-1.62-0.52-2.46-0.75c0,0,0,0,0,0c-0.8-0.22-1.61-0.43-2.43-0.62
			c-2.24-4.08-3.62-8.08-4.48-11.45v-0.01C137.25,339.15,136.91,336.46,136.77,334.88z M149.24,200.7l-0.74-0.19
			c-0.16-0.04-0.31-0.07-0.46-0.12c3.82-8.69,6.05-19.89,3.02-33.25c8.2-7.58,16.05-19.38,17.04-37.09
			c6.6-5.57,12.76-13.43,16.58-24.5c9.22-3.78,18.96-10.67,26.42-23.06c12.06-0.56,26.66-5.17,39.69-20.05
			c7.81,2.93,15.92,5.51,24.07,7.53c3.67,2.45,7.4,3.67,11.23,3.67c4.3,0,8.39-2.12,12.23-5.63c5.69-1.64,11.31-3.53,16.78-5.58
			c13.04,14.88,27.63,19.48,39.69,20.05c7.47,12.39,17.19,19.28,26.42,23.06c3.82,11.07,9.98,18.93,16.58,24.5
			c0.98,17.71,8.83,29.51,17.04,37.09c-3.03,13.36-0.81,24.56,3.01,33.25c-0.16,0.04-0.31,0.08-0.46,0.12l-0.73,0.19
			c-1.22,0.31-2.1,1.36-2.2,2.6c-0.04,0.36,0.01,0.72,0.11,1.06c-0.03,0.21-0.05,0.41-0.05,0.64c0,10.79-1.22,21.51-3.61,31.96
			c-0.02,0.06-0.05,0.11-0.06,0.17c-2.43,9.25-6.83,22.49-11.19,31.22c-0.47,0.96-0.39,2.09,0.21,2.98c0.42,0.6,0.83,1.2,1.25,1.8
			c-13.96,9.17-20.37,20.62-23.05,30.96c-15.25,5.34-24.35,14.03-29.75,22.93c-8.38,0.33-15.44,1.99-21.39,4.48
			c-6.61-18.99-17.09-55.93-23.1-112.17c0,0-5.53-49.76-4.15-61.43h-0.04c0.01-1.72-0.06-9-2.09-9h-1.12
			c18.07-6,18.58-22.48,18.59-22.68l0.05-2.54h-30.09c0.23-0.09,16.5-6.45-0.01-37.73c-16.51,31.28-0.24,37.65-0.01,37.73h-30.09
			l0.05,2.54c0,0.2,0.53,16.67,18.59,22.68h-1.11c-2.04,0-2.12,9-2.12,9c0.01,0.12,0.03,0.24,0.03,0.36v0.01h0.01
			c1.23,12.29-4.2,61.06-4.2,61.06c-6.18,57.88-17.09,95.32-23.65,113.78c-6.62-3.37-14.8-5.71-24.88-6.1
			c-5.41-8.91-14.52-17.58-29.75-22.93c-2.68-10.33-9.09-21.79-23.04-30.96c0.42-0.6,0.83-1.2,1.25-1.8c0.6-0.88,0.68-2.02,0.2-2.98
			c-4.36-8.72-8.76-21.97-11.19-31.22c-0.01-0.06-0.04-0.11-0.05-0.17c-2.4-10.45-3.62-21.18-3.62-31.96c0-0.23-0.02-0.43-0.04-0.64
			c0.1-0.34,0.14-0.69,0.12-1.06C151.34,202.06,150.45,201.01,149.24,200.7z M116.21,190.76c-4.94-1.87-10.23-4.09-16.07-6.8
			c3.93-7.35,6.82-16.75,6.09-28.13c5.8-8.19,12.82-13.11,15.86-15c2.32,5.81,3.86,11.46,4.65,16.93
			C121.03,165.26,115.39,176.45,116.21,190.76z M122.72,134.74c2.54-6.14,4.14-13.41,3.93-21.87c0.02-0.03,0.05-0.05,0.07-0.08
			c8.02-8.38,17.35-12.3,21.09-13.64c1.06,6.37,1.36,12.38,0.91,18.04c-7.31,4.53-15.83,12.02-20.58,23.8
			c-0.37-1.01-0.76-2.03-1.18-3.06c-0.05-0.11-0.06-0.22-0.13-0.33c-0.16-0.41-0.4-0.81-0.71-1.18l-0.21-0.26
			c-0.28-0.28-0.59-0.54-0.95-0.75l-0.16-0.14l-0.17-0.07l-0.26-0.16l-0.3-0.05c-0.34-0.12-0.74-0.21-1.2-0.23
			C122.82,134.74,122.77,134.75,122.72,134.74z M125.36,169.71c4.53-9.62,11.46-15.77,14.32-18.04c8.85,16.54,10.08,32.29,3.67,46.8
			c-0.09,0.22-0.2,0.43-0.29,0.65c-6.86-1.78-13.79-3.7-21.57-6.43C120.63,184.75,121.91,177.07,125.36,169.71z M143.82,148.53
			c-0.05-0.08-0.09-0.19-0.15-0.27c-0.18-0.35-0.44-0.7-0.76-1.02l-0.22-0.21c-0.3-0.24-0.61-0.42-0.95-0.59l-0.15-0.1l-0.17-0.05
			l-0.25-0.12l-0.28-0.03c-0.33-0.08-0.69-0.11-1.12-0.09c-0.14,0.01-0.26,0.03-0.39,0.05c-0.23,0.05-0.51,0.1-0.77,0.19
			c-0.13,0.03-0.23,0.07-0.34,0.13l-0.18,0.08c-0.29,0.13-0.56,0.32-0.81,0.54l-0.02,0.01c-0.86,0.64-3.1,2.4-5.84,5.22
			c-0.19-0.88-0.39-1.77-0.62-2.67c1.85-8.2,5.79-15.32,11.84-21.27c7.59-7.47,16.23-10.82,19.69-11.94
			c2.56,18.57-1.76,33.78-12.8,45.17c-0.02,0.01-0.03,0.02-0.04,0.04C148.16,157.42,146.3,153.07,143.82,148.53z M218.46,63.16
			l-0.04-0.19l-0.08-0.15l-0.09-0.28l-0.18-0.22c-0.17-0.3-0.42-0.61-0.73-0.9c-0.11-0.1-0.21-0.18-0.32-0.26
			c-0.18-0.15-0.43-0.31-0.68-0.45c-0.11-0.06-0.22-0.12-0.34-0.14l-0.19-0.08c-0.32-0.13-0.65-0.21-0.97-0.23l-0.03-0.01
			c-1.6-0.27-7.26-1.07-14.65-0.36c0.1-0.09,0.2-0.18,0.29-0.27c4.72-2.08,9.49-4.99,14.09-9.03c1.93-0.77,3.9-1.39,5.93-1.88
			c7.56,4.08,16.06,8.11,25.07,11.73c-8.98,9.71-19.53,15.3-31.5,16.66c1.6-3.29,3.06-6.9,4.32-10.86c0.04-0.11,0.09-0.21,0.12-0.31
			c0.13-0.39,0.2-0.84,0.21-1.29v-0.32C218.66,63.91,218.59,63.53,218.46,63.16z M213.06,65.35c-5.27,15.96-14.16,27.2-26.48,33.54
			c1.02-4.39,1.7-9.21,1.94-14.5c0-0.11,0.02-0.22,0.02-0.33c0.03-0.42-0.02-0.87-0.13-1.33l-0.09-0.31
			c-0.13-0.36-0.3-0.71-0.52-1.04l-0.08-0.19l-0.13-0.12l-0.16-0.25l-0.24-0.18c-0.25-0.25-0.57-0.47-0.96-0.69
			c-0.13-0.06-0.25-0.11-0.37-0.16c-0.23-0.09-0.52-0.19-0.79-0.25c-0.12-0.03-0.24-0.05-0.35-0.06l-0.22-0.03
			c-0.35-0.03-0.68,0-1.02,0.05l-0.01-0.01c-1.79,0.18-8.44,1.01-16.31,4.28c5.66-7.79,13.05-13.25,22.15-16.29
			C199.77,64,209.32,64.81,213.06,65.35z M183.09,84.95c-0.86,15.85-5.9,28.54-14.98,37.84c-0.13-2.54-0.37-5.17-0.77-7.92
			c-0.02-0.1-0.03-0.21-0.04-0.32c-0.04-0.39-0.16-0.81-0.35-1.21l-0.15-0.28c-0.17-0.31-0.4-0.61-0.67-0.87l-0.12-0.15l-0.15-0.1
			l-0.18-0.21l-0.25-0.1c-0.27-0.2-0.63-0.36-1.02-0.48c-0.14-0.05-0.26-0.06-0.39-0.09c-0.22-0.05-0.51-0.08-0.78-0.1
			c-0.11-0.01-0.24,0-0.34,0.01l-0.22,0.01c-0.32,0.04-0.64,0.12-0.93,0.23l-0.03-0.01c-1.01,0.3-3.71,1.17-7.22,2.85
			c0.14-4.63-0.17-9.62-1.02-15c2.1-2.09,4.43-4,7-5.71C169.76,87.14,179.3,85.42,183.09,84.95z M465.75,183.96
			c-5.85,2.71-11.14,4.93-16.07,6.8c0.82-14.31-4.82-25.5-10.52-33.01c0.78-5.47,2.33-11.12,4.64-16.93
			c3.05,1.89,10.05,6.81,15.86,15C458.92,167.2,461.81,176.61,465.75,183.96z M444.38,192.69c-7.78,2.73-14.7,4.65-21.56,6.43
			c-0.1-0.22-0.2-0.43-0.3-0.65c-6.39-14.51-5.17-30.26,3.68-46.8c2.85,2.26,9.78,8.41,14.32,18.04
			C443.97,177.07,445.25,184.75,444.38,192.69z M442.99,134.75c-0.45,0.02-0.86,0.11-1.2,0.23l-0.3,0.05l-0.25,0.16l-0.17,0.07
			l-0.17,0.14c-0.35,0.21-0.65,0.46-0.95,0.75l-0.21,0.26c-0.31,0.37-0.54,0.77-0.71,1.18c-0.06,0.11-0.08,0.22-0.13,0.33
			c-0.42,1.03-0.8,2.05-1.17,3.06c-4.76-11.78-13.26-19.27-20.59-23.8c-0.44-5.66-0.14-11.67,0.92-18.04
			c3.75,1.35,13.06,5.27,21.1,13.64c0.03,0.03,0.04,0.06,0.07,0.08c-0.22,8.46,1.38,15.73,3.93,21.87
			C443.1,134.75,443.05,134.74,442.99,134.75z M423.22,128.32c6.05,5.95,9.99,13.06,11.83,21.27c-0.22,0.9-0.43,1.79-0.61,2.67
			c-2.74-2.82-4.99-4.58-5.85-5.22l-0.01-0.01c-0.25-0.22-0.52-0.4-0.81-0.54l-0.19-0.08c-0.11-0.05-0.21-0.1-0.33-0.13
			c-0.25-0.09-0.54-0.14-0.76-0.19c-0.13-0.02-0.25-0.04-0.39-0.05c-0.43-0.02-0.8,0.01-1.12,0.09l-0.28,0.03l-0.25,0.12l-0.16,0.05
			l-0.16,0.1c-0.34,0.17-0.65,0.35-0.94,0.59l-0.23,0.21c-0.32,0.32-0.58,0.66-0.76,1.02c-0.06,0.08-0.1,0.19-0.15,0.27
			c-2.48,4.54-4.35,8.9-5.69,13.06c-0.02-0.02-0.03-0.03-0.04-0.04c-11.03-11.4-15.35-26.6-12.81-45.17
			C406.98,117.51,415.62,120.85,423.22,128.32z M411.38,114.03c-3.5-1.67-6.2-2.55-7.22-2.85l-0.03,0.01
			c-0.29-0.11-0.6-0.19-0.93-0.23l-0.21-0.01c-0.12-0.01-0.24-0.02-0.35-0.01c-0.28,0.02-0.56,0.04-0.79,0.1
			c-0.12,0.03-0.25,0.05-0.38,0.09c-0.39,0.12-0.75,0.28-1.02,0.48l-0.25,0.1l-0.19,0.21l-0.15,0.1l-0.12,0.15
			c-0.26,0.26-0.48,0.56-0.66,0.87l-0.15,0.28c-0.2,0.4-0.31,0.82-0.36,1.21c-0.02,0.11-0.02,0.22-0.04,0.32
			c-0.4,2.75-0.66,5.38-0.77,7.92c-9.09-9.3-14.12-21.99-14.98-37.84c3.78,0.47,13.33,2.19,22.61,8.37c2.57,1.71,4.9,3.62,7.01,5.71
			C411.57,104.41,411.26,109.4,411.38,114.03z M382.41,79.49L382.41,79.49c-0.35-0.04-0.69-0.06-1.03-0.04l-0.22,0.03
			c-0.12,0.01-0.24,0.04-0.36,0.06c-0.27,0.06-0.55,0.16-0.78,0.25c-0.14,0.05-0.25,0.1-0.37,0.16c-0.39,0.22-0.71,0.45-0.96,0.69
			l-0.24,0.18l-0.16,0.25l-0.13,0.12l-0.08,0.19c-0.23,0.33-0.4,0.67-0.52,1.04l-0.09,0.31c-0.12,0.46-0.16,0.91-0.14,1.33
			c0.01,0.11,0.02,0.22,0.03,0.33c0.24,5.29,0.91,10.11,1.93,14.5c-12.31-6.34-21.2-17.58-26.48-33.54
			c3.75-0.54,13.3-1.35,23.75,2.13c9.1,3.04,16.49,8.5,22.15,16.29C390.84,80.5,384.2,79.67,382.41,79.49z M351.06,60.24l-0.02,0.01
			c-0.34,0.02-0.66,0.1-0.98,0.23l-0.19,0.08c-0.12,0.03-0.23,0.08-0.34,0.14c-0.25,0.14-0.49,0.3-0.68,0.45
			c-0.11,0.08-0.21,0.16-0.31,0.26c-0.32,0.29-0.56,0.6-0.73,0.9l-0.19,0.22l-0.09,0.28l-0.07,0.15l-0.05,0.19
			c-0.12,0.37-0.2,0.75-0.23,1.14v0.32c0.01,0.46,0.07,0.9,0.21,1.29c0.02,0.1,0.07,0.2,0.11,0.31c1.27,3.97,2.73,7.57,4.33,10.86
			c-11.97-1.36-22.52-6.94-31.5-16.66c9.01-3.62,17.51-7.65,25.07-11.73c2.02,0.49,4,1.11,5.92,1.88c4.61,4.04,9.38,6.95,14.09,9.03
			c0.1,0.09,0.19,0.18,0.29,0.27C358.33,59.16,352.67,59.96,351.06,60.24z M411.91,320.24v-0.02c0-0.31-0.04-0.62-0.12-0.92
			l-0.06-0.2c-0.02-0.1-0.06-0.21-0.1-0.31c-0.11-0.25-0.24-0.49-0.35-0.68c-0.06-0.11-0.13-0.21-0.22-0.31
			c-0.25-0.33-0.51-0.58-0.77-0.76l-0.18-0.19l-0.25-0.11l-0.15-0.09l-0.18-0.05c-0.33-0.16-0.67-0.25-1.03-0.3l-0.18-0.03
			c3.73-4.76,6.14-9.72,7.65-14.56v-0.01c1.42-1.74,2.97-3.41,4.64-5c6.07,6.19,12.44,11.69,19.11,16.51
			c-0.45,1.78-1.01,3.52-1.66,5.21c-3.8,3.67-6.79,7.57-9.14,11.51c-6.83,0.57-12.78,1.91-17.95,3.8
			C412.26,327,412.02,321.75,411.91,320.24z M413.26,288.73c-0.09,2.04-0.31,4.18-0.72,6.4c-0.15,0.78-0.31,1.56-0.49,2.33
			c-1.78,7.38-5.37,13.83-10.72,19.31c-0.48,0.49-0.97,0.98-1.49,1.46c-4.36,1.35-8.23,3-11.67,4.88c1.77-8.52,1.12-15.44,0.9-17.2
			l-0.01-0.01c-0.02-0.32-0.07-0.62-0.15-0.92l-0.08-0.19c-0.03-0.11-0.07-0.21-0.13-0.31c-0.11-0.24-0.26-0.47-0.38-0.65
			c-0.07-0.11-0.15-0.21-0.25-0.3c-0.25-0.31-0.52-0.56-0.8-0.73l-0.19-0.18l-0.25-0.09l-0.15-0.09l-0.19-0.04
			c-0.33-0.14-0.67-0.22-1.03-0.25l-0.3-0.02c-0.44-0.02-0.85,0.04-1.22,0.15c-0.09,0.02-0.16,0.05-0.25,0.08
			c3.38-10.17,10.2-18.61,20.32-25.19C406.98,281.2,410.07,285.05,413.26,288.73L413.26,288.73z M182.2,302.33
			c-0.09-0.04-0.17-0.06-0.26-0.08c-0.36-0.11-0.78-0.16-1.21-0.15l-0.3,0.02c-0.36,0.04-0.7,0.12-1.04,0.25l-0.18,0.04l-0.14,0.09
			l-0.26,0.09l-0.2,0.18c-0.27,0.16-0.54,0.42-0.8,0.73c-0.09,0.09-0.16,0.19-0.24,0.3c-0.13,0.18-0.27,0.42-0.38,0.65
			c-0.06,0.1-0.1,0.2-0.14,0.31l-0.07,0.19c-0.08,0.3-0.15,0.6-0.16,0.92l-0.01,0.01c-0.22,1.76-0.87,8.69,0.9,17.21
			c-3.45-1.87-7.32-3.53-11.68-4.88c-0.51-0.47-1-0.95-1.47-1.44c-5.38-5.49-8.97-11.96-10.74-19.34c-0.18-0.76-0.35-1.53-0.49-2.31
			c-0.41-2.21-0.63-4.36-0.71-6.39c3.16-3.67,6.26-7.52,9.26-11.59C172,283.73,178.81,292.17,182.2,302.33z M157.56,316.26
			l-0.19,0.03c-0.35,0.05-0.69,0.14-1.03,0.3l-0.18,0.05l-0.14,0.09l-0.25,0.11l-0.18,0.19c-0.26,0.18-0.52,0.44-0.77,0.76
			c-0.08,0.1-0.15,0.2-0.21,0.31c-0.12,0.19-0.25,0.44-0.35,0.68c-0.06,0.1-0.08,0.21-0.11,0.31l-0.06,0.2
			c-0.07,0.3-0.12,0.61-0.11,0.92l-0.01,0.02c-0.11,1.51-0.34,6.77,0.95,13.48c-5.17-1.88-11.12-3.22-17.95-3.8
			c-2.36-3.93-5.34-7.82-9.13-11.49c-0.66-1.69-1.21-3.43-1.67-5.22c6.65-4.82,13.03-10.33,19.11-16.5
			c1.67,1.59,3.23,3.27,4.65,5.01C151.43,306.54,153.84,311.51,157.56,316.26z M186.5,333.59L186.5,333.59
			c-0.69-1.37-1.32-2.78-1.88-4.24c-0.31-0.82-0.59-1.63-0.85-2.44c-0.63-1.97-1.09-3.89-1.44-5.72c-1.16-6.21-0.92-11.4-0.67-13.87
			c0.68,0.19,1.36,0.39,2.03,0.6c1.83,0.56,3.59,1.19,5.29,1.87c9.8,3.92,17.4,9.67,22.71,17.18c-0.34,0.01-0.69,0.07-1.05,0.2
			l-0.27,0.11c-0.34,0.14-0.65,0.31-0.93,0.54l-0.16,0.09l-0.11,0.13l-0.23,0.16l-0.13,0.23c-0.22,0.24-0.41,0.55-0.57,0.92
			c-0.05,0.12-0.09,0.25-0.13,0.36c-0.07,0.21-0.15,0.47-0.18,0.75c-0.03,0.1-0.04,0.23-0.04,0.34l-0.02,0.2
			c0,0.31,0.05,0.62,0.12,0.92v0.02c0.37,2.22,2.48,12.67,9.86,22.58c-4.21-1.6-8.95-2.79-14.28-3.44c-0.81-0.45-1.6-0.93-2.37-1.43
			C194.78,345.51,189.88,340.16,186.5,333.59z M259.38,355.96c1.43-0.85,2.86-1.65,4.28-2.37c12.77-6.47,25.42-7.65,37.68-3.49
			c0.84,0.28,1.65,0.59,2.44,0.91c-1.25,1.96-2.32,3.88-3.21,5.69c-2.6,0.29-5.16,0.64-7.33,1.04c-2.75-0.06-5.5-0.1-8.26-0.1
			c-6.34,0-12.67,0.17-18.97,0.52c-1.76,0.09-3.53,0.2-5.29,0.33c-1.01,0.06-2.01,0.14-3.02,0.22c-0.4-0.39-0.75-0.75-1.04-1.05
			C257.56,357.06,258.47,356.49,259.38,355.96z M261,349.38c-0.88-1.27-1.86-2.55-2.92-3.82l0.13-0.01
			c8.99-19.43,26.98-183.62,26.98-183.62s16.16,151.12,25.4,180.55c-1.44,1.45-2.73,2.94-3.89,4.43h-0.01
			C295.53,342.16,279.69,339.78,261,349.38z M306.4,356.13c0.56-1,1.19-2.02,1.87-3.06c0.83-1.24,1.74-2.49,2.75-3.75
			c0.06-0.08,0.13-0.16,0.2-0.24c0.98-1.2,2.01-2.33,3.08-3.39c4.1-4.1,8.87-7.29,14.26-9.57c5.1-2.16,10.78-3.49,17-3.99
			c1.81-0.15,3.67-0.23,5.58-0.24c0.55-0.01,1.13,0,1.69,0.01c-0.68,3.4-2.86,11.89-8.98,19.94c-0.07,0.1-0.15,0.19-0.22,0.29
			c-0.98,1.27-2.02,2.47-3.12,3.6c-1.95,2.03-4.08,3.82-6.37,5.38c-3.05-0.44-6.11-0.84-9.2-1.18c-6.5-0.76-13.07-1.32-19.68-1.69
			C305.62,357.56,305.99,356.85,306.4,356.13z M343.11,362.2C343.12,362.2,343.12,362.2,343.11,362.2
			c5.68-3.2,12.19-5.27,19.51-6.19l1.17-0.14c1.31-0.14,2.66-0.25,4.02-0.31c0.96-0.05,1.92-0.08,2.89-0.09
			c-0.38,2.27-1.36,6.8-3.68,12.01h-0.01c-0.06-0.02-0.12-0.04-0.18-0.04c-1.95-0.48-3.9-0.95-5.87-1.39
			c-6.01-1.37-12.11-2.57-18.28-3.6C342.83,362.36,342.97,362.28,343.11,362.2z M364.67,349.64c-0.76,0.5-1.56,0.97-2.38,1.43
			c-5.33,0.65-10.07,1.85-14.27,3.44c7.38-9.91,9.49-20.36,9.86-22.58v-0.02c0.07-0.3,0.12-0.61,0.11-0.92l-0.02-0.2
			c0-0.11-0.01-0.24-0.03-0.34c-0.04-0.27-0.11-0.54-0.18-0.75c-0.05-0.12-0.07-0.25-0.14-0.36c-0.16-0.36-0.35-0.68-0.56-0.92
			l-0.14-0.23l-0.22-0.16l-0.11-0.13l-0.17-0.09c-0.28-0.23-0.59-0.4-0.92-0.54l-0.27-0.11c-0.35-0.13-0.71-0.19-1.05-0.2
			c5.31-7.51,12.92-13.25,22.71-17.17v-0.01c1.69-0.67,3.46-1.29,5.29-1.87h0.01c0.67-0.21,1.34-0.41,2.03-0.6
			c0.24,2.47,0.49,7.65-0.68,13.87c-0.34,1.83-0.81,3.75-1.44,5.71c-0.25,0.81-0.54,1.63-0.86,2.45c-0.56,1.46-1.19,2.87-1.88,4.23
			v0.01C376,340.16,371.09,345.51,364.67,349.64z M382.14,369.74c9.06-3.88,15.39-9.33,19.81-15.2c3.33-4.42,5.58-9.08,7.08-13.5
			c0.16-0.48,0.32-0.95,0.46-1.43c4.96-2.17,10.52-3.64,16.63-4.4v-0.01c0.36-0.04,0.74-0.09,1.11-0.13
			c0.62-0.07,1.25-0.14,1.87-0.19c-0.14,1.58-0.49,4.26-1.32,7.53c-0.87,3.37-2.26,7.39-4.49,11.47c-0.83,0.19-1.64,0.4-2.44,0.63
			c-14.16,3.92-23.09,12.47-28.54,20.41c-3.58-1.24-7.21-2.4-10.89-3.5C381.54,370.85,381.78,370.28,382.14,369.74z M465.46,332.45
			c-3.42,9.63-9.42,17.37-17.93,23.18c-0.02-0.08-0.05-0.16-0.06-0.24c-0.04-0.12-0.06-0.25-0.12-0.36
			c-0.14-0.38-0.32-0.7-0.52-0.94l-0.13-0.25l-0.22-0.16l-0.11-0.14l-0.15-0.1c-0.28-0.24-0.58-0.43-0.9-0.57l-0.28-0.12
			c-0.4-0.15-0.81-0.25-1.18-0.26c-0.11-0.01-0.21,0-0.31-0.01c-5.18-0.36-9.92-0.21-14.25,0.35c3.16-6.94,4.27-13.29,4.65-16.56
			c0.11-0.86,0.15-1.5,0.18-1.89l-0.01-0.02c0.05-0.31,0.05-0.62,0.01-0.93l-0.04-0.2c-0.01-0.11-0.03-0.23-0.06-0.34
			c-0.05-0.17-0.11-0.35-0.17-0.51c2.51-4.11,5.58-7.82,9.22-11.09v-0.01c1.22-1.11,2.51-2.17,3.87-3.17
			c6.36,4.01,12.95,7.43,19.78,10.25C466.37,329.71,465.95,331.07,465.46,332.45z M473.94,318.09c-0.96,1.99-1.91,3.91-2.82,5.71
			c-1.07-0.42-2.14-0.86-3.2-1.31c-5.34-2.26-10.53-4.92-15.58-7.97c-1.76-1.05-3.48-2.16-5.19-3.31c-0.34-0.21-0.67-0.44-1-0.67
			c-1.75-1.19-3.48-2.43-5.19-3.73c-5.51-4.16-10.82-8.83-15.92-13.98c-1.35-1.36-2.67-2.76-3.97-4.18
			c-0.97-1.04-1.92-2.09-2.86-3.17c-1.86-2.13-3.68-4.32-5.49-6.59c-1.22-1.54-2.44-3.13-3.63-4.74c-0.99-1.33-1.97-2.68-2.94-4.06
			c-0.16-0.23-0.32-0.46-0.48-0.69c3.47-7.31,6.67-16.49,8.98-24.15c8.47,12.09,23.1,21.97,31.84,27.18
			c13.32,7.93,28.41,14.32,39.61,16.83C482.96,298.27,478.3,309.01,473.94,318.09z M426.29,249.91c4.63,1.17,9.28,2.15,13.93,2.95
			c-0.67,2.28-1.55,4.5-2.62,6.65C433.31,256.35,429.5,253.13,426.29,249.91z M441.99,262.6c1.02-3.06,2.36-6,4.04-8.83
			c7.24,1.02,14.47,1.62,21.7,1.76c0.02,0.7,0.02,1.41,0,2.14c-0.16,6.14-1.57,11.88-4.19,17.19c-4.72-2.23-9.49-4.75-14.05-7.47
			C446.85,265.82,444.37,264.22,441.99,262.6z M487.62,283.58c-5.37-1.17-11.75-3.34-18.43-6.18c-0.09-0.66-0.18-1.32-0.25-2
			c-0.01-0.14-0.02-0.28-0.03-0.43c2.92-6.78,3.84-13.44,3.72-19.42c7.53-0.08,14.99-0.66,22.25-1.72
			C496.17,264.4,493.73,274.35,487.62,283.58z M496.92,228.49c-0.19,6.4-0.66,12.89-1.42,19.3c-7.99,1.25-16.26,1.89-24.62,1.89
			c-17.93,0-36.05-2.87-53.84-8.5c-0.35-0.11-0.68-0.23-1.03-0.34c2.67-10.72,4.1-21.74,4.33-32.84c8.31,3.48,15.57,5.99,23.04,7.96
			c15.75,4.16,31.63,6.27,47.2,6.27c2.16,0,4.31-0.06,6.45-0.15C497.02,224.24,496.99,226.38,496.92,228.49z M497.04,216.23
			c-17.11,0.67-34.72-1.34-52.17-5.94c-6-1.58-11.86-3.52-18.32-6.08c17.15-4.53,35.25-10.34,65.83-27.33
			C495.07,189.78,496.64,202.99,497.04,216.23z M486.08,151.16c3.38,6.19,5.14,12.72,5.3,19.56c-7.77,4.36-14.73,7.99-21.06,11.06
			c-0.15-0.26-0.29-0.53-0.44-0.8c-7.29-14.09-7.01-29.89,0.79-46.94C473.68,136.13,480.98,141.84,486.08,151.16z M464.95,110.05
			c4.24,5.84,6.85,12.26,7.82,19.21c-0.25-0.2-0.53-0.36-0.83-0.48l-0.19-0.07c-0.11-0.04-0.22-0.08-0.34-0.11
			c-0.26-0.07-0.55-0.11-0.77-0.14c-0.13-0.01-0.27-0.02-0.4-0.02c-0.42,0.01-0.79,0.06-1.1,0.16l-0.28,0.04l-0.25,0.15l-0.16,0.04
			l-0.16,0.12c-0.32,0.18-0.63,0.41-0.88,0.65l-0.22,0.22c-0.3,0.34-0.55,0.7-0.71,1.06c-0.04,0.08-0.07,0.2-0.12,0.28
			c-2.83,6.02-4.65,11.68-5.7,16.97c-3.41-3.96-6.89-6.99-9.68-9.11c-7.5-12.51-8.68-27.29-3.49-43.99
			C450.74,96.71,458.7,101.44,464.95,110.05z M431.23,71.61c6.59,4.69,11.47,10.72,14.62,18.01c-0.21,0.05-0.41,0.12-0.59,0.2
			L445,89.89l-0.23,0.17l-0.16,0.07l-0.13,0.14c-0.31,0.22-0.57,0.47-0.81,0.75l-0.18,0.25c-0.26,0.36-0.44,0.76-0.56,1.14
			c-0.03,0.1-0.05,0.21-0.08,0.31c-1.47,4.59-2.46,8.93-3.02,13.04c-9.12-8.07-18.68-11.52-20.89-12.24h-0.01
			c-0.2-0.08-0.4-0.14-0.6-0.18c-5.31-8.26-8.14-18.42-8.42-30.39C413.51,63.51,422.55,65.45,431.23,71.61z M398.28,49.21
			c5.86,2.16,11.03,5.25,15.48,9.25c-1.94-0.44-3.36-0.66-4.03-0.74l-0.03-0.01c-0.31-0.05-0.64-0.08-0.95-0.07l-0.23,0.03
			c-0.11,0.01-0.22,0.03-0.35,0.04c-0.25,0.06-0.54,0.13-0.75,0.22c-0.14,0.05-0.25,0.09-0.37,0.16c-0.38,0.2-0.68,0.4-0.94,0.62
			l-0.23,0.16l-0.16,0.24l-0.13,0.12l-0.09,0.16c-0.21,0.31-0.39,0.64-0.53,0.97l-0.08,0.3c-0.14,0.42-0.19,0.86-0.17,1.25
			c0,0.11,0.01,0.21,0.02,0.32c0.13,9.92,1.9,18.16,4.68,25c-0.95-0.31-1.9-0.65-2.87-1.03c-7.25-12.81-17.16-19.6-26.62-23.11
			c-2.94-5-5.35-10.67-7.22-17C376.79,45.66,387.12,45.1,398.28,49.21z M374.06,28.72c7.38,2.49,13.91,6.89,19.54,13.16
			c-11.09-2.66-20.38-1.65-22.6-1.35L371,40.53c-0.36,0.03-0.72,0.09-1.06,0.21l-0.23,0.08c-0.12,0.04-0.24,0.1-0.35,0.15
			c-0.28,0.15-0.55,0.31-0.77,0.46c-0.11,0.09-0.23,0.17-0.34,0.28c-0.35,0.31-0.63,0.63-0.83,0.94l-0.21,0.24l-0.1,0.29l-0.08,0.18
			l-0.06,0.19c-0.14,0.4-0.24,0.81-0.27,1.22l-0.02,0.35c-0.01,0.48,0.05,0.96,0.18,1.39c0.03,0.12,0.08,0.22,0.12,0.34
			c0.9,3.17,1.92,6.12,3.04,8.9c-0.64-0.24-1.26-0.48-1.87-0.75c-4.94-2.1-9.5-5.04-13.69-8.79c-0.59-0.54-1.18-1.09-1.76-1.66
			C362.4,38.81,369.92,33.19,374.06,28.72z M321.22,27.06c1.68-4.58,2.95-8.46,3.71-10.9c0.44-1.37,0.76-2.47,0.98-3.23
			c0.1-0.36,0.2-0.7,0.28-1.05c14.45,2.53,32.96,8.23,42.77,14.16c-6.02,5.98-18.17,13.91-32.25,20.95
			c-10.34,5.18-21.09,9.62-31.64,13.13C311.56,50.94,317.06,38.42,321.22,27.06z M285.33,5.74c17.52,0,31.03,3,34.95,6.06
			c-3,10.57-18.71,56.12-34.21,56.12c-18.79,0-33.69-45.54-35.72-55.21C255.81,8.45,269.21,5.74,285.33,5.74z M244.45,11.15
			c-0.05,0.24-0.06,0.48-0.04,0.73c0.29,3.37,4.52,18.57,11.37,32.73c3.39,7.02,6.9,12.78,10.51,17.27
			c-30.14-9.21-58.92-25.37-69.4-35.81C207.83,19.45,229.57,13.12,244.45,11.15z M191.81,28.72c4.14,4.48,11.67,10.09,21.38,15.85
			c-5.18,5.05-10.96,8.79-17.33,11.19c1.11-2.77,2.13-5.73,3.04-8.9c0.03-0.12,0.08-0.22,0.11-0.34c0.13-0.43,0.19-0.91,0.18-1.39
			l-0.01-0.35c-0.05-0.41-0.14-0.82-0.28-1.22l-0.05-0.19l-0.08-0.18l-0.11-0.29l-0.2-0.24c-0.2-0.31-0.48-0.63-0.83-0.94
			c-0.11-0.11-0.23-0.19-0.35-0.28c-0.21-0.14-0.48-0.31-0.75-0.46c-0.12-0.05-0.25-0.12-0.36-0.15l-0.22-0.08
			c-0.34-0.12-0.7-0.18-1.06-0.21l-0.02-0.01c-2.21-0.3-11.51-1.3-22.59,1.35C177.91,35.61,184.43,31.21,191.81,28.72z
			 M167.59,49.21c11.16-4.11,21.49-3.56,25.54-3.11c-1.87,6.33-4.28,12-7.22,17c-9.47,3.5-19.37,10.3-26.62,23.11
			c-0.96,0.38-1.91,0.72-2.86,1.03c2.77-6.84,4.55-15.07,4.68-25c0-0.11,0.02-0.21,0.02-0.32c0.02-0.39-0.04-0.84-0.17-1.25
			l-0.09-0.3c-0.13-0.34-0.31-0.66-0.52-0.97l-0.09-0.16l-0.14-0.12l-0.15-0.24l-0.22-0.16c-0.25-0.22-0.56-0.42-0.95-0.62
			c-0.11-0.06-0.23-0.11-0.36-0.16c-0.21-0.09-0.49-0.16-0.75-0.22c-0.13-0.02-0.24-0.04-0.35-0.04l-0.22-0.03
			c-0.32-0.01-0.64,0.02-0.96,0.07l-0.02,0.01c-0.68,0.08-2.1,0.3-4.03,0.74C156.58,54.46,161.73,51.37,167.59,49.21z M134.64,71.61
			c8.68-6.16,17.72-8.1,21.33-8.67c-0.27,11.97-3.09,22.13-8.41,30.39c-0.21,0.05-0.41,0.1-0.6,0.18h-0.02
			c-2.2,0.73-11.77,4.17-20.89,12.24c-0.56-4.1-1.54-8.44-3.02-13.04c-0.02-0.1-0.04-0.21-0.08-0.31c-0.11-0.37-0.3-0.77-0.56-1.14
			l-0.19-0.25c-0.23-0.27-0.5-0.53-0.81-0.75l-0.13-0.14l-0.16-0.07l-0.23-0.17l-0.26-0.07c-0.18-0.08-0.38-0.15-0.6-0.2
			C123.17,82.32,128.04,76.3,134.64,71.61z M100.92,110.05c6.25-8.6,14.22-13.33,17.46-15.02c5.19,16.7,4.01,31.48-3.49,43.99
			c-2.77,2.12-6.26,5.15-9.68,9.11c-1.05-5.29-2.88-10.95-5.69-16.97c-0.04-0.08-0.08-0.2-0.13-0.28c-0.15-0.36-0.4-0.73-0.71-1.06
			l-0.22-0.22c-0.25-0.24-0.56-0.46-0.87-0.65l-0.16-0.12l-0.17-0.04l-0.24-0.15l-0.28-0.04c-0.31-0.1-0.68-0.15-1.11-0.16
			c-0.13,0-0.26,0.01-0.39,0.02c-0.23,0.03-0.52,0.06-0.77,0.14c-0.12,0.03-0.23,0.07-0.35,0.11l-0.18,0.07
			c-0.3,0.13-0.58,0.28-0.84,0.48C94.08,122.31,96.68,115.89,100.92,110.05z M79.78,151.16c5.1-9.32,12.41-15.04,15.4-17.12
			c7.81,17.05,8.08,32.85,0.79,46.94c-0.14,0.27-0.28,0.54-0.43,0.8c-6.33-3.07-13.3-6.7-21.06-11.06
			C74.65,163.88,76.4,157.35,79.78,151.16z M73.48,176.89c30.59,16.98,48.68,22.8,65.84,27.33c-6.46,2.56-12.33,4.49-18.33,6.08
			c-17.44,4.6-35.06,6.61-52.17,5.94C69.24,202.99,70.81,189.78,73.48,176.89z M68.95,228.48c-0.06-2.09-0.1-4.24-0.11-6.39
			c2.15,0.08,4.29,0.15,6.45,0.15c15.57,0,31.46-2.11,47.2-6.27c7.47-1.97,14.73-4.48,23.05-7.96c0.23,11.1,1.67,22.11,4.32,32.84
			c-0.34,0.11-0.67,0.23-1.01,0.34c-17.81,5.64-35.93,8.5-53.86,8.5c-8.36,0-16.63-0.64-24.62-1.89
			C69.62,241.38,69.15,234.9,68.95,228.48z M139.58,249.91c-3.21,3.21-7.01,6.43-11.3,9.6c-1.08-2.15-1.95-4.37-2.63-6.65
			C130.31,252.06,134.95,251.09,139.58,249.91z M98.17,257.66c-0.02-0.73-0.02-1.44-0.01-2.14c0.64,0,1.27-0.02,1.92-0.05
			c6.57-0.18,13.17-0.75,19.79-1.68c1.68,2.83,3.04,5.78,4.05,8.82c-2.37,1.61-4.88,3.2-7.51,4.77c-4.56,2.72-9.33,5.25-14.05,7.48
			c-0.09,0.04-0.19,0.09-0.28,0.14c0.02-0.2,0.04-0.41,0.05-0.61C99.65,269.21,98.33,263.62,98.17,257.66z M71.02,253.82
			c7.29,1.08,14.73,1.66,22.24,1.73c-0.12,5.98,0.8,12.67,3.73,19.45c-0.01,0.14-0.02,0.26-0.04,0.4c-0.07,0.68-0.15,1.36-0.25,2.01
			c-6.68,2.85-13.07,5-18.44,6.18C72.15,274.35,69.72,264.4,71.02,253.82z M94.75,323.8c-5.06-10-11.15-23.55-14.96-34.54
			c11.2-2.51,26.29-8.9,39.62-16.83c8.74-5.21,23.37-15.09,31.84-27.18c2.3,7.66,5.5,16.84,8.98,24.15
			c-0.16,0.24-0.33,0.46-0.48,0.69c-0.97,1.37-1.95,2.73-2.94,4.06c-1.2,1.62-2.41,3.2-3.64,4.75c-1.79,2.26-3.62,4.45-5.48,6.58
			c-0.94,1.07-1.88,2.13-2.86,3.17c-1.3,1.43-2.63,2.82-3.98,4.18c-5.08,5.16-10.4,9.82-15.91,13.98c-1.71,1.29-3.45,2.54-5.2,3.73
			c-2.04,1.4-4.09,2.72-6.19,3.97c-5.05,3.05-10.25,5.71-15.59,7.98C96.89,322.95,95.82,323.38,94.75,323.8z M122.02,352.49
			c-0.38,0.01-0.79,0.11-1.19,0.26l-0.27,0.12c-0.33,0.15-0.62,0.34-0.9,0.57l-0.16,0.1l-0.11,0.14l-0.22,0.16l-0.13,0.25
			c-0.2,0.24-0.37,0.55-0.52,0.94c-0.06,0.12-0.09,0.25-0.13,0.36c-0.02,0.07-0.04,0.15-0.05,0.24
			c-8.51-5.8-14.52-13.55-17.94-23.18c-0.16-0.44-0.3-0.86-0.44-1.3c-0.15-0.43-0.27-0.86-0.4-1.29c-0.08-0.27-0.16-0.55-0.24-0.83
			c-0.06-0.23-0.13-0.46-0.18-0.67c6.82-2.82,13.41-6.24,19.77-10.25c0,0,0,0,0.01,0c1.35,1.01,2.64,2.07,3.87,3.19
			c0.22,0.2,0.44,0.39,0.65,0.59c-0.22-0.21-0.44-0.42-0.66-0.62c0.45,0.4,0.89,0.81,1.32,1.23c0.04,0.04,0.07,0.07,0.11,0.12
			c-0.04-0.03-0.07-0.06-0.11-0.1c0.06,0.05,0.12,0.12,0.18,0.18c0.36,0.35,0.72,0.7,1.07,1.06h0.01c0.27,0.28,0.54,0.57,0.81,0.87
			c0.01,0,0.02,0.01,0.01,0.02c0.26,0.29,0.53,0.58,0.79,0.87c0.26,0.29,0.52,0.59,0.76,0.89v0.01c0.07,0.09,0.16,0.17,0.22,0.26
			c0.01,0.01,0.01,0.02,0.02,0.02c0,0.01,0.01,0.01,0.01,0.02l0.04,0.04c0.16,0.18,0.32,0.38,0.46,0.57v0.01
			c0.07,0.09,0.15,0.17,0.21,0.26c0.03,0.03,0.05,0.06,0.07,0.09c0.01,0.01,0.01,0.01,0.02,0.02c0.15,0.18,0.29,0.36,0.43,0.55
			c0.36,0.47,0.72,0.95,1.06,1.45c0.61,0.87,1.19,1.75,1.75,2.66v0.02c-0.06,0.16-0.12,0.34-0.16,0.5
			c-0.04,0.11-0.06,0.23-0.07,0.34l-0.04,0.2c-0.03,0.31-0.03,0.62,0.01,0.93v0.02c0.03,0.39,0.08,1.05,0.18,1.91
			c0.38,3.27,1.49,9.61,4.65,16.54c-4.34-0.55-9.08-0.69-14.25-0.34C122.22,352.49,122.12,352.48,122.02,352.49z M133.44,377.21
			c-3.08-3.66-5.29-7.48-6.86-10.85c-1.37-2.95-2.24-5.56-2.77-7.44c-0.17-0.58-0.3-1.1-0.41-1.54c4.03-0.24,7.88-0.16,11.52,0.23
			c1.55,0.16,3.05,0.38,4.51,0.66c2.04,0.38,4.01,0.87,5.91,1.47c0.47,0.15,0.96,0.3,1.42,0.46c7.47,2.59,13.86,6.88,19.14,12.83
			c0.23,0.25,0.44,0.52,0.66,0.77c1.13,1.33,2.12,2.66,3.02,3.98c-0.25,0.1-0.51,0.19-0.76,0.29c-0.23,0.09-0.46,0.17-0.68,0.27
			c-0.33,0.12-0.65,0.24-0.96,0.37c-0.23,0.07-0.46,0.16-0.68,0.25l0.01,0.01c-0.47,0.17-0.95,0.35-1.41,0.54
			c-0.35,0.14-0.72,0.28-1.07,0.43c-0.56,0.22-1.12,0.45-1.67,0.67c-0.11,0.05-0.22,0.09-0.33,0.14c-0.38,0.16-0.76,0.32-1.14,0.48
			c-0.17,0.06-0.34,0.14-0.51,0.21c-0.31,0.12-0.61,0.25-0.92,0.38c-0.51,0.21-1.02,0.43-1.53,0.65c-0.65,0.28-1.29,0.56-1.94,0.85
			c-1.04,0.45-2.06,0.92-3.07,1.38c-2.56,1.17-5.08,2.37-7.55,3.61c0.45-0.24,0.89-0.46,1.34-0.67
			C141.66,385.18,137.23,381.7,133.44,377.21z M157.4,430.29c-38.27,0-91.12,10.22-122.04,20.34l8.97-25.6l-26.07-9.14
			c32.57-9.87,82.18-19.57,124.17-21.56c0.04,0.04,0.07,0.08,0.12,0.12c1.1,0.86,2.22,1.71,3.34,2.54c0.43,0.33,0.86,0.64,1.28,0.95
			c0.69,0.52,1.38,1.03,2.08,1.53c0.57,0.41,1.15,0.81,1.72,1.22c0.57,0.4,1.13,0.8,1.7,1.2c0.69,0.48,1.4,0.95,2.1,1.43
			c0.45,0.3,0.89,0.61,1.35,0.91c0.85,0.56,1.7,1.12,2.56,1.67c0.31,0.2,0.62,0.41,0.93,0.61c0.97,0.62,1.95,1.23,2.93,1.84
			c0.2,0.13,0.39,0.25,0.59,0.37c1.06,0.66,2.13,1.29,3.19,1.93c0.13,0.07,0.25,0.15,0.36,0.23c1.14,0.66,2.27,1.33,3.42,1.97
			c0.05,0.04,0.12,0.07,0.18,0.11c1.2,0.68,2.41,1.36,3.62,2.01c0,0,0,0.01,0.01,0.01c8.52,4.64,17.33,8.74,26.38,12.28l15.45,7.73
			C197.07,431.89,177.32,430.29,157.4,430.29z M284.97,405.51c-29.82,0-58.6,5.52-83.35,15.97c-18.41-7.29-35.79-16.96-51.75-28.83
			c8.69-4.25,17.85-8.06,27.39-11.42c3.9-1.38,7.87-2.67,11.89-3.89c2.67-0.82,5.38-1.6,8.1-2.34c0.84-0.23,1.67-0.46,2.52-0.67
			c0.81-0.22,1.62-0.43,2.43-0.63c0.54-0.15,1.1-0.29,1.66-0.42l0.01-0.01c8.71-2.17,17.65-4,26.73-5.46
			c0.7-0.12,1.41-0.23,2.12-0.33c1.31-0.21,2.63-0.41,3.95-0.58c1.78-0.26,3.57-0.5,5.36-0.72c4.92-0.63,9.88-1.15,14.86-1.55
			c0.32-0.03,0.64-0.05,0.95-0.08c2.14-0.16,4.28-0.32,6.42-0.44c1.34-0.09,2.67-0.16,4.02-0.22c5.54-0.27,11.11-0.41,16.69-0.41
			c3.12,0,6.23,0.05,9.34,0.13c1.12,0.03,2.24,0.06,3.35,0.11c3.38,0.12,6.76,0.29,10.12,0.51c4.89,0.33,9.77,0.75,14.61,1.29
			c0.85,0.09,1.68,0.18,2.52,0.28c1.59,0.18,3.18,0.38,4.77,0.59h0.01c1.46,0.19,2.89,0.39,4.34,0.6c0.63,0.08,1.25,0.18,1.87,0.28
			c8.59,1.27,17.04,2.89,25.31,4.82c1.01,0.23,2.01,0.46,3.01,0.71c1.44,0.35,2.85,0.7,4.27,1.07h0.01
			c0.23,0.05,0.46,0.11,0.68,0.17c2.58,0.67,5.15,1.37,7.7,2.11c4.16,1.2,8.26,2.48,12.3,3.85c0.77,0.25,1.55,0.53,2.31,0.8h0.01
			c0.8,0.26,1.59,0.55,2.38,0.83c6.93,2.48,13.66,5.2,20.15,8.16c2.04,0.92,4.05,1.86,6.04,2.84c-0.08,0.06-0.17,0.13-0.25,0.18
			c-15.87,11.78-33.18,21.39-51.5,28.64C343.56,411.03,314.78,405.51,284.97,405.51z M534.58,450.63
			c-30.93-10.12-83.79-20.34-122.05-20.34c-20.05,0-39.93,1.63-58.72,4.76l16.82-8.2c0.03-0.01,0.05-0.02,0.07-0.03
			c1.24-0.49,2.46-0.99,3.69-1.5c0.03-0.02,0.05-0.03,0.08-0.04c1.24-0.52,2.46-1.05,3.69-1.58c0.02-0.01,0.04-0.02,0.06-0.03
			c1.23-0.54,2.45-1.08,3.67-1.65c0.03-0.01,0.05-0.02,0.08-0.04c1.21-0.55,2.41-1.12,3.61-1.7c0.04-0.02,0.08-0.04,0.12-0.05
			c1.19-0.56,2.37-1.15,3.55-1.74c0.06-0.04,0.13-0.07,0.19-0.1c1.15-0.58,2.29-1.16,3.43-1.76c0.1-0.05,0.19-0.1,0.29-0.16
			c1.1-0.58,2.21-1.16,3.3-1.76c0.14-0.08,0.27-0.15,0.41-0.23c1.05-0.58,2.1-1.16,3.15-1.76c0.19-0.11,0.37-0.22,0.56-0.32
			c0.99-0.57,1.99-1.15,2.97-1.74c0.24-0.14,0.48-0.29,0.72-0.43c0.93-0.56,1.86-1.12,2.77-1.69c0.3-0.18,0.6-0.37,0.9-0.55
			c0.85-0.54,1.71-1.07,2.56-1.63c0.37-0.24,0.74-0.48,1.1-0.72c0.78-0.51,1.56-1.01,2.34-1.53c0.46-0.3,0.9-0.62,1.36-0.92
			c0.68-0.46,1.36-0.93,2.05-1.39c0.55-0.39,1.11-0.79,1.66-1.18c0.57-0.4,1.14-0.8,1.7-1.21c0.7-0.5,1.39-1.01,2.08-1.52
			c0.42-0.31,0.84-0.62,1.26-0.93c1.11-0.83,2.21-1.67,3.31-2.52c0.05-0.04,0.07-0.08,0.12-0.12c42,1.99,91.6,11.69,124.18,21.56
			l-26.07,9.14L534.58,450.63z"/>
		<path d="M151.26,385.5c0.56-0.26,1.11-0.52,1.66-0.76c0.23-0.11,0.45-0.22,0.67-0.32C152.82,384.77,152.04,385.14,151.26,385.5z"
			/>
		<g>
			<polygon points="191.03,392.3 197.75,409.36 201.61,407.83 194.91,390.77 			"/>
			<path d="M216.17,387.36l-0.96-3.17l-2.63,0.79l-1.02,0.31l1.54,5.1c0.11,0.36,0.22,0.72,0.33,1.06c0.69,2.24,1.39,4.25,2.22,6.19
				l-0.07,0.03c-1.41-1.74-3.08-3.62-4.7-5.15l-5.56-5.35l-4.64,1.4l5.29,17.56l3.65-1.1l-1.58-5.26c-0.86-2.87-1.67-5.36-2.5-7.63
				l0.11-0.04c1.45,1.81,3.29,3.7,4.91,5.28l5.81,5.61l4.14-1.25l-2.36-7.82L216.17,387.36z"/>
			<path d="M230.18,388.63c-0.16-0.03-0.33-0.05-0.49-0.08c-0.34-0.05-0.65-0.1-0.95-0.16c-1.85-0.32-2.72-0.69-2.92-1.65
				c-0.08-0.36-0.02-0.76,0.21-1.11c0.12-0.19,0.28-0.36,0.5-0.54c0.36-0.27,0.86-0.5,1.52-0.64c1.59-0.35,2.88-0.17,3.7-0.01
				c0.08,0.02,0.16,0.03,0.24,0.05l0.17-3.46c-0.46-0.1-0.96-0.17-1.56-0.19h-0.01c-0.89-0.04-1.95,0.03-3.2,0.3
				c-1.34,0.28-2.46,0.77-3.34,1.4c-0.05,0.04-0.1,0.07-0.15,0.11c-1.8,1.35-2.57,3.29-2.13,5.32c0.27,1.29,0.96,2.22,1.98,2.89
				c0,0,0,0,0.01,0c1.05,0.71,2.47,1.13,4.13,1.36c2.28,0.28,3.28,0.76,3.51,1.85c0.25,1.17-0.56,2.16-2.43,2.56
				c-0.87,0.19-1.76,0.24-2.58,0.18c-0.81-0.04-1.56-0.16-2.15-0.33l-0.1,3.53c1.13,0.34,3.27,0.46,5.32,0.02
				c1.78-0.38,3.14-1.03,4.12-1.84c1.42-1.16,2.05-2.67,2-4.23c0-0.35-0.05-0.71-0.13-1.07
				C234.96,390.51,233.29,389.18,230.18,388.63z"/>
			<polygon points="250.91,380.91 250.39,377.47 244.89,378.3 239.73,379.08 236.42,379.58 236.75,381.72 236.95,383.02 
				238.62,382.76 238.63,382.76 241.46,382.34 241.85,382.28 242.03,383.51 242.04,383.53 242.24,384.86 243.47,393.04 
				244.07,396.96 248.18,396.34 248,395.13 245.96,381.65 246.54,381.56 			"/>
			<polygon points="259.72,385.31 258.82,376.61 254.68,377.04 256.57,395.28 260.71,394.85 259.85,386.48 			"/>
			<polygon points="277.34,377.66 277.22,375.66 277.2,375.37 276.38,375.42 272.41,375.63 263.1,376.15 263.3,379.63 
				268.24,379.35 268.46,383.19 268.57,385.28 268.84,390.12 268.93,391.62 269.07,394.18 272.61,393.99 273.23,393.95 
				273.07,391.17 272.61,382.86 272.53,381.43 272.4,379.12 275.58,378.94 277.4,378.84 277.34,377.67 			"/>
			<path d="M292.64,377.25l-0.08,4.72l-0.01,0.6l-0.06,3.47c-0.05,3.21-1.27,4.71-3.45,4.67c-2.09-0.04-3.32-1.65-3.27-4.78
				l0.06-3.68l0.06-4.02l0.02-1.01v-0.3l0.03-1.59l-2.69-0.05l-1.44-0.03l-0.03,1.44l-0.05,3.38l-0.01,0.63l-0.03,1.45v0.32
				l-0.05,3.08c-0.06,3.48,0.86,5.8,2.6,7.12c1.17,0.88,2.71,1.32,4.58,1.36c3.38,0.05,5.83-1.21,7-3.95h0.01
				c0.47-1.1,0.75-2.44,0.78-4.03c0.01-0.06,0.01-0.13,0.01-0.19l0.05-2.93l0.11-6.13l0.02-1.27l-4.13-0.06L292.64,377.25z"/>
			<polygon points="301.4,375.77 301.4,375.82 301.09,379.24 306.02,379.68 305.54,385.07 305.43,386.24 304.69,394.47 
				308.84,394.84 310.17,380.05 315.15,380.5 315.46,377.03 301.52,375.78 			"/>
			<polygon points="321.24,377.82 319.96,377.62 319.36,381.54 319.35,381.55 317.26,395.09 317.16,395.75 324.97,396.95 
				328.73,397.53 329.21,394.37 329.22,394.37 329.24,394.16 321.79,393.02 321.79,393.02 322.46,388.72 327.53,389.5 
				329.13,389.74 329.37,388.13 329.64,386.41 322.97,385.38 323.55,381.62 324.68,381.79 328.05,382.31 330.59,382.7 
				330.89,380.74 331.11,379.34 326.42,378.63 			"/>
			<path d="M354.1,384.35c-0.33-0.13-0.66-0.24-1.02-0.34c-5.19-1.41-9.71,1.42-11.2,6.9c0,0.01-0.01,0.03-0.01,0.04
				c-0.5,1.87-0.55,3.66-0.16,5.24c0.68,2.88,2.77,5.1,6.08,5.99c4.75,1.29,9.53-0.88,11.14-6.81c0.8-2.95,0.52-5.76-0.86-7.9
				C357.2,386.1,355.88,385.02,354.1,384.35z M354.7,394.28c-0.86,3.2-3.06,5.54-5.89,4.77c-1.94-0.52-2.92-2.21-3.01-4.3
				c-0.04-0.86,0.07-1.8,0.34-2.76c0.42-1.57,1.15-2.91,2.09-3.8c0.56-0.54,1.18-0.91,1.88-1.07l0.01-0.01
				c0.61-0.16,1.25-0.15,1.95,0.04c1.49,0.41,2.36,1.46,2.73,2.8C355.18,391.24,355.1,392.81,354.7,394.28z"/>
			<polygon points="360.06,405.52 363.96,406.98 366.55,400.07 372.72,402.39 373.89,399.26 367.72,396.95 369.21,393 375.8,395.47 
				376.99,392.29 366.5,388.35 			"/>
			<polygon points="51.46,417.21 55.71,434.26 59.7,433.49 55.45,416.44 			"/>
			<path d="M71.34,413.43l1.2,4.96c0.63,2.58,1.26,4.87,2.07,7.08l-0.08,0.01c-1.28-1.77-2.81-3.71-4.32-5.31l-5.14-5.58l-4.65,0.87
				l4.13,17.07l3.66-0.68l-1.24-5.12c-0.67-2.79-1.31-5.21-1.99-7.44l0.1-0.02c1.32,1.84,3.02,3.8,4.51,5.46l5.37,5.85l4.15-0.77
				L75,412.74L71.34,413.43z"/>
			<path d="M93.05,411.31c-1.98-0.92-4.3-1.15-7.68-0.55c-1.96,0.34-3.87,0.81-5.28,1.3l3.88,16.8c1.02-0.05,2.52-0.18,4.62-0.55
				c3.4-0.6,6.09-1.81,7.61-3.63c1.38-1.7,2.09-4.17,1.33-7.44C96.83,414.21,95.19,412.31,93.05,411.31z M88.73,425.14
				c-0.5,0.09-1.05,0.16-1.43,0.17l-2.58-11.19c0.35-0.14,0.91-0.32,1.77-0.47c3.46-0.61,6.01,0.9,6.83,4.45
				C94.26,422.19,92.35,424.53,88.73,425.14z"/>
			<polygon points="99.9,408.39 103.64,425.53 107.66,424.88 103.92,407.74 			"/>
			<path d="M113.35,406.28l-2.19,17.94l4.17-0.56l0.43-4.59l5.1-0.68l2.21,4.24l4.36-0.58l-8.8-16.47L113.35,406.28z M115.81,416.11
				l0.36-3.82c0.08-1,0.12-2.37,0.17-3.4l0.08-0.01c0.45,0.96,1.01,2.2,1.52,3.17l1.78,3.53L115.81,416.11z"/>
			<path d="M140.12,403.87l0.57,5.04c0.29,2.62,0.64,4.96,1.16,7.23l-0.08,0c-1.05-1.91-2.33-4.01-3.63-5.77l-4.43-6.15l-4.76,0.27
				l1.95,17.33l3.74-0.21l-0.58-5.2c-0.32-2.83-0.65-5.29-1.04-7.58l0.11-0.01c1.08,1.98,2.54,4.13,3.81,5.95l4.62,6.44l4.25-0.24
				l-1.95-17.33L140.12,403.87z"/>
			<path d="M425.07,412.31c-2.34-0.77-3.36-1.24-3.3-2.3c0.04-0.86,0.96-1.66,2.77-1.71c1.81-0.05,3.1,0.42,3.83,0.7l1.06-3.12
				c-1.04-0.42-2.53-0.76-4.67-0.7c-4.33,0.12-7.11,2.38-7.26,5.27c-0.13,2.49,1.82,3.95,4.87,4.9c2.16,0.64,3,1.25,2.95,2.28
				c-0.06,1.11-1.11,1.87-3.03,1.92c-1.79,0.05-3.51-0.43-4.58-0.93l-1.01,3.19c1.01,0.5,3.07,0.97,5.19,0.92
				c5.1-0.14,7.56-2.64,7.71-5.49C429.71,414.85,428.28,413.33,425.07,412.31z"/>
			<path d="M431.99,413.97c-0.59,4.83,2.23,8.62,8.59,8.86c2.24,0.08,4.01-0.25,4.81-0.55l-0.26-3.04
				c-0.86,0.27-2.28,0.47-3.53,0.42c-3.71-0.14-5.63-2.36-5.22-5.75c0.46-3.77,3.28-5.51,6.55-5.39c1.47,0.05,2.61,0.4,3.39,0.76
				l1.24-2.99c-0.66-0.4-2.28-0.84-4.44-0.92C437.56,405.16,432.7,408.19,431.99,413.97z"/>
			<polygon points="447.72,423.04 451.86,423.43 454.95,406.54 450.81,406.15 			"/>
			<polygon points="469.36,411.44 470.02,408.32 458.86,406.96 455.27,423.8 466.84,425.21 467.5,422.08 460.05,421.18 
				460.9,417.18 467.57,417.99 468.23,414.89 461.56,414.08 462.31,410.58 			"/>
			<path d="M483.49,415.07c-0.58,2.54-1.01,4.83-1.24,7.08l-0.08-0.01c-0.4-2.01-0.98-4.24-1.67-6.16l-2.34-6.66l-4.78-0.64
				l-3.8,16.81l3.76,0.5l1.14-5.04c0.62-2.74,1.11-5.14,1.48-7.38l0.11,0.01c0.41,2.09,1.14,4.39,1.8,6.35l2.43,6.98l4.27,0.57
				l3.8-16.81l-3.76-0.5L483.49,415.07z"/>
			<path d="M497.75,426.79c-3.6-0.67-5.13-3.16-4.2-6.5c1.04-3.71,4.06-5.05,7.25-4.46c1.43,0.26,2.49,0.77,3.19,1.24l1.68-2.81
				c-0.59-0.5-2.1-1.17-4.19-1.55c-5.41-1-10.63,1.34-12.23,7.03c-1.33,4.75,0.83,8.95,7.01,10.09c2.17,0.4,3.95,0.31,4.78,0.13
				l0.23-3.08C500.39,427.02,498.96,427.02,497.75,426.79z"/>
			<polygon points="518.87,420.72 520.05,417.7 509.41,414.61 503.04,430.88 514.06,434.08 515.25,431.06 508.14,429 509.65,425.14 
				516.01,426.99 517.19,423.99 510.83,422.15 512.15,418.77 			"/>
		</g>
		<g>
			<path d="M155.02,496.15h-3.54c-0.06-7.33-7.15-13.22-15.93-13.22c-5.65,0.06-10.22,3.25-10.22,7.21c0,1.62,0.84,3.55,2.4,5.41
				h9.02c-1.33-1.08-2.05-3.07-2.05-5.41c-0.06-2.83,1.56-5.11,3.55-5.11c3,0,5.41,4.99,5.41,11.12h-3.54v0h-37.14h-1.21H76.61H75.4
				H60.5l0,0H44.93v3.01h3.01v12.32h-7.21v-11.72c0-3.97-4.03-7.21-9.02-7.21c-4.99,0.06-9.02,3.25-9.02,7.21
				c0,3.97,4.03,7.21,9.02,7.21h1.21v4.51h-1.8c-3.67,0-6.61,2.29-6.61,5.11c0.06,3.49,3.79,6.31,8.42,6.31
				c4.33,0,7.82-2.82,7.82-6.31v-2.7h7.21v9.31c0.06,1.33-1.32,2.41-3.01,2.41v1.81h13.83v-1.81c-1.68,0-3.01-1.08-3.01-2.41v-24.04
				h4.75v0h3.54v24.04c0.06,1.33-1.32,2.41-3.01,2.41v1.81h13.83v-1.81c-1.68,0-3-1.08-3-2.41v-24.04h3.54h1.21h5.46
				c4.81,0,8.72,4.03,8.72,9.02c-0.06,4.51-3.79,8.11-8.42,8.11c-1.98,0-3.79-0.3-5.41-0.9l-0.6,1.81c1.62,0,4.09,2.16,7.81,6.01
				c2.58,2.71,5.41,4.21,7.82,4.21c3.49,0,6.85-1.92,9.02-5.11l-1.2-1.5c-1.08,1.33-2.77,2.1-4.51,2.1
				c-1.98,0.07-4.51-1.62-6.91-4.5c6.79-1.14,11.78-5.23,11.78-9.62c-0.06-4.93-5.17-9.13-11.78-9.62h13.4h1.21h24.58v6.31
				c-2.05-1.38-5.17-2.1-9.02-2.1c-8,0-14.42,5.53-14.42,12.33c0.06,4.27,2.22,8.53,6.01,11.72l7.21-3.61
				c-2.46-1.99-3.85-5.66-3.85-9.92c0-4.51,3.07-8.12,6.85-8.12c2.77,0,5.35,0.84,7.21,2.41v15.02c0.06,1.33-1.32,2.41-3.01,2.41
				v1.81h13.83v-1.81c-1.68,0-3.01-1.08-3.01-2.41v-24.04h3.54v0h4.75v24.65c0.06,1.02-1.32,1.8-3.01,1.8v1.81h13.83v-1.81
				c-1.68,0.06-3-0.78-3-1.8v-24.65h3.54h1.21h5.58c3.49,0,6.31,2.16,6.31,4.81c0,2.65-2.83,4.81-6.31,4.81
				c-2.29,0.06-4.03-0.18-5.11-0.6c-0.06,8.48,5.89,15.33,13.22,15.33c4.81,0.06,8.9-2.05,10.82-5.41v5.11c0,1.32-1.45,2.4-3.25,2.4
				v1.81h14.07v-1.81c-1.69,0-3-1.08-3-2.4v-24.04h4.75v-3h-37.08H155.02z M32.92,516.58c0.06,1.51-0.79,2.7-1.8,2.7
				c-1.33,0-2.41-1.2-2.41-2.7c0-1.5,1.08-2.7,2.41-2.7h1.8V516.58z M32.92,503.06c0,0.84-0.54,1.51-1.21,1.51
				c-0.66,0-1.2-0.67-1.2-1.51v-6.61c0-0.84,0.54-1.5,1.2-1.5c0.66,0,1.21,0.66,1.21,1.5V503.06z M180.74,499.15v15.33
				c-1.2,3.06-4.03,5.11-7.21,5.11c-4.15,0-7.51-4.03-7.51-9.01c6.31,0,11.48-2.95,11.48-6.62c-0.06-2.1-2.7-4.15-6.37-4.81H180.74z
				"/>
			<path d="M220.28,495.55c-0.48-0.54-0.24-1.68-0.24-4.21c0-3.67,2.95-6.61,6.55-6.61c7.03,0,13.29,4.33,15.63,10.82h7.82
				c-2.88-7.94-12.15-13.22-23.15-13.22c-8.95,0-16.23,4.03-16.23,9.02c0.06,1.32,0.66,2.82,1.8,4.21H220.28z"/>
			<path d="M318.71,496.15h-16.1h-1.22h-41.82h-1.21h-33.34v0h-17.31v3.01h4.75v24.04c0.06,1.32-1.32,2.4-3,2.4v1.81h13.82v-1.81
				c-1.68,0-3-1.08-3-2.4v-24.04h4.75v0h21.99v6.61c-1.92-2.28-5.23-3.61-9.02-3.61c-6.61,0.06-12.03,4.87-12.03,10.82
				c0.06,5.95,5.42,10.82,12.03,10.82c3.79,0,7.09-1.33,9.02-3.61v3c0.06,1.33-1.32,2.41-3,2.41v1.81h13.82v-1.81
				c-1.68,0-3-1.08-3-2.41v-24.04h3.54h1.21h30.47v4.81c-6.49,0-12.74-2.4-19.23-2.4c-5.29,0-9.62,2.94-9.62,6.61
				c0,3.31,3.49,6.01,7.82,6.01h5.11c2.46,0,4.51,1.74,4.51,3.91c-0.06,2.82-3.24,5.1-7.21,5.1c-4.27,0-7.88-0.84-10.22-2.4
				l-1.2,2.1c3.19,1.15,5.96,3.13,8.12,5.71c2.23,2.65,5.41,4.21,8.72,4.21c2.52,0,4.93-1.5,6.31-3.91l-1.2-1.2
				c-1.26,0.71-1.93,1.08-2.35,1.08c-1.62-0.06-3.42-1.21-4.87-3.19h3.31c5.53-0.06,9.98-3.25,9.98-7.21c0-3.67-3.12-6.61-6.97-6.61
				h-7.21c-1.8,0-3.25-1.63-3.25-3.61c0-1.98,1.87-3.61,4.15-3.61c5.17,0,10.1,2.4,15.33,2.4v16.23c0.06,1.33-1.32,2.41-3,2.41v1.81
				h13.82v-1.81c-1.68,0-3-1.08-3-2.41v-24.04h3.53h1.22h3.53v24.04c0.06,1.33-1.32,2.41-3.01,2.41v1.81h13.83v-1.81
				c-1.68,0-3-1.08-3-2.41v-24.04h3.54v0h29.82v8.12c-4.45-2.58-10.04-3.91-16.23-3.91c-6.31,0.06-11.42,4.87-11.42,10.82
				c0,5.65,5.12,10.22,11.42,10.22c6.2,0,11.18-4.57,11.18-10.22c0-3.18-1.62-6.01-4.27-7.51c4.51,0.78,7.69,1.92,9.32,3.3v13.22
				c0.06,1.32-1.33,2.4-3.01,2.4v1.81h13.82v-1.81c-1.68,0-3-1.08-3-2.4v-24.04h4.75v-3L318.71,496.15L318.71,496.15z
				 M247.02,517.79c-1.62,1.56-3.55,2.41-5.41,2.41c-3.42-0.07-6.25-3.25-6.25-7.22c0.06-3.97,2.82-7.21,6.25-7.21
				c1.92-0.06,3.91,0.84,5.41,2.41V517.79z M331.08,522c-1.32,0-2.04-3.49-2.04-7.81c0-4.63,0.6-8.42,2.04-8.42
				c1.45,0.06,1.81,3.79,1.81,8.42C332.89,518.51,332.41,522,331.08,522z"/>
			<path d="M410.4,490.44c1.99,0,3.61-1.62,3.61-3.61c0-1.99-1.62-3.61-3.61-3.61c-1.98,0-3.61,1.62-3.61,3.61
				C406.79,488.82,408.42,490.44,410.4,490.44z"/>
			<path d="M437.75,522.9c-1.8,0.06-4.21-1.63-6.61-4.51c6.79-1.26,11.78-5.41,11.78-9.92c0-4.75-5.41-8.84-12.38-9.32h19.84v-3.01
				h-32.22l0,0h-43.87v3h6.07c5.17,0,9.32,4.03,9.32,9.02c0.06,4.33-4.15,7.81-9.32,7.81c-1.92,0.06-3.43-0.18-4.51-0.6l-0.6,1.81
				c2.22,0.84,4.63,2.7,6.91,5.41c2.59,3.06,5.53,4.81,8.12,4.81c3.31,0.06,6.73-1.75,9.32-4.81l-1.5-1.5
				c-0.9,1.14-2.71,1.8-4.81,1.8c-1.38,0.07-3.61-1.62-6.01-4.5c6.55-0.3,11.78-4.51,11.78-9.62c-0.06-4.93-5.17-9.13-11.78-9.62
				h19.23v12.92c-1.08,1.02-2.34,1.57-3.61,1.57c-1.32,0-2.76-0.42-4.21-1.26l-0.6,2.4c1.38,0.84,3.07,1.26,4.81,1.26
				c1.26-0.06,2.52-0.36,3.61-0.96v8.11c0.06,1.33-1.32,2.41-3,2.41v1.81h13.83v-1.81c-1.68,0-3.01-1.08-3.01-2.41v-24.04h3.83v0
				h5.17c5.65,0.06,10.22,3.79,10.22,8.42c0,4.63-4.45,8.42-9.92,8.42c-1.5,0.06-2.82-0.18-3.91-0.6l-0.6,1.81
				c2.22,0.84,4.63,2.7,6.91,5.41c2.58,3.06,5.53,4.81,8.11,4.81c2.71,0.06,5.83-1.75,8.42-4.81l-1.2-1.8
				C440.21,522.12,438.89,522.9,437.75,522.9z"/>
			<path d="M446.59,512.56c-1.26,0-2.53-0.36-3.73-1.08l-0.9,2.1c1.56,0.91,3.13,1.38,4.51,1.38c1.8,0,3.31-0.36,4.51-1.08
				l-0.6-2.41C449.17,512.2,447.85,512.56,446.59,512.56z"/>
			<path d="M547.24,499.15v-3h-41.16v0h-16.1l0,0h-14.97v3.01h2.4v15.93c-0.9,3.01-4.69,5.12-9.32,5.12c-4.81,0-8.71-2.95-8.71-6.62
				c8.66,0,15.63-5.11,15.63-11.42c0-3.97-5.11-7.21-11.42-7.21c-5.65,0.06-10.22,3.24-10.22,7.21c0,4.33,4.57,7.82,10.22,7.82
				c-1.33,1.14-4.03,1.8-7.51,1.8c-2.35,0-4.09-0.3-5.11-0.9c-0.06,7.63,5.89,13.82,13.22,13.82c6.01-0.06,10.94-2.05,13.22-5.41
				v3.91c0.06,1.33-1.32,2.41-3,2.41v1.81h13.82v-1.81c-1.68,0-3-1.08-3-2.41v-24.04h4.75v0h3.53v24.04
				c0.06,1.33-1.32,2.41-3.01,2.41v1.81h13.83v-1.81c-1.68,0-3-1.08-3-2.41v-24.04h3.54v0h29.82v8.12
				c-4.45-2.58-10.04-3.91-16.23-3.91c-6.31,0.06-11.42,4.87-11.42,10.82c0,5.65,5.12,10.22,11.42,10.22
				c6.2,0,11.18-4.57,11.18-10.22c0-3.18-1.62-6.01-4.27-7.51c4.51,0.78,7.69,1.92,9.32,3.3v13.22c0.06,1.32-1.33,2.4-3.01,2.4v1.81
				h13.82v-1.81c-1.68,0-3-1.08-3-2.4v-24.04H547.24z M461.18,505.46v-6.01c0.06-1.14,1.45-2.11,3.18-2.11
				c1.57,0.06,2.83,0.96,2.83,2.11v6.01c0,1.14-1.26,2.11-2.83,2.11C462.63,507.51,461.18,506.61,461.18,505.46z M518.45,522
				c-1.32,0-2.04-3.49-2.04-7.81c0-4.63,0.6-8.42,2.04-8.42c1.45,0.06,1.81,3.79,1.81,8.42C520.25,518.51,519.77,522,518.45,522z"/>
		</g>
	</g>
</g>
<g id="Orignal_Logo">
</g>
</svg>
