<svg id="Layer_1" data-name="Layer 1" xmlns="http://www.w3.org/2000/svg" viewBox="0 0 728 858"><defs><style>.cls-1{fill:#fefefe;}.cls-2{fill:#c1a25a;}.cls-3{fill:#e70105;}.cls-4{fill:#0a0a0d;}.cls-5{fill:#0b0a0d;}.cls-6{fill:#0b0b0e;}.cls-7{fill:#c0e3ae;}.cls-8{fill:#0c1310;}.cls-9{fill:#124525;}.cls-10{fill:#174027;}.cls-11{fill:#e70106;}.cls-12{fill:#049338;}.cls-13{fill:#039438;}.cls-14{fill:#049a3b;}.cls-15{fill:#133b22;}.cls-16{fill:#039639;}.cls-17{fill:#029638;}.cls-18{fill:#039538;}.cls-19{fill:#192f24;}.cls-20{fill:#029738;}.cls-21{fill:#039638;}.cls-22{fill:#049138;}.cls-23{fill:#103e21;}.cls-24{fill:#029538;}.cls-25{fill:#126732;}.cls-26{fill:#039738;}.cls-27{fill:#0f301c;}.cls-28{fill:#0c8038;}.cls-29{fill:#029739;}.cls-30{fill:#029838;}.cls-31{fill:#019939;}.cls-32{fill:#029839;}.cls-33{fill:#1e3a2c;}.cls-34{fill:#049439;}.cls-35{fill:#039739;}.cls-36{fill:#059339;}.cls-37{fill:#0b7e35;}.cls-38{fill:#f9f9fa;}.cls-39{fill:#1f3e2d;}.cls-40{fill:#23372c;}.cls-41{fill:#193323;}.cls-42{fill:#1e3328;}.cls-43{fill:#1f3428;}.cls-44{fill:#100f12;}.cls-45{fill:#1d3629;}.cls-46{fill:#213d2d;}.cls-47{fill:#1e3028;}.cls-48{fill:#232e29;}.cls-49{fill:#202f29;}.cls-50{fill:#1f3128;}.cls-51{fill:#1a3224;}.cls-52{fill:#1e3128;}.cls-53{fill:#213129;}.cls-54{fill:#213029;}.cls-55{fill:#2f3a33;}.cls-56{fill:#153722;}.cls-57{fill:#22392c;}.cls-58{fill:#27352e;}.cls-59{fill:#25312a;}.cls-60{fill:#254a31;}.cls-61{fill:#232a28;}.cls-62{fill:#0e361d;}.cls-63{fill:#1c432a;}.cls-64{fill:#1b3023;}.cls-65{fill:#1d3f2a;}.cls-66{fill:#184c2b;}.cls-67{fill:#2e4136;}.cls-68{fill:#103f21;}.cls-69{fill:#2d3d34;}.cls-70{fill:#c7c7c7;}.cls-71{fill:#385543;}.cls-72{fill:#274a34;}.cls-73{fill:#13301e;}.cls-74{fill:#29573b;}.cls-75{fill:#123e25;}.cls-76{fill:#173f24;}.cls-77{fill:#304a3b;}.cls-78{fill:#284d33;}.cls-79{fill:#c2c2c1;}.cls-80{fill:#656667;}.cls-81{fill:#32473b;}.cls-82{fill:#224b31;}.cls-83{fill:#23432e;}.cls-84{fill:#1f482d;}.cls-85{fill:#2c4234;}.cls-86{fill:#606161;}.cls-87{fill:#666667;}.cls-88{fill:#324236;}.cls-89{fill:#294a35;}.cls-90{fill:#fefefd;}.cls-91{fill:#f4f4f4;}.cls-92{fill:#d1d2d3;}.cls-93{fill:#fbfbfc;}.cls-94{fill:#fdfdfd;}.cls-95{fill:#f8f8f8;}.cls-96{fill:#f7f7f7;}.cls-97{fill:#f8f7f8;}.cls-98{fill:#e70005;}.cls-99{fill:#e70408;}.cls-100{fill:#009939;}.cls-101{fill:#fafbfb;}.cls-102{fill:#f4f5f5;}.cls-103{fill:#eee;}.cls-104{fill:#ebebec;}.cls-105{fill:#f5f6f5;}.cls-106{fill:#f1f2f1;}.cls-107{fill:#e6e7e7;}.cls-108{fill:#23412f;}.cls-109{fill:#e0e0e2;}.cls-110{fill:#e8e7e8;}.cls-111{fill:#e3e6e7;}.cls-112{fill:#cccdcd;}.cls-113{fill:#053d1c;}.cls-114{fill:#103f23;}.cls-115{fill:#f2f2f3;}.cls-116{fill:#144928;}.cls-117{fill:#093f1e;}.cls-118{fill:#d9d9da;}.cls-119{fill:#018e35;}.cls-120{fill:#f9f9f8;}.cls-121{fill:#055121;}</style></defs><path class="cls-1" d="M.09,428.5Q.09,216.55,0,4.59C0,.84.84,0,4.59,0Q364,.15,723.41,0c3.75,0,4.59.84,4.59,4.59q-.15,424.41,0,848.82c0,3.75-.84,4.59-4.59,4.59Q364,857.85,4.59,858C.84,858,0,857.16,0,853.41Q.17,641,.09,428.5Z" transform="translate(0)"/><path class="cls-2" d="M260,664.91c-25.49,0-51-.07-76.45.07-3.88,0-4.83-.74-3.72-4.76a339.63,339.63,0,0,0,8.95-44.94c1.58-11.53-2.5-21.91-6.7-32.31-6-14.9-16.43-26.85-25.85-39.51C130.7,509.12,104.87,475,82.09,438.69,55.48,396.27,34.72,351.28,21.9,302.76a14.68,14.68,0,0,1-.46-7.35c11.76-49.28,29.8-95.9,58.46-138C117.58,102,168.11,62.82,230.16,38.15a410.85,410.85,0,0,1,43.53-14.43c2.93-.81,4-.55,4.55,2.78,3.83,22.25-2.31,40.42-21.05,53.81-13.14,9.38-27.76,15.77-42.73,21.42a9.9,9.9,0,0,0-6.25,5.7c-13.9,31.1-34.29,57.72-57.3,82.5-2.15,2.32-4,5.09-6.54,6.86-8.92,6.21-10,14.69-9.23,24.78,1.94,25.72-1.1,51.15-6.75,76.24A18.1,18.1,0,0,0,130.21,311c18.94,36.55,42.37,70,68.82,101.5,27.37,32.57,57.69,62.3,88,92.08,15,14.72,29.72,29.68,41.32,47.35,10.09,15.37,15,32.44,16.75,50.63,1.92,20-1.92,39.8-2.76,59.7-.15,3.81-1.9,4.58-5.35,4.57-25.66-.12-51.31-.07-77-.07Z" transform="translate(0)"/><path class="cls-2" d="M451.48,666.78c-25.32,0-50.63,0-76,.07-3.39,0-5.34-.66-5.53-4.47-.81-16.94-3.15-33.8-3.08-50.79.12-31.58,12.59-58,33.59-81,21.7-23.77,45.46-45.47,67.83-68.55,32.28-33.31,62.7-68.13,88.2-107a464.93,464.93,0,0,0,27.15-47.14,10.77,10.77,0,0,0,.85-7.68,285.89,285.89,0,0,1-6.71-89.67c.28-3.29-1.19-5.21-3.29-7.29-22.71-22.44-43.15-46.71-59.36-74.35a192.23,192.23,0,0,1-11.11-21.78,8.83,8.83,0,0,0-5.52-5.14c-17.25-6.68-34.37-13.69-48.61-26-15.62-13.51-19.06-30.85-15.63-50.31.52-2.94,2.11-2.53,4.36-1.93,31.81,8.54,62.16,20.61,90.65,37.22,68.48,39.91,114,98.86,142.49,171.91A495,495,0,0,1,690.7,293.8a17.89,17.89,0,0,1-.15,9.24C673.61,367.76,642,425.2,603.31,479.12c-17.36,24.22-34.55,48.62-52.94,72A162.81,162.81,0,0,0,527,591.5c-4.69,11.64-3.81,23.37-1.59,35.3,2.1,11.28,4.17,22.56,7.34,33.59,1.07,3.7-.24,4.58-3.79,4.56-25.82-.1-51.63-.05-77.45-.05Z" transform="translate(0)"/><path class="cls-3" d="M384.27,430.82a61.06,61.06,0,0,1,10.6-10c12.87-8.92,26.21-8,36.88,3.33,3.32,3.53,7.39,5.74,10.81,8.91.81.76,1.94,1.44,1.95,2.73.09,7.62,5.21,12.23,12.56,10,5.57-1.67,4.5,2.55,5.6,4.8,1.61,3.28-1.05,3.8-3.31,4.54-5.13,1.68-9.82.65-14.3-2.09-2.88-1.76-5-4.38-7.07-6.47l-7,6.31c-13.17,11.88-27.11,11.8-40-.28-2.36-2.22-4.65-4.51-7-6.77-2.18,2.27-4.28,4.61-6.55,6.79-13.48,12.94-28.1,12.63-42-1.52-3.7-3.75-5.7-3.73-8.39.32a11.76,11.76,0,0,1-1.75,1.78c-14.49,14.08-29.42,14-43.69-.32-1.28-1.29-2.36-2.78-3.63-4.29-3.2,3.61-5.73,6.92-9.29,9.18a14.86,14.86,0,0,1-19.79-3.31c-2.67-3.36,1-5.06,2.18-7.19,1.56-2.84,2.72.27,3.71.95a11.43,11.43,0,0,0,17-5.3,2.62,2.62,0,0,0-.6-2.72c-.79-1.07-1.52-2.18-2.29-3.27-4.21-6-4.21-6,1.49-12,1.33,1.89,2.74,3.64,3.86,5.56,1.87,3.19,3.21,4.24,6,.42A30.82,30.82,0,0,1,297,419c11.44-3.15,20.44,1.68,28.57,9,5.56,5,5.48,5.05,10.77-.17a64,64,0,0,1,6-5.32c13.39-10.31,26.7-9,37.95,3.63C381.59,427.62,382.84,429.15,384.27,430.82Z" transform="translate(0)"/><path class="cls-4" d="M535.05,696.18c2,11.1,1,13.35-8.73,18.33-2.5,1.27-1.48,3.1-1.3,4.67.27,2.47.82,5.08,4,5.5a10.43,10.43,0,0,0,3.48,0c4.59-.92,5.08,1.47,5,5.26-.1,3-1.16,3.52-3.84,3.58-13,.29-16.52-2.58-18.15-15.55-.24-2-.48-3.21-2.64-4-2.39-.94-2.29-3.46-1.87-5.66s2-3.33,4.31-3.33,4.66-.06,7,0c3.25.09,4.57-1.78,4.48-4.67s-1.13-4.67-4.57-4.45a121,121,0,0,1-12.49,0c-2.24-.09-2.8.7-2.77,2.84q.15,14.74,0,29.48c0,2.1.69,2.69,2.65,3.15a42.15,42.15,0,0,1,16.09,7.6c2.68,2.07,2.75,4.1.55,6.68-2,2.3-3.27,3.37-6.18.77s-6.53-3.89-9.84-5.79a6.42,6.42,0,0,0-4.82-.66c-2,.47-2.48,2-2.48,3.81,0,2.65,2,1.36,3.22,1.67,1.72.42,4.16-1.67,5,.3s.28,4.59.09,6.91c-.15,1.83-1.89,1.58-3.11,1.74-9.41,1.22-16.07-6.71-12.17-15.43,2.2-4.91,1.61-9.55,1.89-15.06-6.71,4.07-13,4.27-18.77-1.08-1.18-1.08-2.06.34-3,.77-5.92,2.65-10.67,1.53-14.58-3.47-4.1-5.24-4.06-14,.08-19.1,3.55-4.4,9.42-5.48,14.9-2.67.86.43,2.3,1.18,2.25,1.69-.44,5.25,3.29,2.3,5.05,2.42s2.57-1.39,2.22-3.19c-.56-2.89-2.55-3.42-5.19-3.37-7.32.12-14.66-.23-22,.14-4.1.21-3.56-2.07-3.66-4.61-.11-2.84.09-4.48,3.84-4.46,25.81.18,51.62.1,77.43.1h6.14c-4.25-3.68-3.84-9.62-9.81-10.26-1.32-.14-1.49-5.75-.3-6.58,1.71-1.2,8.68.16,9.88,2,2.07,3.21,4.23,6.39,6,9.76s3.89,5.69,8.37,5.17,2,3.2,2.38,5,.58,4.35-2.72,3.72c-4.53-.85-5.06,1.45-5,5.28.26,9.49-.13,19,.2,28.47.15,4.32-2.24,3.85-5,3.9s-4.66,0-4.53-3.85c.31-9.15.1-18.31.1-27.47C542.14,695.67,542.14,695.67,535.05,696.18Z" transform="translate(0)"/><path class="cls-4" d="M302.31,793.77a7.46,7.46,0,0,0,1.27.94c8.91,4,12.48,9.36,11.77,17.56-.74,8.44-6.48,15.78-14.93,17.23-15.18,2.6-30.59,1-45.89,1.28-3.13.06-2-2.55-2-4.08-.09-15.17-.06-30.33-.06-45.49,0-5.5.12-11,0-16.49-.08-2.62.8-3.5,3.42-3.45,12.83.28,25.67-.5,38.47.64,7.72.69,13.67,4.3,16.55,11.72,2.33,6,.72,11.49-3.58,16.12A46,46,0,0,1,302.31,793.77Z" transform="translate(0)"/><path class="cls-4" d="M547.93,830.82c-6.09,0-11.18-.1-16.26,0-2.36.07-3.07-1.65-4.12-3.06-5-6.67-9.87-13.38-14.84-20a13.83,13.83,0,0,0-7.53-5.44c-8.09-2.18-9.83-.9-9.83,7.3,0,5.82-.1,11.65,0,17.47.07,2.59-.38,3.76-3.44,3.82-11.84.25-11.83.37-11.83-11.38,0-17.81.14-35.62-.11-53.43-.06-4.09,1.23-5,5-4.87,12.8.39,25.64-.46,38.42.72,13.19,1.23,20.78,11.71,17.57,24.08-1.71,6.57-6.23,10.39-12.37,12.56-1.82.64-3.71,1.06-6.06,1.72C534.5,807.63,539.67,819.82,547.93,830.82Z" transform="translate(0)"/><path class="cls-4" d="M190.91,787.37c0,13.12-.11,26.24.07,39.35,0,3.25-.82,4.21-4.14,4.19-10.05-.07-10.05.08-10.05-10.14,0-18.16.09-36.31-.07-54.47,0-3.68.69-4.82,4.77-5.2,7.37-.68,11.71,1.81,15.55,8.22,7.56,12.62,16.12,24.64,25.15,38.23V769.36c0-8.06,0-7.77,8.16-8.16,4.69-.22,6.18.88,6.1,5.89-.33,19.81-.23,39.63-.06,59.45,0,3.54-1.07,4.07-4.41,4.45-7.78.86-12.65-1.61-16.77-8.65-7.12-12.14-15.49-23.55-23.34-35.26Z" transform="translate(0)"/><path class="cls-4" d="M450.43,793.63c3.5,0,7,.27,10.49-.07,4-.39,5.58.56,5.28,5-.44,6.47-.21,13-.07,19.47.06,2.41-.56,4-2.71,5.32-14.64,8.7-30.06,11.54-46.33,5.59-15-5.49-23-20.42-21-38.41,1.73-15.72,13.37-27.53,29.05-29.72,8.39-1.17,16.61-.86,24.57,2.11a24,24,0,0,1,14.6,14.74c.88,2.31.71,3.35-2,3.44a17.86,17.86,0,0,0-4.9.89c-4.56,1.49-7.29.48-10.42-3.84-5.1-7-13.21-7-21-5s-12.39,7.45-13.92,15.33a38.37,38.37,0,0,0,.13,14.91c2.39,11.84,12.84,18.57,25.12,16.29a34.33,34.33,0,0,0,9.4-3.18,8,8,0,0,0,4.13-9.83c-.6-1.89-2-1.41-3.22-1.44-3.49,0-7-.22-10.48.05-3.18.24-4.2-1-3.83-4a21.06,21.06,0,0,0,0-4.49c-.23-2.39.7-3.25,3.11-3.17C441.11,793.73,445.77,793.63,450.43,793.63Z" transform="translate(0)"/><path class="cls-4" d="M328.25,795.76c0-10,.13-20-.07-30-.07-3.35.68-4.67,4.34-4.57,11.31.33,22.63-.21,33.94.62,11.72.86,19.41,8.85,19.52,20.42.11,11.73-7.57,20.6-19.08,21.61-6.29.55-12.63.78-18.94.7-3.37,0-4.7.65-4.51,4.32.32,6.14,0,12.32.13,18.47.05,2.44-.49,3.44-3.26,3.53-12.07.42-12.07.53-12.07-11.67Z" transform="translate(0)"/><path class="cls-5" d="M309.75,713.19c.61,2,.8,3.77,1.63,5.12,1.52,2.47,3.67,4.82,6.88,3.62,2.9-1.09,3.14-4.06,2.92-6.81s-1.29-4.64-4.46-3.09-3.94-.42-4-2.78c0-2.16-4.16-5.45,1.46-6.39a6.74,6.74,0,0,0,2.7-1.22,3.27,3.27,0,0,0,1-4.82c-1.42-1.94-2.92-.54-4.12.61s-2.23,2.41-3.37,3.65c-4.6-6.3-4.93-9-1.53-11.89,4.32-3.66,11.18-3.22,15.39,1,.68.68,1.24,1.48,2.76,3.31-1.55-7,2.26-6.58,6.18-6.52,9.82.14,19.64.11,29.46,0,2.82,0,4.86,0,4.41,3.82-.33,2.7.72,6-4,5.1-3.48-.68-4,1.12-4,4.16.17,9.66-.17,19.32.17,29,.14,4-1.32,4.58-4.81,4.56-3.34,0-4.61-.65-4.51-4.33.27-10,0-20,.16-30,.06-3-1.07-3.52-3.73-3.48s-3.85.31-3.79,3.43c.2,10-.09,20,.17,30,.09,3.68-1.23,4.43-4.57,4.37s-5.5-.19-5-4.45a56.07,56.07,0,0,0,0-9c0-1.29.77-3.22-1.8-3.2-2.31,0-1.38,1.83-1.59,2.92-1.35,6.89-4.94,11.11-10.3,12-6.32,1-12.32-2.11-15.72-8.25-2.74-5-2.39-6.13,2.66-8.75Z" transform="translate(0)"/><path class="cls-6" d="M247.92,721c-10.26,2.23-16.52-2.72-16.78-12.61-.07-2.66,0-5.33,0-8,0-2.45.61-4.49-3.49-4.8-3-.23-.94-4.13-1.44-6.32-.4-1.76.72-2.25,2.34-2.25,16.81,0,33.61,0,50.42.06,4.18,0,1.76,3.46,2.17,5.31.36,1.68.56,4.06-2.45,3.48-4.79-.93-5.31,1.5-5.19,5.49.26,9.15-.1,18.31.17,27.45.11,3.69-.82,4.92-4.66,4.8-3.44-.11-5-.52-4.87-4.58.33-9.8,0-19.63.16-29.44,0-2.6-.34-3.82-3.41-3.81s-3.94.76-3.88,3.89c.22,10-.1,20,.18,29.94.11,3.66-1.42,4.11-4.36,3.92-2.59-.17-5.52.67-5-3.79A72.35,72.35,0,0,0,247.92,721Z" transform="translate(0)"/><path class="cls-4" d="M410.51,687c7.66,0,15.32.21,23-.1,3.66-.14,3.62,1.73,3.46,4.25-.14,2.29.93,5.45-3.35,4.7-3.89-.69-4.66,1-4.56,4.64.25,9.81-.13,19.63.19,29.44.14,4.2-2.29,3.47-4.74,3.53s-5,.48-4.62-3.62c.38-4.29,0-8.64.12-13,.06-2.15-.65-2.95-2.84-2.86-3.49.15-7-.07-10.48.09-2,.09-4.83-.45-4.51,3,.29,3,.13,6.6,4.2,7.57a8.81,8.81,0,0,0,3.47.06c4.09-.73,5.5.69,5.25,5-.18,3.12-1,3.82-4,3.86-13.29.16-16.9-2.92-18.09-16.07-.14-1.56-.12-2.65-2.1-3.27-2.6-.82-3.18-3.25-2.59-5.74.63-2.65,2.51-3.71,5.21-3.55,1.83.11,3.67-.09,5.49.05,3.19.23,5.12-.76,5.15-4.34s-1.35-5.11-5.08-4.8c-3.47.29-7-.17-10.47.13s-4.82-.57-4.8-4.49,1.21-4.67,4.8-4.53C395.87,687.23,403.19,687,410.51,687Z" transform="translate(0)"/><path class="cls-4" d="M182.33,687c7.32,0,14.66.24,22-.11,3.74-.17,4.07,1.51,3.85,4.37-.19,2.34.84,5.4-3.47,4.61-3.46-.64-4.5.78-4.41,4.3.24,9.82-.15,19.65.19,29.46.15,4.38-2.31,3.75-5,3.86-2.9.13-4.53-.2-4.42-3.91.29-10-.15-20,.21-30,.16-4.37-2.22-3.76-4.87-3.78-4.07,0-1.87,2.55-1.66,4.07,1,7-1.6,11.8-8.09,14.12-2.29.82-3.33,1.8-2.8,4.25s.42,5.52,3.8,6.27a16.07,16.07,0,0,0,3.48.15c4.81,0,6.79,2.85,5.17,7.34a2.08,2.08,0,0,1-1.76,1.4c-10.54,2.66-18.11-2.36-19.78-13.09-.42-2.74-.06-5.7-3.72-7.18-1.88-.75-1.5-3.51-.91-5.47a3.71,3.71,0,0,1,3.74-2.76c2.33-.05,4.67-.13,7,0,3.48.2,5-1.65,4.86-4.8-.11-2.77-1.28-4.64-4.68-4.34-3.14.29-6.32.07-9.48.06-4.67,0-6.71-3.19-5-7.58.71-1.83,2.13-1.25,3.33-1.26C167.35,687,174.84,687,182.33,687Z" transform="translate(0)"/><path class="cls-7" d="M349.27,90.17c-10,2.83-20.58-2.66-24.61-13.19a31.29,31.29,0,0,0-6.05-10.07C314.8,62.69,312,57.78,312,51.74c0-4.51.46-8,5.79-10.15,3.75-1.54,3.23-7,3.08-10.79-.22-5.78,2.47-9.22,6.9-12.27,3.81-2.62,7.61-3.33,11.7-1.4,3.43,1.63,7.23.31,10.68,1.94,6.53,3.09,10.59,8.47,13.92,14.46,1.84,3.34,3.38,4.27,6,.95a38.09,38.09,0,0,1,3.2-3.15c6-5.82,14.88-3.3,17.56,4.89,1.3,4,1,8.17,1.41,12.27,4.6-1.17,5.55-.3,4.64,4.22a12.74,12.74,0,0,1-3.18,6.14c-6.76,7.35-11.79,16-18,23.77-4,5-8.76,8.74-15.51,8.39-3.81-.2-4.4,1.51-4.24,4.73.19,3.8-.07,7.63-.13,11.44-3-1.12-2.31-3.85-2.15-5.91C354.05,96.73,353.29,92.86,349.27,90.17Z" transform="translate(0)"/><path class="cls-8" d="M419.49,275.51c-.57,12.44-2.14,25.28-6.67,37.59-10,27.06-30.47,41.83-57.44,48.84-10.18,2.65-20.5,4.31-31.08,2.18-10.07-2-13.39-8.44-8.49-16.78,6.34-10.81,7.1-22.52,3.54-34.67-4.42-15.12-9.39-30.08-11.68-45.78-4.21-28.88,6.6-46.95,34.1-56.75,4.16-1.48,9.91-.52,11.69-6.77.23-.8,4.59-2.08,5.49.4,1.47,4,4.69,3.67,7.59,4.16a89.84,89.84,0,0,1,18.67,5.14c20.09,8.08,30.92,23.27,33.67,44.45A76.25,76.25,0,0,1,419.49,275.51Z" transform="translate(0)"/><path class="cls-9" d="M220.92,386.64c-1.27-1.18-2.77-.1-4.13-.42a19,19,0,0,0-4.52-10.75c-1-1.24-2.36-2.44-1.58-4.37-.46-6.34-2.55-8.6-8.23-9.17a8.11,8.11,0,0,1-5-1.9,1.47,1.47,0,0,1,.76-.6c6.31-1.12,6.48-1.69,3.41-7.74-1.05-2.07-3.84-3.47-2.79-6.46.71.13,2.28,1.44,1.88-.26-.67-2.79-.6-6.76-5.5-6.3a3.65,3.65,0,0,1-3.39-1.47c3.92-.94,4.84-3.14,3.32-6.87-.85-2.08-1.38-4.34-2.09-6.51-.38-1.16-.51-2.42,1.45-2.05-.46-4-1.07-7.49-6.35-8.44-3.48-.63-5.31-4.27-6.84-7.48,2.09-.87,3,.79,4.06,2,1.35,1.47,2.66,2.94,5.13,3.54a20.22,20.22,0,0,0-2.27-12.83c-.61-1.13-2.39-2.18-.62-3.75.92.62,1.84,1.23,2.8,1.89.62-5.56.62-5.56-5-7.56,4.18-3.05,3.6-7.05,2.24-11.19-.59-1.83-2.19-3.51-.75-5.6l2.68,3.12c1.93-7,1.93-7-4.89-9.89a7.53,7.53,0,0,0,4.69-7.22,4.8,4.8,0,0,1,1.71-4c2.68-3.2,1.78-7.33,2.81-11,.64-2.27-2.32-1.76-3.17-3a2.24,2.24,0,0,1,.69-1.16c3.84-3.47,3.92-7.76,2.59-12.31-.5-1.72-1.8-3.19-1.57-5.14a1.43,1.43,0,0,1,.9-1c1.86,1.54,2.12,4.05,3.47,5.86,1.81,2.41.79-1,1.6-.88,1.57.53,1.77,2,2.25,3.29a3.86,3.86,0,0,1,0,2.86c-1.31,2.18.77,1.79,1.63,2.34-.6,3.37-3.26,6-3.4,9.64,3.26,2.34,6.11-3.05,9.39-.62-.73,4-4.13,4.75-7.15,4.74-3.75,0-4.78,1.69-5.3,4.91-.59,3.68,0,7.57-1.92,10.42a2.92,2.92,0,0,1,3-2.51c1.42,1.41.33,2.7-.19,4-2.62,6.7-2.14,7.59,4.36,8,.47,2.65-1.57,3.4-3.36,3.88-2.74.74-3.61,2.46-3.44,5.11,1.27-.68,2-2.6,3.9-1.92.91,1.36.21,2.54-.42,3.72-.47.88-1.07,1.68-1.48,2.59-2.49,5.57-1.08,8.11,4.7,8.54.78,1.37-.2,2.1-1.08,2.79-4.79,3.72-5,4.71-2.27,10,.34,1.32-.07,2.62-.07,3.93,0,5.93.78,7,6.18,8.38-6,2.14-6.11,6.3-3.79,11.22.39.83-.76,2.43,1.2,2.49,3.22,3.08,3.71,7.12,4,11.24-1.38,4.9,2.64,8.08,3.42,13.65l3.44-7.17c1.32,1.18,1.15,2.7.7,4.09-1.87,5.83.16,10.16,5,13.48-5,4,1.26,5.39,1.43,8.23,1.26-5.21,1.79-10.41,5.74-14.33,1.85,2,.16,3.73-.5,5.45-.94,2.5-1.94,4.95-1.93,7.67,0,4.95,2.21,8,7.22,9.94-.47,1.65-4.33,1.34-2.5,4.32-2.09.37-2,.33-2.81-.35C223.16,388.8,223,386.68,220.92,386.64Z" transform="translate(0)"/><path class="cls-10" d="M265.18,125.92c1.77,2,.3,4.5,1.05,7.06,9.48-7.92,18.1-16.88,29.69-21.67C284.07,120.93,272.18,130.43,261,142c4.92-.66,9.1-1.44,13.26-.08,1.85.6,3-1,4.39-1.91,6.79-4.52,13.64-8.93,21.83-10.52a13.79,13.79,0,0,1,5.06-.1c-11.71,2.64-21.31,9.18-30.84,15.87-.91-2.19-3-1.41-4.5-1.51-4.7-.3-9.31.28-13.08,3.58-.72.63-1.73,1.39-1.21,2.49s1.68.86,2.67.85c2.41,0,4.46-1.15,6.6-2.08,1.75-.77,3.51-2.19,5.53-.56L269,150c-2.88,1.56-5.28,4-8.85,4.27-3.33.29-6.56-.88-10.11-.49-.33-.2-.06,1.18.11.54,0-.13.17-.05.47,0a1.8,1.8,0,0,1,1.69,1.53c-2.16,2.85-6.47,2.47-8.43,5.62-.5.8-1.59,1.42-1,2.53a1.89,1.89,0,0,0,2.2.7c5.48-1.59,11.11-3,13.85-8.87,3.42-1.82,6.88-3.59,10.11-5.74,5.17-2.08,9.75-5.55,15.34-6.63a19.21,19.21,0,0,1,6-.25,67.89,67.89,0,0,0-26.07,13.55c2.84.37,5-1.84,8.59-1.06A61.73,61.73,0,0,0,247,174a2,2,0,0,1-1.63,1.52c-3.26-.38-6.64.41-9.8-1,.32-2.45.32-2.64,3.32-2.68,3.29,0,6.22-.63,8.33-3.3-9.61-1-11.56-.09-12.11,5.6-2.32,3.42-6.91,4.83-8.13,9.29,3,1.25,5.57-1.33,8.48-1a1.34,1.34,0,0,1,.85,1c-1.06,3.25-4.12,4.15-6.68,4.1a15.16,15.16,0,0,0-10.14,3.73c-3.22.25-4.71-.81-3.49-4.3.62-1.79-.77-4,1.12-5.62.52,1.15,1.05,2.3,1.84,4.05,1.21-2.7,6.33-3.48,2.29-7.61,5.53-3.39,7.66-8,5.43-14.4-.54-1.52-1.09-3.23.49-4.62,2.85,3.34,2.81,7.47,3,12.46,2.93-3.38,5.34-6.18,7.77-9,1-1.16-.26-1.68-.64-2.45,4.91-3.78,8.31-8.3,7.48-15a3.15,3.15,0,0,1,1.31-3c2.08,2.9.37,6.29,1.37,10.16,1.8-3.65,7.23-4,5.79-9.27,5.9-3.28,10.3-7.61,10.65-14.88A2.5,2.5,0,0,1,265.18,125.92Z" transform="translate(0)"/><path class="cls-11" d="M353.09,510c-4.65-.3-9.55-1.16-13.65-4.4-4.48-3.55-4.49-8.09-.18-11.82,6.81-5.88,22.11-6,29-.18,4.52,3.78,4.53,8.61-.2,12.16C363.81,509,358.76,509.94,353.09,510Z" transform="translate(0)"/><path class="cls-12" d="M217.13,181.48c-.82,2.62,1.51,5.32-.6,8.13-.93,1.24.72.45,1.27.32,2-.46.87,1.21,1.28,1.83a1.91,1.91,0,0,1,.47,1.89,2.44,2.44,0,0,1-.89,1c-3.92,2.58-4.78,7.18-7.12,10.79-4.59,7.09-7.36,15-10.42,22.78a3.72,3.72,0,0,1-.83,1.13c-1.45-.78-1-2.53-1.85-3.63.86-2.85,1.61-5.12-2-7.29-3.44-2.06-3.72-6.46-3.32-10.35.45-4.4,1-8.82,2.74-13,3-.26,3.72,2.8,5.77,3.93l2.08,3.87c2.41,5.33-.17,10.08-1.75,13.4.45-2.84,3.41-6.29,4.44-10.46l2.16-3.81c2.67-2.54,4.65-5.11.35-8l.07.07c-1.16-6-.08-11.65,2-17.23.81-1.55,2-1.27,3.24-.64C215.18,178,216.16,179.75,217.13,181.48Z" transform="translate(0)"/><path class="cls-13" d="M447,423.47A256.84,256.84,0,0,0,490.52,374c1-.47,1.1-1.56,1.62-2.37,1.94-3,3.28-1.95,4.32.73a4.89,4.89,0,0,1,.2,1.43c-1.49,4-5.6,6.44-6.68,10.73A132.51,132.51,0,0,1,471.52,408c-5.24,5.12-10.45,10.26-15.51,15.54a31.51,31.51,0,0,1-7.53,6.42C444.75,429.75,444.32,427.89,447,423.47Z" transform="translate(0)"/><path class="cls-14" d="M349.27,90.17c5.59.2,6.37,3.59,6,8.31a20.55,20.55,0,0,0,.63,8.7c.29,12.78.45,25.57.95,38.34.14,3.59-.74,5.73-4.77,6.22-1.52-14.2-1.82-28.44-2.2-42.68-.92-5.33.33-10.75-.68-16.08Z" transform="translate(0)"/><path class="cls-15" d="M512.91,188c.33.49.94,1,1,1.48.08,6,1.34,11.48,5.79,15.83-2.14.8-3.22-1-4.38-1.78-2.51,9.17-1.64,18.62-1.77,28-2.4,1.26-2.59-.9-3.13-2.18-1.14-2.69-.44-5.5-.36-7.69-2.19,5.25,1.92,10.2,2.29,15.67-2,7.46-.54,15-.18,22.42a3.91,3.91,0,0,1-1,2.12,1.24,1.24,0,0,1-1.41.1,12.09,12.09,0,0,1-2.32-6.11c0-.75.14-1.49.17-2.24,0-5.26.15-10.53,0-15.79-.11-3.47-.64-6.89-3.47-9.4a2.26,2.26,0,0,1-.41-1.4c.48-8.42-.09-16.62-4.82-24a6.13,6.13,0,0,1-.83-1.8c-.2-.8-.55-1.72.3-2.29,1.08-.74,1.83,0,2.44.85,3.81,5.4,6.38,11.23,6.26,16-.07-5.7-2.7-12.35-8-17.91a8.11,8.11,0,0,1-1.91-3.43,36.65,36.65,0,0,0-5.57-9.54l-.52.07c-2.08-4.41-6.17-7.23-8.82-11.19,2.71-.62,4.67.77,6.61,2.36,3.49,2.87,4.39,2.53,5.06-1.76.18-1.16.36-2.31,1.65-2.8-.86,15.7,10.88,26.8,14.57,41.3,2.3-4.44,3-11.16,1.77-14.89C512.19,194.73,510.39,191.16,512.91,188Z" transform="translate(0)"/><path class="cls-13" d="M518,352.56c-2.33,10.07-8.56,16.86-17.77,21.15-1.2-1.57-2.83-.52-4.26-.71l0,0c-3.15-6.07-1.41-11.25,2.89-16,2.09-1.44,4.07-3.05,6.24-4.39a10.74,10.74,0,0,1,1.2-.66,18.39,18.39,0,0,0,5.23-3.11c1.69-1,3.2-2.41,5.4-2.08C519.26,348.37,518.48,350.49,518,352.56Z" transform="translate(0)"/><path class="cls-16" d="M513,232.61a74.87,74.87,0,0,1,1.41-31.13l5.27,3.86c4.48,7.34,6.19,15.17,4.34,23.67a10.25,10.25,0,0,1-3.13,5.93c-.3.59-.62,1.26-1.41,1.08-1.15-.26-.93-1.14-.67-1.93a40.09,40.09,0,0,0,1.72-14.15,14.87,14.87,0,0,0-1-5.8c2,7.46.74,14.54-1.09,21.58-.64,2.44-2.09,1.33-3.41.77C513.71,235.53,512.12,234.72,513,232.61Z" transform="translate(0)"/><path class="cls-17" d="M495.53,171.67c-.87,1.54-.3,3.27-.63,4.85-.16.71,1.8,2.57-1.35,2.51-1.49,0-3.32,1.52-4.38-.39-1.58-2.87-4.45-3.47-6.95-4.77-.59-.66-1.42-1.19-1.27-2.26-1.19-2.81-3.21-5.28-3.56-8.45-1.44-2.93-3.14-5.72-4.52-8.67-.48-1-.85-2.22,0-3.24,1-1.21,2-.18,3.09,0,1.63.33,3,1.28,4.55,1.73a1.08,1.08,0,0,1,1.43.58c3.21,3.13,6.28,6.4,9.56,9.45A18.81,18.81,0,0,1,495.53,171.67Z" transform="translate(0)"/><path class="cls-18" d="M475.49,192A41.3,41.3,0,0,1,463,173.63c-.1-2.21-2.78-4.49-.85-6.43s4.21.7,6.41.86c7.66,3.6,13.19,9.08,15.48,17.44.74,1.88.38,3.91.83,5.84a2,2,0,0,1-1,2.53c-1.27.44-1.58-.9-2-1.7-1.55-3.08-2.37-6.5-4.36-9.36-1.48-2.63-3.9-4.46-5.85-6.69,1.88,2.21,4.24,4,5.75,6.52a42.19,42.19,0,0,1,3.8,8.42c.35,1,1.55,2.09.47,3.09s-2.1-.23-3.11-.61S476.6,192.37,475.49,192Z" transform="translate(0)"/><path class="cls-19" d="M220.14,226.53c2.77-3.18,5-6.88,9-9A79,79,0,0,0,214.33,245c3.51-.58,3.81-4.86,7.6-5.93-5.76,8.55-10,17.13-11.05,28l5.19-8c-1.2,5.74-4,10.85-5,16.54-1.84,9.88-1.3,19.9-1.95,29.84-.26,4-.67,7.92-3,11.35-1.63-1.73-1-3.73-.54-5.62a36.09,36.09,0,0,0,.52-14.74,47.92,47.92,0,0,1-.45-7.18c-.8-3.11-.3-6.17.45-9.19.55-2.16.36-3.87-2-4.76.23-3.5,3.08-5.94,3.71-9.35.31-1.66-1.23-.23-1.12-1-1.08-2,.14-3.78.77-5.58.85-2.45,2-4.85,1.14-7.56A86.9,86.9,0,0,1,213.14,238C215.71,234.35,216.26,229.42,220.14,226.53Z" transform="translate(0)"/><path class="cls-20" d="M488.94,216.26c1.42,1.32,4,0,5,2.23a56.91,56.91,0,0,1,10,10.18c2.24,2.12,2.75,5,3.27,7.81,0,3.84.44,7.68-.32,11.5a3.25,3.25,0,0,1-.93,1.33c-1.65.5-2.52-.06-2.51-1.83-1-7.3-3-14.21-7-18.93,3.75,4.74,6,11.51,6.86,18.79-.7,1.58-1.83,1.41-3.07.76-4.77-4.17-8.62-8.89-9.37-15.49-1.09-4.17-1.82-8.44-3.17-12.54l.07.12C487.79,218.76,486.07,216.87,488.94,216.26Z" transform="translate(0)"/><path class="cls-21" d="M511,261c-1.27-6.71-1-13.49-1.07-20.26,0-1.91-.09-3.81,2.68-3.64,1.68-1,2.68.3,3.82,1.11,2.36,4.43,3.71,9.26,5.53,13.91a4.45,4.45,0,0,1,1.14,3.62c.72,3.06,2,6.1.49,9.28-.72,2.15-.72,4.67-3.41,6.28-1.93-5.34.64-10.94-1.33-15,1.1,3.26.46,7.66.55,12,0,1.11.33,2.46-1.18,2.94a3.15,3.15,0,0,1-3.16-1A11.79,11.79,0,0,1,511,261Z" transform="translate(0)"/><path class="cls-22" d="M450.53,141.05c7.82,2.67,13.67,7.43,16.46,15.45,1.19,2.57.54,5.3-1.43,6.59-2.53,1.67-4.67-1.46-7.14-2-5.07-2.76-7.84-7.7-11.25-12-1.91-2.4-3.57-5-5.34-7.5-.44-3.07,2-2.1,3.14-1.86C446.82,140.12,448.71,140.48,450.53,141.05Z" transform="translate(0)"/><path class="cls-16" d="M533.51,237.05c2.27,2.89,3.3,6.31,4.14,9.81-.74,3.92.17,7.85,0,11.81a18.4,18.4,0,0,1-2.51,8.83c-.86,1.73-.94,4.18-3.74,4.2-3.4-1.41-1.06-3.86-.57-5.41a47.66,47.66,0,0,0,2.67-15.54,11.52,11.52,0,0,0-.73-4.65,33.24,33.24,0,0,1-4.85,25.19c-2.46-.46-2.75-2.48-3.19-4.4-1.5-10.19,2.14-19.64,4.26-29.32C530,232.85,531.85,236,533.51,237.05Z" transform="translate(0)"/><path class="cls-23" d="M511,261c1.75,2.56,2.1,5.91,4.53,8.09.71.64,1.32,1.73,2.41,1.4s.85-1.61.92-2.55c.37-5-.38-10-.78-15.07,2.88,5.47,1.48,11.33,2,17.14,2.35-1.38,1.11-4.37,2.85-5.9,2,1.81,1,4.46,1.89,6.58,1,3.1-.56,6.63,1.59,9.55.66,2.09-.38,3.88-1,5.73a34.08,34.08,0,0,0-2,14.5c2.13-2.73,1.3-6.38,3.75-8.56a1.17,1.17,0,0,1,1.26.32c1.22,2.18.83,4.44,0,6.58-.6,1.59-.1,2.41,1.25,3.05-1,2.56-6.07,1.39-5.3,5.66.45.25,1,.79.78,1.12a73.81,73.81,0,0,1-9.49,12.4c-.54.58-1-.4-1.38-.94.73-5.53-.67-11.06.09-16.58.95-1.23,1.71-.57,2.27.34,1.07,1.74.85,3.65.78,5.43a60.34,60.34,0,0,0-.19-8.89c.2-1.21.44-2.41.58-3.62.51-2.58,1.61-5.09,1.68-7.71.16-6.41.3-12.82-5.26-17.68a16,16,0,0,1-4.74-8,1.72,1.72,0,0,1,.61-1.32Z" transform="translate(0)"/><path class="cls-24" d="M498.52,155c7.48,4.6,11.21,11.64,13,19.94,0,3.34-.41,6.69.3,10,.07,1.42.1,2.83-1.59,3.43-2.06-.07-1.75-1.63-1.75-2.9a54.64,54.64,0,0,0-1.76-12.87,56,56,0,0,1,1.65,10.76c.11,1.51,1,3.81-.85,4.47s-2.5-1.72-3.66-2.8l0,.13c-1.82-2.83-2.37-6.23-4-9.15l.07.08c-.8-3.18-1.59-6.36-2.41-9.53a86.24,86.24,0,0,0-1.82-9C495.1,155.29,495.89,154,498.52,155Z" transform="translate(0)"/><path class="cls-20" d="M205.12,344.86l-4-11.23c2.05-3.07,2.5-7,5.35-9.62,2.3-1.9,4.12-4.32,6.52-6.12l-.12,0c2.71,0,2.61,2,2.64,3.85.09,5.31.25,10.63-1.36,15.79C212.41,341.52,210,344.66,205.12,344.86Z" transform="translate(0)"/><path class="cls-16" d="M210.69,371.1c1.72,3.47,4.85,6,6.27,9.71.74,1.95,1.34,3.64-.17,5.41-4.48,2.18-7.91-.35-11-2.91a35.61,35.61,0,0,1-9.8-12.72c-.77-1.76-.43-3,1.69-3,1.64-.05,3.33-.31,4.9.44C205.74,367.9,208.08,369.84,210.69,371.1Z" transform="translate(0)"/><path class="cls-25" d="M480.52,153l-7.44-1.71c1.7,4.23,3.24,8,4.78,11.85a1,1,0,0,1-1.42,0c-5.91-10.51-15.23-17.82-24.07-25.54-7.51-6.57-16.12-11.61-24.5-16.94-.35-2.34,1-2.13,2.5-1.65,11.49,5.35,21.48,12.93,30.87,21.3C467.08,145.5,473.88,149.1,480.52,153Z" transform="translate(0)"/><path class="cls-18" d="M514.91,321.31l9.42-13.77c2.17-1.56,4.14-3.51,7.06-3.58,2.54-.58,2.16,1.28,2,2.6-.24,1.91-1,3.73-1.37,5.62-1.27,3.38-1.9,7.07-4.5,9.85-2.17,3.43-4.59,6.61-8.89,7.42-2.51.48-3.48-.41-2.06-2.87a27.08,27.08,0,0,0,2.57-4.26c.31-.59-.27-.53-.28-.36-.12,1.67-1.22,2.94-2.07,4.32-.72.84-1.26,2.29-2.65,1.65s-1.24-2.17-1.16-3.51A4.16,4.16,0,0,1,514.91,321.31Z" transform="translate(0)"/><path class="cls-26" d="M198.86,345.23c2.18,3.4,4.94,6.49,5.89,10.54.33,1.44,2,3,.29,4.5-1.26,1.12-2.72.61-4.18.21a23.49,23.49,0,0,0-3.38-.45c-1.6-.21-2.5-1.38-3.42-2.52-3.1-4-5.33-8.58-8.55-12.49a1.12,1.12,0,0,1-.47-1.45c-.49-1.42-.9-2.81,1.25-3.19A23.74,23.74,0,0,1,198.86,345.23Z" transform="translate(0)"/><path class="cls-27" d="M517.09,326.13c-.18.8-.37,1.6-.59,2.52,5.08,0,7.42-4.35,11-6.62-.25,1-1.43,2.41,1,2,3-.48,5.86-1.07,7.28-4.23,1.35-3,3.9-3.59,7.14-3.14-5.77,2.11-7.64,6.9-9.42,12.07-2,5.72-5.84,10.46-9.89,14.84-2.51,2.71-4.78,5.34-5.66,9-.16-1.91.69-4.17-1.79-5.29-1.16.91-3.4-.25-3.85,2-1.48,2.36-3.93,3.07-6.39,3.76,1.43-5.31,3.86-10.42,3.12-16.15.75-2.93-.29-5.71-.69-8.55.48-4.07-.32-8.21.69-12.24a2.74,2.74,0,0,1,1-1.26c2.93,1.16,2,3.82,2.24,6s-.62,4.27-.38,6.31c.21-1.37-.17-3.23,2.15-3.48.17,1.19-.78,2.63.42,3.48.32.23,1.53-.76,2.33-1.19Z" transform="translate(0)"/><path class="cls-28" d="M220.92,386.64c.15-1.38.1-3,2-.94,1.39,1.51,1.47,4.28,4.23,4.49A234.13,234.13,0,0,0,259.3,424c1,.86,3.22,1.7,1.7,3.38-1.19,1.34-2.61-.23-3.77-1C242.13,415.87,230.26,402.41,220.92,386.64Z" transform="translate(0)"/><path class="cls-26" d="M191.12,254.36c-.3,1.93-1,3.88-.83,5.79.27,4.18-1.21,6.16-5.56,5.4-2.86-1.2-4.29-3.59-5.33-6.31-.38-5.05-2.44-9.9-1.83-15.07.16-1.41-.14-3.4,2.37-1.92A19.43,19.43,0,0,1,191.12,254.36Z" transform="translate(0)"/><path class="cls-29" d="M206.33,296c3.76,4,1.34,8.66,1.19,13-.08,2.59-.93,5.16-1.44,7.74-.14,1.54-1.27,2.33-2.36,3.14-6.06,1.39-5.94,1.36-7.41-5.29-.65-2.93.69-5.52.67-8.3C197.32,301.59,201.6,296.88,206.33,296Z" transform="translate(0)"/><path class="cls-30" d="M217.67,368.91c-4.54-.42-8.18-6.38-6.94-11.28.52-2.07,1.65-4,1.25-6.28a13.79,13.79,0,0,1,4.88-7.05c1.69-1.26,3.36-2.38,4.33.72l-.08-.08c.79,6.54,1.53,13.08-.06,19.61A6.07,6.07,0,0,1,217.67,368.91Z" transform="translate(0)"/><path class="cls-31" d="M229.63,385.87c-4.44.93-8.14-2.67-8.58-8.37a20,20,0,0,1,2-9.63c.71-1.63,2.11-3.05,1.79-5.06V363c3.62-3.42,4.05-3.31,5.5,1.36.28.9-.17,2,.83,2.7l-.08-.08c1.26,5.81,2.7,11.62-.14,17.4Z" transform="translate(0)"/><path class="cls-32" d="M186.93,272.31c1.12,4,3.64,7.41,3.25,12-.3,3.55-1.1,5.18-4.74,4.76l-1.4-.53c-6-5.62-7-13.28-8.47-20.76,1.05-4.37,3.39-.22,5-.76C183.36,268,185.21,270.09,186.93,272.31Z" transform="translate(0)"/><path class="cls-18" d="M222,213.58a34.66,34.66,0,0,1-11.93,14.31,3.08,3.08,0,0,1-2.39,2.17c-2.25.31-4.52.67-6.19-1.48.58-7.89,3.89-13.85,11.72-16.64a16.88,16.88,0,0,1,6-1.64C221.49,210.09,223.18,210.71,222,213.58Z" transform="translate(0)"/><path class="cls-18" d="M208.05,229.18l2-1.29a2.69,2.69,0,0,1,.8.54c1.94.83,4.94-1.45,6,2.06-.11,2.65-1.8,4.61-3,6.77-1.41,2.15-1.67,5.35-5.13,5.64a71.18,71.18,0,0,1-7.34,2.83c-2.43.66-4.09.37-3.48-3.19s2.83-6.23,4.34-9.29C202.69,229.77,205.86,230.18,208.05,229.18Z" transform="translate(0)"/><path class="cls-32" d="M194.53,321.77c-2.62,1.7.76,2.42.69,3.87-.08,1.71.83,3.45,1.28,5.18,1.8,6.82,1.8,6.82-4.65,6.38H192c-3-2.26-5.06-5.37-7.47-8.16-.7-1.07-1.62-2-1.47-3.46-.66-2.2-1.43-4.36-2.13-6.54-.42-1.33-1.09-3,1.32-3.3l-.15.05a80.72,80.72,0,0,1,9.5,4.25Z" transform="translate(0)"/><path class="cls-29" d="M187.64,294.77a28.71,28.71,0,0,1,4.6,15.39c.11,3.33-.94,3.09-3.28,2.39-3.6-1.08-4.29-5.38-7.62-6.7A6.73,6.73,0,0,1,181,305c0-.13,0-.31.09-.46-.82-3.14-2.24-6.1-2.75-9.36-.21-1.4-1.41-2.85-.19-4.1,1.35-1.4,2.67.45,4.06.49a4.17,4.17,0,0,1,1.4.45A7.68,7.68,0,0,1,187.64,294.77Z" transform="translate(0)"/><path class="cls-33" d="M468.51,168.06a6.07,6.07,0,0,1-1.92-.09c-4.31-1.75-5.41-.46-3.71,3.74a5.82,5.82,0,0,1,.07,1.92c-1.87-6.78-6.94-10.16-13-12.89a23.76,23.76,0,0,1-10.14-8.56c-7.28-11.06-17.1-19.22-28.73-25.34-.13-.81-.09-1.43,1-.83,11.94,4.88,21.93,12.11,28.47,23.52,2,3.58,5.29,5.86,8.75,7.87C455.63,161.08,461.47,165.65,468.51,168.06Z" transform="translate(0)"/><path class="cls-34" d="M246.14,141.94c-.43,5.78,1.31,12.16-4.84,16.32-1.27.85-2.3,1.87-4,1.69-3-2.54-2.82-5.79-1.78-9.08a32.68,32.68,0,0,1,5.92-10.8c3-2.85,3.56.29,4.69,2Z" transform="translate(0)"/><path class="cls-35" d="M232.09,193.62c-.22.84-.44,1.68-.65,2.52-.23,2.72-2.53,4-4.11,5.72-2.65,1.87-5.18,4-8.59,4.37-6.68-.34-7.56-1.91-4.18-7.59,1.08-1.81,2.26-3.58,4.3-4.51l.18-.06a7.62,7.62,0,0,1,5.93-3.33C227.44,191.46,231.31,188.73,232.09,193.62Z" transform="translate(0)"/><path class="cls-36" d="M265.18,125.92a17.24,17.24,0,0,1-7,15.39c-1.55,1.21-2.92,2-4.87,1.52-2.13-3.06-1-6,.46-8.83a44.81,44.81,0,0,1,9.06-11.61c2.57.06.91,2.88,2.38,3.66Z" transform="translate(0)"/><path class="cls-37" d="M509.85,337.21c1.34,5.93-.5,11.07-3.9,15.83l.05,0c-1.74,1.05-2.46,0-2.67-1.48a17.27,17.27,0,0,0-1.13-3.75A57.28,57.28,0,0,0,501.08,333c-6.67,8.67-10.67,22.08-9.73,32.5a2.08,2.08,0,0,1-.58,1.8,1.29,1.29,0,0,1-1.31-.32c-2.92-5-1.4-10-.08-14.94,1.72-6.43,5-12.24,7.76-18.24s4.45-12.12,3.92-18.75c1.75-.24,2,1.24,2,2.21-.4,7.42,1.9,14.41,3.17,21.55a7.11,7.11,0,0,1-.14,3.09C507.37,340.31,507,337.46,509.85,337.21Z" transform="translate(0)"/><path class="cls-30" d="M227.18,158.9c-.38,2.44,1,4.45,1.54,6.67,1.44,6.26-2.07,12-7.46,12.35l-1.18-1.4c-1.69-5.63.18-10.83,1.92-16.05.07-.84-.33-1.81.63-2.42,2.08-2.32,3.29-.45,4.58,1Z" transform="translate(0)"/><path class="cls-26" d="M270.71,148.07c-3.67.12-6.23,3.16-9.64,3.74-2.49.42-6.06,1.59-7.33-1.06s2.14-4.35,4-5.49a18.79,18.79,0,0,1,16.12-2c.46.15.59,1.35.87,2.06A9.25,9.25,0,0,1,270.71,148.07Z" transform="translate(0)"/><path class="cls-38" d="M509.85,337.21c-1.43,3-2.86,6-4.9,10.29.22-7.73-.51-13.79-2.84-19.72-.83-2.08.2-4.86.15-7.32-.05-1.83.88-4-1.2-5.37,1.86-1.18,1.56-3.51,2.7-5.07,2,1.53,1.43,3.78,1.54,5.81.14,2.73-.28,5.52,1.15,8.05.64,1.65,1.95,3.06,1.77,5C512,331,510.85,334.13,509.85,337.21Z" transform="translate(0)"/><path class="cls-39" d="M498.52,155c-2.4,0-2.55,1.19-2,3.27.72,2.85,1,5.82,1.46,8.74-.27.48-.53.48-.79,0-.54-11.81-6.64-20.32-15.72-27.33-6.67-5.15-12.95-10.83-19.43-16.29,1.3-1.18,2.06.28,2.83.77,9.25,5.91,18.07,12.33,25.56,20.46C493.41,147.92,494.37,152.72,498.52,155Z" transform="translate(0)"/><path class="cls-9" d="M190.76,240.35c-6.09-3.35-5.78-9.18-5.45-14.8.24-4.13,1.08-8.23,1.72-12.33,1.59-10.25,1.83-20.42-1.81-30.42,3.45,3.65,4.54,8.13,4.79,12.74.29,5.63.82,11.39-.77,16.88-1.28,4.39,3.22,5.36,4.13,8.34l-.38.32c-1.58.69-2.62-1.18-4.08-1-2.23,7.07-.67,13.57,2.17,19.93Z" transform="translate(0)"/><path class="cls-40" d="M183.57,292.05a8.14,8.14,0,0,1-2.44-.17c-3.46-1.37-3,.27-2.49,2.73.65,3.37,2.62,6.4,2.41,10-3.42-6-4.18-12.77-6-19.24-2.54-9.16-6-17.83-12.15-25.21a3.38,3.38,0,0,1-.77-2.13c3.34,1.74,5.41,4.6,7.32,7.59A58.18,58.18,0,0,1,177,283.82C177.93,287.85,179.67,290.66,183.57,292.05Z" transform="translate(0)"/><path class="cls-41" d="M510.07,262.12c-.05.37-.11.74-.16,1.11a65.84,65.84,0,0,0,.85,22.22c.79,3.72,1.53,7.64-2.15,10.55a1.47,1.47,0,0,1-1.61,0c2.05-7.36-.12-13.77-4.94-19.7,2.42-.28,2.74,2.06,4.74,2.47a129.72,129.72,0,0,0-1.86-25.39c-.53-2.77-3.13-3.51-4.63-5.31,1-.1,2.11.14,2.67-1,.31-.46.63-.46.94,0,.1,1.36,1,1.85,2.21,2,.91,2.18,1.84,4.35,2.88,6.47a2.65,2.65,0,0,1-.74.47c-1.24,2.47,1,4,1.63,5.95Z" transform="translate(0)"/><path class="cls-42" d="M179.94,242.25c-2.83.05-1.69,2.21-1.88,3.61-.65,4.56,2.28,8.77,1.34,13.38-2.45-5.63-2.45-11.67-2.81-17.61-.74-11.95-2.21-23.69-8.81-34.17,4,2.77,6.31,7.16,8.33,13.87S177.49,235.5,179.94,242.25Z" transform="translate(0)"/><path class="cls-43" d="M214.16,337.51c.18-4.88,1.23-9.69.9-14.61-.13-2,0-4-2.18-5,.34-8.12-.84-16.32,1.13-24.37,1.07-4.37,2.58-8.54,5.57-12.14.17.43.46.78.37,1-5.45,12.28-5.67,25.06-4.1,38.14C216.54,326.17,217,332.06,214.16,337.51Z" transform="translate(0)"/><path class="cls-44" d="M436,677.61c-.38,3.46-1.66,6.07-5,6.12-3.57,0-5.19-2.39-5.18-5.87,0-3.25,1.56-5.59,4.82-5.79C434.49,671.84,435.27,675,436,677.61Z" transform="translate(0)"/><path class="cls-45" d="M231.18,367c-1.06-.45-1.17-1.46-1.35-2.39-.67-3.56-2.43-3.77-5-1.67,1.61-2.45,1.54-4.87.73-7.73-2.5-8.75-5-17.57-2.68-26.83.2-.8.35-1.62.6-2.4a5.43,5.43,0,0,1,1.24-2.16c.58,5.15-1.08,10.2-.33,15.37A128.59,128.59,0,0,0,230,361.26C230.57,363.09,231.6,364.92,231.18,367Z" transform="translate(0)"/><path class="cls-46" d="M182.22,315.74c-2.74,3.53,1.78,6.46.81,9.84-2.26-3.33-3-7.26-4.35-11-4.05-11.18-8.77-22-17.71-30.39,5.7,2.6,9.1,7.29,12.22,12.31C177,302.59,178.74,309.56,182.22,315.74Z" transform="translate(0)"/><path class="cls-47" d="M202.6,368c-2.22.8-5.85-2-6.59,2.58-2.44-3.52-4.93-7-7.33-10.57a70.84,70.84,0,0,0-20.32-19.57c5,.76,8.82,3.82,12.45,7A51.56,51.56,0,0,1,191.34,360C194,364.57,197.35,367.44,202.6,368Z" transform="translate(0)"/><path class="cls-48" d="M416.52,101.46c8.75-.75,30.69,9.41,42.28,19.57C445.17,114,431.88,106.3,416.52,101.46Z" transform="translate(0)"/><path class="cls-49" d="M226.72,201a15.62,15.62,0,0,1,4.72-4.82c3.85-4.2,7.71-8.39,13.68-9.88-10.41,6.88-16.53,17.29-23.09,27.32,0-1.86-.72-2.8-2.77-2.2s-4.14,1.08-6.21,1.61a1.44,1.44,0,0,1-.09-1.35,3,3,0,0,1,1.94-1.42C220.74,209.54,223.85,205.42,226.72,201Z" transform="translate(0)"/><path class="cls-47" d="M221.19,345c-1.16-1.95-2.86-.61-4.33-.72,2.67-2.78,1-6,.69-8.94-.86-9.1-1.64-18.15,2.27-26.84a4.61,4.61,0,0,1,2.76-2.91C216.9,319.08,219.5,332.05,221.19,345Z" transform="translate(0)"/><path class="cls-50" d="M180.58,267.05c-1.35,1.07-3.67-2.29-4.53,1-.29.45-.57.45-.85,0-1.9-12.6-4.12-25.1-12.37-35.56,5.66,3.48,9.65,10.64,12.13,21.22.52,2.25.86,4.55,1.26,6.83C176.71,263.35,177.59,265.9,180.58,267.05Z" transform="translate(0)"/><path class="cls-51" d="M232.09,193.62c-2.29-3.27-5.68-.81-8.45-1.62.34-2,2-2,3.39-2.05,4.65-.1,7.19-3,9.2-6.66L236,183c1.3-5,5.6-6.42,9.71-8L247,174c3.18-.07,5.27-3.38,10.24-2.79C245.56,176.31,239,185.19,232.09,193.62Z" transform="translate(0)"/><path class="cls-52" d="M186.29,340.38a4,4,0,0,0-1.25,3.19c-2.4-4.12-4.75-8.27-7.2-12.37A67.4,67.4,0,0,0,161,312.35c3.91.49,6.58,3,9.19,5.51,5.48,5.18,9.35,11.57,13.09,18C184.19,337.44,184.63,339.33,186.29,340.38Z" transform="translate(0)"/><path class="cls-53" d="M216,231.51c.17-4.11-3.71-1.53-5.09-3.08,4-.09,5.86-2.51,7.65-5.82,4.55-8.43,9.71-16.46,19.18-20.47C230.21,208.53,224,215.92,220,225,218.7,227.18,218.79,230.23,216,231.51Z" transform="translate(0)"/><path class="cls-54" d="M201.59,199.06l-5.77-3.93c.76-4.21,1.36-8.46,2.32-12.63,1.65-7.12.4-14.08-.67-21.11,3.68,5.45,3.95,11.57,3.4,17.79a57,57,0,0,1-1.58,9.27C198.27,192.46,198.09,196.11,201.59,199.06Z" transform="translate(0)"/><path class="cls-55" d="M523.82,271.07c-1.62-2.14-.6-4.62-.91-6.94,1.73-2.74-1.92-5.63.21-8.37,1.81.07,1.56-1.35,1.7-2.42,1.47-11.35,6.91-22,5.32-33.91,2.5,5.71-1,12.35,3.37,17.62l-3.24-1.46c-3.1,10.51-6.23,20.94-4.34,32.07a1.62,1.62,0,0,1-1.17-.83,5.25,5.25,0,0,1-.39-1.23C524,266.94,526.15,269.35,523.82,271.07Z" transform="translate(0)"/><path class="cls-56" d="M522,252.14c-1.87-4.34-5.79-7.8-5.56-13-1.31-1.14-2.45-2.37-2.28-4.29,2.82,2,3.93,1,4.52-2.15,1.22-6.53,2.18-13,.6-19.63,2.68,6.75,2,13.57.43,20.4-.27,1.16-1.18,2.52,1.17,1.49C518.65,240.84,521.83,246.39,522,252.14Z" transform="translate(0)"/><path class="cls-57" d="M450.53,141.05c-2.84,1.23-6-3-8.7.53L416,122.48a47.63,47.63,0,0,1,18.35,10.57c3.84,3.49,7.46,6.77,13,6.78A3.7,3.7,0,0,1,450.53,141.05Z" transform="translate(0)"/><path class="cls-24" d="M529.64,301.88l-3.56.45c1.25-3.52,2.19-6.8,2-10.27a3.32,3.32,0,0,1,0-1.47c.94-2.7,2.29-6.16,5.35-5.31,2.87.8.91,4.35.65,6.54a17.74,17.74,0,0,1-1.1,4.76C532.77,298.91,531.35,300.49,529.64,301.88Z" transform="translate(0)"/><path class="cls-58" d="M246.18,142.05c-1.41-1-2.07-3.82-4.69-2,3.25-5.55,7-10.77,9.78-16.64,2.11-4.49,2.5-9.42,4.3-15.12,1.35,6.75-.54,11.79-2.76,16.68a61.65,61.65,0,0,1-5.3,9.49C245.83,136.93,245,139.24,246.18,142.05Z" transform="translate(0)"/><path class="cls-59" d="M227.21,159c-1.45-.68-2.73-2.16-4.58-1,4.28-10.06,8.45-20.15,7.5-31.51,2.85,5.2,1.76,10.5.48,15.69a70.94,70.94,0,0,1-3.49,10.3C226.16,154.82,226,156.87,227.21,159Z" transform="translate(0)"/><path class="cls-60" d="M533,296.58c-.49-3.62,1.94-7,.69-10.85-3.32.82-3.69,4.27-5.57,6.33l-.19-.17c-1.57-2-.27-3.71.72-5.38a12,12,0,0,1,2.62-2.93,6.64,6.64,0,0,0,2.32-6.63c-.58-3.17-3.57-.31-4.86-1.82a2.79,2.79,0,0,1-.25-2.83c.77-1.42,2.41-.32,3.39-1.15,1.91-.27,1.34-2.1,2-3.17,1.18-.62,1.54.32,2,1.06-.51,7,.9,14.13-.74,21.15C534.58,292.4,534.48,294.71,533,296.58Z" transform="translate(0)"/><path class="cls-10" d="M265.21,126.05c-1.62-.68-1.13-2.74-2.37-3.66,6.6-7.84,13.33-15.6,15.86-27,.75,5.11.42,7-2,11.6a65.09,65.09,0,0,1-9.82,13.75A6,6,0,0,0,265.21,126.05Z" transform="translate(0)"/><path class="cls-61" d="M214.2,176.3c-.83.82-1.49-.28-2.26-.2a.59.59,0,0,1-1-.1c2.87-9.89,5.79-19.77,3.56-31.14,3,4.2,3.3,10.86,2.23,17.57C216,167.07,212.94,171.31,214.2,176.3Z" transform="translate(0)"/><path class="cls-62" d="M489.46,367H491a65.79,65.79,0,0,1,6.24-11,2.62,2.62,0,0,1,1.91-.64,2.16,2.16,0,0,1,1.18.67,1.11,1.11,0,0,1-.2,1.26C496,361.85,494.38,367,496,373c-2.81-5-3.43,1.82-5.46,1C491.8,371.45,490.81,369.21,489.46,367Z" transform="translate(0)"/><path class="cls-63" d="M507,296h.87c.1.12.31.25.3.37-.45,5.64-.5,11.2,2.5,16.34.38.66-.08,1.59-.7,2.21l0,1.07c-2.51.16-2.09-2.51-3.39-3.48-1.52,4.31,1.6,8.85-.62,13.14-3.25-4.86-1.79-10.38-2.17-15.65C504.64,305.31,505,300.48,507,296Z" transform="translate(0)"/><path class="cls-64" d="M535.84,269l-2-1.06c3-4.69,3.48-9.9,3.26-15.3-.08-1.93-.69-4,.56-5.82a39.79,39.79,0,0,1,.24,14.27l5.39-3.07C540.64,261.69,537.13,264.59,535.84,269Z" transform="translate(0)"/><path class="cls-65" d="M495.72,216.25c-2.16-3.42-1-8-3.94-11.16.16-.6.76-.75,1.16-1.1q-.94-9.47-1.91-18.93l-.11,0c3.3,2.17,4.24,5.95,6.21,9-2.07,1.16-1.85,3.1-2,5.1-.29,5.43,2.08,10.58,1.53,16A2,2,0,0,1,495.72,216.25Z" transform="translate(0)"/><path class="cls-66" d="M475.49,192c2.1-.39,3.49,1.73,5.69,1.61-.51-4.23-3.27-7.53-4.26-11.46l.18-.19c3.68,2.79,3.39,7.91,6.89,11.88V185.5c1.49,3.08,2.28,6.25,1.16,9.65-.74.37-1.12,1.61-2.29.94C480.11,195.27,477.43,194.33,475.49,192Z" transform="translate(0)"/><path class="cls-67" d="M430.37,119c-1.14.08-2.16.35-2.5,1.65l-18-10.42.36-.39A79.19,79.19,0,0,1,430.37,119Z" transform="translate(0)"/><path class="cls-68" d="M503.87,185.08c1.54.14,1.95,2.26,4,2.14.05-6.25-1.15-12.25-2.5-18.28,2.57,4.36,3.35,9.16,3.64,14.13.09,1.6-1,3.8,1.58,4.61.32,1.49.65,3-1.58,3.23C508,188.35,504,188.47,503.87,185.08Z" transform="translate(0)"/><path class="cls-69" d="M532,312.18c-1.32-2.65,3.07-5.74-.62-8.22a6.71,6.71,0,0,0,3.59-4.31c.82-3.4,3.42-4.43,6.91-4.27C534.66,298.79,534.75,306.29,532,312.18Z" transform="translate(0)"/><path class="cls-70" d="M509,190.91c1.42-.64.66-2.33,1.58-3.22l.33-2.14c2.95-1,.57,2.37,2.08,2.56l-.11-.07c0,3.38,1.19,6.88-1,10C510.16,196,509.7,193.41,509,190.91Z" transform="translate(0)"/><path class="cls-15" d="M503.69,229.37A51.83,51.83,0,0,1,494,218.49c3.57,1.57,1.33-1.36,1.74-2.24l.3-.2c4,2.68,5.66,7,8,10.94l-.1.16C503.37,227.85,504,228.65,503.69,229.37Z" transform="translate(0)"/><path class="cls-71" d="M456,423.56A67.88,67.88,0,0,1,471.52,408,89.45,89.45,0,0,1,456,423.56Z" transform="translate(0)"/><path class="cls-72" d="M175.2,268h.85c1.42,7.33,3.24,14.5,8,20.53-4.54-2.42-5.9-6.88-7.07-11.36C176.19,274.21,175.78,271.1,175.2,268Z" transform="translate(0)"/><path class="cls-73" d="M496,373l4.08-2.92c1,1.22-1.8,2.63.17,3.63-5.26,1.87-6.58,7.46-10.22,10.85-.59-2.93,1.58-4.46,3.09-6.41C494.26,376.6,495.72,375.12,496,373Z" transform="translate(0)"/><path class="cls-74" d="M221.05,364.55l.06-19.61C222.93,351.48,224.32,358,221.05,364.55Z" transform="translate(0)"/><path class="cls-75" d="M206.36,205.87c.27,4.9-3.75,8.1-5,12.51,1.1-5.15,3.39-10,2.27-15.45C204.83,203.68,203.29,206.88,206.36,205.87Z" transform="translate(0)"/><path class="cls-76" d="M458.42,161.07a9.8,9.8,0,0,1,1.9.33c5.16,1.93,6.4,1,6.67-4.9,1.5,1.87,1.62,4.19,2.07,6.4a.68.68,0,0,1,.21.79c-.12.23-.22.34-.33.34C465.1,164.24,461.28,164.36,458.42,161.07Z" transform="translate(0)"/><path class="cls-77" d="M210.92,176l1,.1c-2.59,5.76-3.19,11.85-3,18.07C206.16,187.74,208.59,181.88,210.92,176Z" transform="translate(0)"/><path class="cls-78" d="M185.51,345c4,3.36,6.43,7.83,8.55,12.49C190.13,354.09,187.8,349.57,185.51,345Z" transform="translate(0)"/><path class="cls-45" d="M231,384.33c2-5.79.55-11.6.14-17.4C233.73,372.75,234.4,378.56,231,384.33Z" transform="translate(0)"/><path class="cls-79" d="M216,231.51l4-6.53.15,1.55-5.92,11.72c-.66,0-.76-.52-1-.94Z" transform="translate(0)"/><path class="cls-80" d="M482.86,196.09l2.29-.94c1.34,4,4.54,6.47,7.79,8.84,0,.81-.39,1.14-1.16,1.1C488.23,202.66,485.82,199.1,482.86,196.09Z" transform="translate(0)"/><path class="cls-81" d="M488.94,216.26c-1.54,1-.66,2.64-1.1,3.93l-4.11-11.4.83-.44Z" transform="translate(0)"/><path class="cls-82" d="M491.51,163a28.24,28.24,0,0,1-9.56-9.45A25.58,25.58,0,0,1,491.51,163Z" transform="translate(0)"/><path class="cls-59" d="M222,160.47c-.75,5.34-2.84,10.51-1.92,16.05C217.39,170.77,219.29,165.57,222,160.47Z" transform="translate(0)"/><path class="cls-67" d="M409.86,110.22l-11.29-3.12a16.86,16.86,0,0,1,11.65,2.73Z" transform="translate(0)"/><path class="cls-7" d="M349.15,93c1.2,5.32.86,10.71.68,16.08C348.37,103.75,348.9,98.36,349.15,93Z" transform="translate(0)"/><path class="cls-83" d="M208.87,194.1c1.6.46,2.84,3,5.13.42-2.17,2.66-2.08,6.38-5.48,7.54C210.56,199.49,211.09,196.86,208.87,194.1Z" transform="translate(0)"/><path class="cls-81" d="M487.77,220.07a27,27,0,0,1,3.17,12.54A34.12,34.12,0,0,1,487.77,220.07Z" transform="translate(0)"/><path class="cls-84" d="M184.5,329c3.18,2.08,5.21,5.23,7.47,8.16C187.88,335.94,186.22,332.46,184.5,329Z" transform="translate(0)"/><path class="cls-15" d="M513,188.11c-1.28-.37-.3-2.58-2.08-2.56.21-3.52-.66-7.1.59-10.57Q512.27,181.55,513,188.11Z" transform="translate(0)"/><path class="cls-85" d="M476.44,163.12l1.42,0c.43,3,3.15,5.24,3.09,8.46l-4.22-3.42.32-.44C479,165.92,476.3,164.71,476.44,163.12Z" transform="translate(0)"/><path class="cls-86" d="M412.08,126l-1,.83c-2.71-1.25-5.63-2.12-9-5.2A39,39,0,0,1,412.08,126Z" transform="translate(0)"/><path class="cls-87" d="M468.94,164l.12-1.13,8,4.85v.34l-.33.09A18.47,18.47,0,0,1,468.94,164Z" transform="translate(0)"/><path class="cls-46" d="M191.57,320c-3.52-.64-6.52-2.41-9.5-4.25C185.83,315.88,188.83,317.68,191.57,320Z" transform="translate(0)"/><path class="cls-88" d="M447,423.47c-.27,2.35-3.22,5.31,1.5,6.51-1.13,1.2-2.74,2.09-3.39.08C444.34,427.74,443.17,424.72,447,423.47Z" transform="translate(0)"/><path class="cls-89" d="M499.83,176.06c2.45,2.57,3.17,5.88,4,9.15A15,15,0,0,1,499.83,176.06Z" transform="translate(0)"/><path class="cls-89" d="M497.16,167.05c.26,0,.52,0,.79,0,1.12,2.93,2.26,5.86,1.95,9.09C498,173.4,498,170.11,497.16,167.05Z" transform="translate(0)"/><path class="cls-43" d="M213,317.89a15.4,15.4,0,0,1-6.52,6.12A12.8,12.8,0,0,1,213,317.89Z" transform="translate(0)"/><path class="cls-1" d="M409,452c-7.17-.37-13.1-6.08-18.61-12.48-1.18-1.37-.38-2.41.54-3.47,10.37-12,26.32-18.7,40.21-.44,1.63,2.16,1.48,3.47-.28,5.45C424.45,448.25,417.67,452.14,409,452Z" transform="translate(0)"/><path class="cls-90" d="M358.2,452.27c-9.31-.09-15.12-5.22-20.62-10.9-1.42-1.47-.08-2.48.78-3.34a81.1,81.1,0,0,1,7.6-7.13c11.81-9.08,23-7.27,31.57,5,.73,1,2,1.91.7,3.42C372.74,445.91,366.89,451.92,358.2,452.27Z" transform="translate(0)"/><path class="cls-1" d="M303,427.6c9.6.16,15.79,5.32,21.52,11.31a1.92,1.92,0,0,1,.3,2.6c-4.62,8.81-19.19,14.78-28,11.26-5-2-9-5.56-12.63-9.5-1-1-1.65-2-.55-3.45C288.7,433.16,294.67,427.92,303,427.6Z" transform="translate(0)"/><path class="cls-91" d="M497.76,704.62c-.28,3.23,1,7-2.15,10-2.16,2.08-4.53,3.31-7.55,2.9a3.58,3.58,0,0,1-3.35-3.11c-.45-2.46,1.39-2,2.72-2.43,5.5-1.81,7.42-5.83,6.47-13.21-.16-1.2-1.6-2.93,1.31-2.93,1.89,0,2.71.56,2.58,2.54S497.76,702.35,497.76,704.62Z" transform="translate(0)"/><path class="cls-92" d="M467,712a14.51,14.51,0,0,1,6.18,4C469.57,716.68,467.94,715.4,467,712Z" transform="translate(0)"/><path class="cls-1" d="M278.93,818.9c-2.7-.39-8.15,2-10.52-.82-2-2.35-.26-7.65-.71-11.59-.53-4.67.76-6.53,5.8-6,5.44.57,11,.15,16.47.47,6.19.35,9.89,3.92,9.88,9.08s-3.78,8.56-10,8.84C286.66,819,283.49,818.9,278.93,818.9Z" transform="translate(0)"/><path class="cls-1" d="M279.62,773.13a89,89,0,0,1,9.94.07c4.14.48,7.26,2.55,7.42,7.23s-2.5,7.16-6.69,7.93c-6.9,1.26-13.9.34-20.86.55-1.3,0-1.7-.71-1.65-1.87,0-.66,0-1.33,0-2C267.58,772.92,267.58,772.92,279.62,773.13Z" transform="translate(0)"/><path class="cls-93" d="M507.84,773c3.53.27,7.7-.43,11.79.66,4.53,1.2,6.66,4.13,6.35,8.75-.29,4.42-2.78,6.91-7.1,7.64-6.93,1.16-13.92.49-20.87.74-2.4.09-2.72-1.17-2.69-3.08.06-3.81.16-7.64,0-11.45-.13-2.7,1-3.46,3.49-3.3C501.59,773.17,504.42,773,507.84,773Z" transform="translate(0)"/><path class="cls-94" d="M343.54,783c0-10.07,0-10.12,10.1-9.95a50.65,50.65,0,0,1,8.88.8c5,1,7.63,4.29,7.65,8.94s-2.71,8-7.5,9.14c-5.56,1.32-11.22.73-16.84.89-1.75.06-2.33-.73-2.3-2.36C343.59,788,343.55,785.52,343.54,783Z" transform="translate(0)"/><path class="cls-95" d="M333.26,701.73c0,6-1.3,7.28-5.2,5.31-1.87-.95-2.86-2.06-1.8-4.3a7.32,7.32,0,0,0,.79-3.83c-.41-3.07,1.36-2.94,3.53-3.09,2.89-.2,2.78,1.5,2.68,3.42C333.22,700.07,333.26,700.9,333.26,701.73Z" transform="translate(0)"/><path class="cls-96" d="M247.94,703.31c-.31,3.7,1.5,9.45-4.32,9.25-5.52-.18-2.78-5.9-3.44-9.25a20.61,20.61,0,0,1,0-2.49c-.22-3-.31-5.19,4.15-5.13s3.58,2.63,3.63,5.12C247.94,701.64,247.93,702.47,247.94,703.31Z" transform="translate(0)"/><path class="cls-97" d="M412.41,696.25c2.68,1,6.81-3.11,7.35,2,.22,2.08,2.42,5.94-2,6.71C409.43,706.39,415.32,698.55,412.41,696.25Z" transform="translate(0)"/><path class="cls-98" d="M356.24,89.14c-3,1-6.18-1.52-9.75-.52-1.65.46-2.13-1.8-2.65-3.12-2.92-7.41-5.77-14.85-8.61-22.29a3.94,3.94,0,0,1-.27-1.94c1.24-8.09,13.91-14.55,20.83-10.54,1.94,1.12,3.73.81,5.73.64,11.52-1,22.31,12.28,18.21,22.36C376.11,82.62,366.4,89.12,356.24,89.14Z" transform="translate(0)"/><path class="cls-3" d="M323,29c2-8,9-12.09,15.66-9.93,1.11.35,2.23,1,3.32,1,11.88-.49,16.38,8.48,21.59,16.62,1,1.53.16,2.2-.66,3.37-3.44,4.89-6.3,8.83-14.05,7.08-3.69-.83-4.92-1.16-6-4.47-2.24-6.64-7.18-12-9.61-18.56-.9-2.45-2.68-1.52-4-.51C327.19,25.06,325.41,26.81,323,29Z" transform="translate(0)"/><path class="cls-3" d="M358.43,49.65c2.72-4.27,4.42-7.75,8.46-9.92,3.11-1.67,5.42-4.82,8.09-7.31,4.29-4,10.06-3,12.92,2.31,2.27,4.24,2.5,8.92,2.16,13.61-.2,2.82-3.32,2.92-4.75,4.69-1.65,2-3.43,4.68-5.66,5.31-1.18.34-3.34-3.08-5.2-4.64C370.16,50.12,365.16,48.75,358.43,49.65Z" transform="translate(0)"/><path class="cls-11" d="M342.77,88.21c-7.18-.59-12.45-3-14.88-9.28a54,54,0,0,0-9.32-15.68,19,19,0,0,1-4.49-13.92c.16-2.09.63-4.14,2.73-5,2.63-1,2.44,2,3.65,2.82,4.48,2.9,7.4,6.92,10.08,11.36C336,67.62,338.08,78,342.77,88.21Z" transform="translate(0)"/><path class="cls-11" d="M333.47,59.16c-3.38-4.66-5.77-9.94-11-12.74-.7-.38-1.06-1.68-1.29-2.63-1.22-5.07,3.73-15.6,8.38-18.11,1-.54,1.7-.9,2.38.39,2.95,5.58,6.05,11.08,8.89,16.71,1.88,3.75,1.76,7.19-2,10.16C336.82,54.56,335.37,56.92,333.47,59.16Z" transform="translate(0)"/><path class="cls-99" d="M395.24,50.68C393.51,59,386,62.87,382.59,70.05,379.29,60,382.93,54.56,395.24,50.68Z" transform="translate(0)"/><path class="cls-100" d="M334.29,363a31,31,0,0,1-11.58-1.21c-7.18-2.19-9.13-6.21-5.52-12.74,6.77-12.25,7.59-24.92,3.66-38.12-1.8-6.05-3.69-12.07-5.42-18.14-3.75-13.13-6.95-26.29-6.59-40.15.4-15.83,7.85-27.14,21.14-35a78.93,78.93,0,0,1,18.45-7.48c2.41-.69,4.73-1,5.81-3.92.77-2.07,2.81-2,3.73,0,1.1,2.4,2.85,2.64,5.12,3a103.06,103.06,0,0,1,21.18,5.47c18.49,7.33,29.51,21,32.33,40.42,3.07,21.23.86,42.12-7.62,62.07C399.46,339.62,381.56,352.14,359,359,351.09,361.35,343,363.44,334.29,363Z" transform="translate(0)"/><path class="cls-21" d="M208.33,252c2.65-.08,2.27,1.33,1.82,3.21-.83,3.54-3.21,6.6-3.14,10.39.55,4-1.71,6-5.1,7.29-.32,0-.65.06-1,.07-2.23.08-4.67,3.42-6.19,1.26-1.71-2.42-1.09-6,.21-9,.71-1.63,2.39-2.82,2.23-4.85C199.54,255,203.81,251.73,208.33,252Z" transform="translate(0)"/><path class="cls-17" d="M203.29,275c4.21-1.4,5.45-.32,4.36,4.24-.63,2.61-2.65,5.37-.71,8.29-1.17,2.86-.55,6.95-5.15,7.43a4.13,4.13,0,0,1-.5,0c-2.36-.1-5.55,3.1-6.59.86a12,12,0,0,1,.4-10.47c1.07-2,3.08-3.52,3.1-6.06C198.83,276.64,200.06,274.65,203.29,275Z" transform="translate(0)"/><path class="cls-101" d="M208.33,252c-4.75,1.43-8.07,4.76-11.15,8.39l-3.72,3.93c.24-3.16.25-5.86.7-8.47.79-4.52-.28-10.56,8-9.1,2.34.42,4.93-1.61,6.6-3.84,2-1.47,3.11-3.66,4.52-5.59l1,.94C212.26,242.83,212.05,248.16,208.33,252Z" transform="translate(0)"/><path class="cls-31" d="M191.08,240c-6.67-6.11-4-13.95-3.86-21.28,0-1.91,1.42-1.33,2.42-.51s2.24,1.91,3.35,2.87c2.21,5.15,4.65,10.22,1.95,16C194.12,238.87,193.39,240.38,191.08,240Z" transform="translate(0)"/><path class="cls-102" d="M201.79,295c2.9-1.66,3.44-4.95,5.15-7.43.07,2.84.71,5.71-.6,8.45A20.13,20.13,0,0,0,197,306.32c-.26.21-.69.64-.74.6-2.26-1.86-.91-4.76-2-7-.7-1.5.7-1.71,1.9-2C198.19,297.28,200.36,296.83,201.79,295Z" transform="translate(0)"/><path class="cls-103" d="M203.29,275c-2.26.77-3.66,2.56-5.09,4.3l-4.78,5.46c-.62-4.74-1.71-9,4.78-9.55a5.85,5.85,0,0,0,3.71-2.36,14.75,14.75,0,0,0,5.11-7.29l1.44-1.88C207.93,271.86,207.93,271.86,203.29,275Z" transform="translate(0)"/><path class="cls-104" d="M208.05,229.18l-5.81,4.07-2.85,1.8c-.78-2.17,1.12-3.76.9-5.68l0-.07c.34-.9.54-2.08,1.86-.85C204,229.61,206.1,228.66,208.05,229.18Z" transform="translate(0)"/><path class="cls-32" d="M258.75,155.62c-.07,1.14,2.95,1.57.9,3-4.55,3.25-9,6.9-14.88,7.37-1.44.12-3.22.44-4.1-1.07-1-1.8,1-2.5,1.73-3.64,2.26-3.49,5.85-4.59,9.64-5.3C254.22,154.87,256.36,153.14,258.75,155.62Z" transform="translate(0)"/><path class="cls-35" d="M245.72,175c-3.15,2.79-7.21,4.48-9.71,8-3.54,1.2-7,3.14-11.23,1.67a20.94,20.94,0,0,1,10.28-10.87l0,0C238.55,174.67,242.32,173.08,245.72,175Z" transform="translate(0)"/><path class="cls-105" d="M235.06,173.81h-2.93c1.56-2,3-3.71,4.26-5.48s2.46-2.43,4.88-1.46c2.93,1.15,6.14.26,9.34-.46-2.86,3.14-4.81,7.38-10.43,6.47-1.58-.26-3.65-.48-5.14,1Z" transform="translate(0)"/><path class="cls-106" d="M236.23,183.29c.52.1,1.93-.64.85.94-2.72,4-5.63,7.59-11.25,6.89-.68-.09-1.45.57-2.18.88-2-.28-2.57,2.5-4.61,2.07-1-.79.23-1.54,0-2.31,2.31-3.16,3.89-6.91,9.41-5.16C230.94,187.38,234.17,185.66,236.23,183.29Z" transform="translate(0)"/><path class="cls-107" d="M258.75,155.62,252,156c-1.17-2.08-3,.63-4.33-.53,1.7-2.93,3.53-4.09,7.18-2.53,5.07,2.17,9.42-1.65,14.08-2.94l.08.09C265.94,152.53,263.62,156.47,258.75,155.62Z" transform="translate(0)"/><path class="cls-108" d="M202.1,228.45l-1.86.85A61,61,0,0,1,211.05,205c.14.18.28.37.43.55.5,2.66-1.42,4.5-2.3,6.91,1.31.21,2.6-1.39,3.86-.18,0,.25,0,.5,0,.75C206.67,216.21,202.23,220.81,202.1,228.45Z" transform="translate(0)"/><path class="cls-51" d="M218.86,194.13c-.93,1.13-2,2.19-2.77,3.4-1.24,1.88-3.37,3.88-2.52,6.11.91,2.43,3.84,1,5.82,1.52-2.71,3.72-5.45,2.23-8.2.06l-.14-.26c.79-4,3.41-7.14,5.34-10.59C217.09,193.14,218,193.5,218.86,194.13Z" transform="translate(0)"/><path class="cls-32" d="M504,227c-3.89-2.75-5.65-7.05-8-10.94-1.12-7.33-2.32-14.65-2.49-22.33,1.19-1.22,2.54.9,3.91.28h.25c1,1.37,1.65,2.94,2.8,4.31,5.74,6.91,8.69,14.75,6.62,24-1.1-8.24-2.08-16.52-8.63-22.68,1.13,2.07,2.31,4.11,3.38,6.21,3.32,6.45,3.1,13.49,3.31,20.45C505.18,226.53,504.4,226.77,504,227Z" transform="translate(0)"/><path class="cls-109" d="M503.69,229.37c-.39-.78-1.09-1.59.2-2.22,2.63,1,3.9,2.88,4.34,5.73,1.17,7.53.51,15.1.78,22.65-1.83-1.77-4.45-3.19-2.88-6.47l-.13,0a39.2,39.2,0,0,0,0-13.58C505.4,233.4,505,231.21,503.69,229.37Z" transform="translate(0)"/><path class="cls-110" d="M514.14,234.83l2.28,4.29c-1.89.51-2.32-1.75-3.8-2-4.82-5.4-4.74-11.7-3.27-18.54,2.88,4.41.42,10,3.61,14C512.75,233.67,513.55,234.19,514.14,234.83Z" transform="translate(0)"/><path class="cls-1" d="M497.69,194h-.25c-3.94-1.69-4.28-6-6.52-8.92.06-.8.12-1.6.25-3.2C493.76,186.22,496.75,189.52,497.69,194Z" transform="translate(0)"/><path class="cls-111" d="M509.9,262c-2.75-2.36-3.16-3.88-1.63-5.95C508.33,258.12,510.79,259.57,509.9,262Z" transform="translate(0)"/><path class="cls-27" d="M500.09,357.33,500,356c1-2.62,1.32-5.5,3.05-7.83,1.31.67,2.12,1.51,1.41,3.15S505,352.86,506,353Z" transform="translate(0)"/><path class="cls-112" d="M512.34,349.28c-.7.29-1.54,1.06-2.08.22-.24-.36.29-1.64.82-2,1.58-1,3.37-.51,5.1-.25C515.26,348.63,513.81,349,512.34,349.28Z" transform="translate(0)"/><path class="cls-113" d="M476.92,182.19q-4-4.41-8-8.81c3.13,2.46,6.65,4.52,8.21,8.63Z" transform="translate(0)"/><path class="cls-114" d="M503.92,247.06H503c-1.71-8.28-4.14-16.23-10.16-22.58C499.94,230.32,503,238.16,503.92,247.06Z" transform="translate(0)"/><path class="cls-114" d="M506,235.52a17.93,17.93,0,0,1,0,13.58Q506,242.31,506,235.52Z" transform="translate(0)"/><path class="cls-115" d="M529,272l.18,3.07c.11,2.31-1.34,3.49-3.16,4.41-.68.32-1.64,1.75-1.82-.27-.24-2.71-.26-5.43-.37-8.15V263c1,2.26,1.56,3.45,2.11,4.65a4.08,4.08,0,0,0,1.87,3A1.59,1.59,0,0,1,529,272Z" transform="translate(0)"/><path class="cls-116" d="M529,272l-1.19-1.31c4.91-8.84,6.44-18.15,3-29.28,3.34,4.92,4.1,11.45,2.65,17.52-.77,3.2-1.7,6.37-2.53,9.57-.27,1.05-1,2.31.91,2.64C531.14,272.25,530,272,529,272Z" transform="translate(0)"/><path class="cls-30" d="M510,314.94c-.24-1.1-.12-2.52-.77-3.26-4.33-4.94-2.9-10.28-1.33-15.66,2.49-3,2.73-6.35,1.6-10-2-6.6-1.49-13.43-1.59-20.2,0-1.39,0-2.76,2-2.57,2.4,3.31,4.64,6.71,7.29,9.88,4.47,5.35,4.11,11.94,3,18.42a53.59,53.59,0,0,1-1.36,5.23c-2.78-.11-1.33-2.3-1.3-3.29a37.3,37.3,0,0,0-4.68-20,36.63,36.63,0,0,1,4.55,20.35c-.07,1.42.47,3.11-1.55,3.71-1.74,1.4.91,3.66-1,5,.47,6.26,2,12.52,0,18.78-.27.78-.53,1.56-.79,2.33-2,1.42-.6,4-2,6.2C509.46,324.82,512.65,319.42,510,314.94Z" transform="translate(0)"/><path class="cls-24" d="M526,279.49c.44-1.91,1.88-3.1,3.16-4.41,2,.46,4-4,5.26-.83,1,2.59,2,6.42-1.15,9.14-2.61,2.29-5.36,4.55-5.37,8.5-2.31,3.5-1.11,8.49-5.22,11.92-1.46-6.35-.6-12.07,1.29-17.72C524.71,283.9,525.92,281.87,526,279.49Z" transform="translate(0)"/><path class="cls-117" d="M513.67,296.05c1.83.21,3.26.61,3.32-2.41.17-8.11-2-15.52-5.46-22.71A30.64,30.64,0,0,1,518,288.66c.16,2.7-1,5.58.84,8.11,0,1.19.29,2.44-.94,3.28C515.32,300,514.29,298.23,513.67,296.05Z" transform="translate(0)"/><path class="cls-118" d="M513.67,296.05c1.24,1.52,3.47,2,4.27,4,1.54,3.68.64,7.3-.38,11.09-1.47-2.79-.92-6.06-2.63-8.61C515.59,300.16,512.28,298.56,513.67,296.05Z" transform="translate(0)"/><path class="cls-27" d="M516.87,325.93c.79-2.32,1.66-4.61,3.62-6.31-.62,2.42-1.15,4.88-3.4,6.51Z" transform="translate(0)"/><path class="cls-17" d="M513.94,336c4.21-2.91,6.93-7.61,11.92-9.61,2.15-.86,4.21-1.79,6.59-1.69-1.56,10.73-11.26,21.13-19.65,21.08-.36-1.76,1.87-2.19,1.92-4.08-1.52-.39-2,1.82-3.63,1.61,1-2.55,1.95-5,2.89-7.36Z" transform="translate(0)"/><path class="cls-21" d="M505.93,325.67a61.85,61.85,0,0,1-.69-17.18c3,1.92,2.9,5.34,4.7,7.52,0,3.12,0,6.24,0,9.36,0,1.38.47,3.11-1.69,3.52C507.11,328.06,506.06,327.19,505.93,325.67Z" transform="translate(0)"/><path class="cls-119" d="M514,336c-.88.22-2,.95-1.94-.89.11-2.23,1.62-3.45,3.4-4.69.68,2.31-1.63,3.65-1.5,5.63Z" transform="translate(0)"/><path class="cls-120" d="M211.19,205.22c2.73-.09,5.48,2.16,8.2-.06,3-.41,4.88-2.82,7.33-4.2-1.65,4.76-3.62,9.16-9.51,9.92a22.55,22.55,0,0,0-4.17,1.36l-6.44,3Z" transform="translate(0)"/><path class="cls-16" d="M503.05,348.14c-.15,2.94.08,6-3.05,7.83l0,0c-1.21-3.62,1.71-6.88.92-9.8-.47,3-.1,6.91-3,9.9-2.12,3.81-3.48,8.1-7,11-3.82-7.42-.54-14.23,2.1-20.95,2.17-5.54,4.94-10.85,7.8-17C503.77,335.59,503.76,341.82,503.05,348.14Z" transform="translate(0)"/><path class="cls-121" d="M498,356c2.55-4.82,1.83-10.22,2.69-15.37,2.9,5.24-.36,10.2-.64,15.27Z" transform="translate(0)"/></svg>