<?xml version="1.0" encoding="UTF-8"?>
<svg xmlns="http://www.w3.org/2000/svg" xmlns:xlink="http://www.w3.org/1999/xlink" width="295.72pt" height="295.72pt" viewBox="0 0 295.72 295.72" version="1.1">
<defs>
<clipPath id="clip1">
  <path d="M 0 0 L 295.71875 0 L 295.71875 295.71875 L 0 295.71875 Z M 0 0 "/>
</clipPath>
</defs>
<g id="surface1">
<g clip-path="url(#clip1)" clip-rule="nonzero">
<path style=" stroke:none;fill-rule:nonzero;fill:rgb(92.89856%,11.799622%,14.498901%);fill-opacity:1;" d="M 147.859375 1.003906 C 66.878906 1.003906 1 66.882813 1 147.859375 C 1 228.839844 66.878906 294.71875 147.859375 294.71875 C 228.835938 294.71875 294.71875 228.839844 294.71875 147.859375 C 294.71875 66.882813 228.835938 1.003906 147.859375 1.003906 Z M 147.859375 295.71875 C 66.328125 295.71875 0 229.390625 0 147.859375 C 0 66.332031 66.328125 0.00390625 147.859375 0.00390625 C 229.390625 0.00390625 295.71875 66.332031 295.71875 147.859375 C 295.71875 229.390625 229.390625 295.71875 147.859375 295.71875 "/>
</g>
<path style=" stroke:none;fill-rule:evenodd;fill:rgb(100%,100%,100%);fill-opacity:1;" d="M 111.097656 197.046875 C 112.238281 197.046875 112.808594 197.976563 112.808594 198.902344 C 112.808594 200.019531 112.238281 200.945313 111.097656 200.945313 C 109.953125 200.945313 109.191406 200.019531 109.191406 198.902344 C 109.191406 197.976563 109.953125 197.046875 111.097656 197.046875 "/>
<path style=" stroke:none;fill-rule:evenodd;fill:rgb(100%,100%,100%);fill-opacity:1;" d="M 107.097656 209.484375 C 108.046875 209.484375 108.808594 210.414063 108.808594 211.152344 C 108.808594 212.269531 108.046875 213.195313 107.097656 213.195313 C 105.953125 213.195313 105.191406 212.269531 105.191406 211.152344 C 105.191406 210.414063 105.953125 209.484375 107.097656 209.484375 "/>
<path style=" stroke:none;fill-rule:nonzero;fill:rgb(92.89856%,11.799622%,14.498901%);fill-opacity:1;" d="M 46.714844 101.457031 L 41.953125 98.859375 L 33.1875 99.414063 L 34.714844 97.003906 L 40.617188 96.632813 L 37.378906 91.804688 L 38.902344 89.207031 L 43.09375 96.632813 L 47.855469 99.230469 Z M 42.332031 111.851563 L 32.425781 107.769531 L 31.09375 111.296875 L 28.808594 110.367188 L 32.617188 101.273438 L 34.714844 102.015625 L 33.1875 105.542969 L 43.09375 109.253906 Z M 39.472656 119.089844 L 27.285156 115.007813 L 28.238281 112.410156 L 40.238281 116.679688 Z M 32.425781 130.226563 L 32.617188 127.628906 C 33.570313 127.628906 34.140625 127.628906 34.714844 127.441406 C 35.285156 126.699219 35.472656 126.144531 35.472656 125.589844 C 35.855469 124.84375 35.855469 124.289063 35.472656 123.546875 C 35.285156 122.988281 34.902344 122.804688 34.332031 122.804688 C 34.140625 122.804688 33.761719 122.804688 33.761719 122.804688 C 33.570313 122.988281 33.1875 123.359375 33 123.546875 C 32.617188 123.917969 32.425781 124.472656 31.855469 125.589844 C 31.285156 126.699219 30.714844 127.628906 30.140625 128 C 29.378906 128.558594 28.238281 128.742188 27.285156 128.558594 C 26.714844 128.558594 26.140625 128.1875 25.761719 127.628906 C 25.1875 127.070313 24.808594 126.515625 24.808594 125.960938 C 24.617188 125.03125 24.617188 124.289063 24.808594 123.359375 C 25.1875 121.691406 25.953125 120.761719 26.714844 119.835938 C 27.664063 119.277344 28.425781 119.277344 29.570313 119.277344 L 29.378906 121.875 C 28.425781 121.875 28.238281 121.875 27.664063 122.246094 C 27.285156 122.433594 27.09375 122.988281 27.09375 123.917969 C 26.714844 124.472656 26.714844 125.03125 27.09375 125.589844 C 27.09375 125.960938 27.285156 126.144531 27.664063 126.144531 C 27.855469 126.144531 28.238281 126.144531 28.425781 125.960938 C 28.808594 125.589844 29.378906 125.03125 29.953125 123.917969 C 30.523438 122.804688 31.09375 121.875 31.285156 121.316406 C 31.855469 120.761719 32.425781 120.390625 33 120.203125 C 33.570313 120.203125 34.332031 120.203125 34.902344 120.203125 C 35.855469 120.390625 36.425781 120.761719 36.808594 121.316406 C 37.378906 121.875 37.761719 122.433594 37.953125 123.359375 C 37.953125 124.289063 37.953125 125.03125 37.761719 126.144531 C 37.378906 127.628906 36.617188 128.742188 35.855469 129.300781 C 34.902344 130.226563 33.761719 130.597656 32.425781 130.226563 Z M 27.855469 139.691406 L 28.238281 137.652344 C 28.238281 136.539063 28.238281 135.980469 28.238281 135.425781 C 28.238281 135.054688 27.855469 134.867188 27.855469 134.867188 C 27.664063 134.496094 27.285156 134.496094 26.714844 134.3125 C 26.523438 134.3125 26.140625 134.3125 25.953125 134.496094 C 25.761719 134.867188 25.378906 135.054688 25.1875 135.425781 C 25.1875 135.609375 25.1875 136.167969 24.808594 137.464844 L 24.617188 139.136719 Z M 34.714844 143.222656 L 21.953125 141.363281 L 22.902344 136.167969 C 23.09375 134.867188 23.472656 133.941406 23.664063 133.382813 C 24.046875 132.828125 24.617188 132.269531 25.1875 131.898438 C 25.761719 131.714844 26.140625 131.714844 27.09375 131.714844 C 28.238281 131.898438 28.808594 132.269531 29.378906 132.828125 C 29.953125 133.382813 30.140625 134.3125 30.140625 135.425781 C 30.523438 135.054688 31.09375 134.496094 31.285156 134.3125 C 31.855469 133.941406 32.617188 133.753906 33.570313 133.011719 L 36.425781 131.898438 L 35.855469 135.054688 L 33 136.539063 C 31.855469 136.910156 31.285156 137.464844 30.714844 137.464844 C 30.523438 137.652344 30.523438 138.023438 30.140625 138.210938 C 30.140625 138.578125 29.953125 138.765625 29.953125 139.507813 L 29.953125 140.066406 L 35.285156 140.808594 Z M 34.714844 155.285156 L 21.953125 154.914063 L 21.953125 145.449219 L 24.238281 145.449219 L 24.046875 152.316406 L 26.714844 152.316406 L 27.09375 146.003906 L 29 146.003906 L 29 152.6875 L 32.425781 152.6875 L 32.617188 145.449219 L 34.902344 145.449219 Z M 35.285156 163.453125 L 22.902344 169.023438 L 22.523438 166.050781 L 31.855469 162.339844 L 22.332031 160.109375 L 21.953125 157.140625 L 34.902344 161.039063 Z M 36.425781 171.804688 L 24.046875 173.660156 L 23.472656 171.246094 L 36.046875 169.207031 Z M 39.09375 184.238281 L 26.714844 187.023438 L 26.140625 184.796875 L 33.1875 177.558594 L 25.1875 179.601563 L 24.617188 177.375 L 36.808594 174.402344 L 37.378906 177.003906 L 30.523438 183.871094 L 38.523438 181.828125 Z M 31.855469 200.945313 L 31.09375 198.347656 L 37.378906 195.933594 C 38.332031 195.378906 39.09375 195.191406 39.472656 195.191406 C 39.664063 194.820313 40.046875 194.265625 40.238281 193.894531 C 40.238281 193.335938 40.238281 192.777344 40.046875 192.222656 C 39.664063 191.480469 39.472656 191.109375 39.09375 190.738281 C 38.523438 190.550781 38.332031 190.550781 37.761719 190.550781 C 37.378906 190.550781 36.617188 190.738281 35.855469 191.109375 L 29 193.707031 L 28.238281 191.480469 L 34.332031 188.882813 C 36.046875 188.511719 36.808594 187.953125 37.378906 187.953125 C 38.332031 187.953125 38.902344 187.953125 39.472656 188.324219 C 40.046875 188.324219 40.238281 188.511719 40.808594 189.066406 C 41.378906 189.625 41.761719 190.179688 42.332031 191.480469 C 42.523438 192.59375 42.714844 193.335938 42.714844 193.894531 C 42.714844 194.820313 42.523438 195.378906 42.332031 195.75 C 41.953125 196.304688 41.761719 196.492188 41.1875 196.863281 C 40.617188 197.421875 39.472656 197.789063 38.332031 198.347656 Z M 45.953125 212.269531 L 49 210.597656 L 47.664063 208.558594 C 47.285156 207.8125 47.09375 207.257813 46.714844 207.257813 C 46.523438 206.886719 46.144531 206.699219 45.953125 206.699219 C 45.570313 206.328125 45 206.699219 44.808594 206.699219 C 44.429688 206.886719 44.238281 207.257813 43.855469 207.441406 C 43.855469 207.8125 43.855469 208 43.855469 208.371094 C 43.855469 208.929688 44.238281 209.484375 44.808594 210.597656 Z M 41.378906 214.683594 L 43.855469 213.566406 L 43.09375 211.710938 C 42.714844 210.96875 42.523438 210.414063 42.332031 210.414063 C 41.953125 210.042969 41.761719 209.855469 41.378906 209.484375 C 41.1875 209.484375 40.617188 209.484375 40.238281 209.855469 C 40.046875 210.042969 39.664063 210.042969 39.664063 210.597656 C 39.472656 210.96875 39.472656 211.152344 39.664063 211.523438 C 39.664063 211.710938 40.238281 212.269531 40.808594 213.566406 Z M 40.808594 218.023438 L 38.332031 213.566406 C 37.761719 212.640625 37.378906 212.082031 37.378906 211.523438 C 37.1875 211.152344 37.1875 210.597656 37.1875 210.042969 C 37.1875 209.855469 37.378906 209.113281 37.761719 208.929688 C 37.953125 208.371094 38.332031 208 38.902344 207.8125 C 39.09375 207.441406 39.664063 207.441406 40.617188 207.441406 C 41.1875 207.441406 41.761719 207.441406 41.953125 208 C 41.953125 207.257813 41.953125 206.699219 42.332031 205.773438 C 42.523438 205.214844 42.714844 204.65625 43.664063 204.289063 C 44.238281 204.101563 44.808594 204.101563 45.378906 204.101563 C 45.953125 204.101563 46.523438 204.101563 47.09375 204.289063 C 47.664063 204.65625 47.855469 204.84375 48.425781 205.398438 C 48.425781 205.773438 49 206.699219 49.761719 208 L 52.046875 211.710938 Z M 51.476563 219.878906 L 48.617188 223.777344 L 53.570313 222.664063 Z M 53 213.011719 L 54.523438 215.238281 L 52.617188 217.835938 L 55.664063 222.105469 L 58.523438 221.179688 L 60.238281 223.589844 L 47.09375 226.746094 L 45.378906 224.332031 Z M 53.761719 235.097656 L 52.046875 233.058594 L 57.953125 227.488281 C 58.902344 226.933594 59.285156 226.375 59.855469 226.191406 C 60.808594 225.816406 61.378906 225.816406 62.144531 225.816406 C 63.09375 226.191406 63.855469 226.746094 64.429688 227.304688 C 65.191406 228.230469 65.761719 229.34375 65.761719 230.085938 C 65.570313 231.386719 65.191406 232.128906 64.238281 233.058594 L 62.144531 231.570313 C 62.714844 231.015625 63.09375 230.457031 63.285156 230.085938 C 63.285156 229.53125 63.285156 229.34375 62.714844 228.789063 C 62.523438 228.417969 62.144531 228.230469 61.570313 228.230469 C 61.378906 228.417969 60.808594 228.789063 59.855469 229.34375 Z M 75.855469 238.253906 L 67.476563 247.90625 L 65.570313 246.234375 L 67.285156 236.398438 L 61.570313 242.710938 L 59.855469 241.410156 L 68.046875 231.570313 L 70.144531 233.242188 L 68.617188 243.082031 L 73.953125 236.769531 Z M 77.570313 246.050781 L 76.238281 250.875 L 80.429688 248.277344 Z M 76.808594 239.367188 L 79.09375 240.851563 L 78.144531 244.007813 L 82.332031 246.792969 L 85 245.121094 L 87.09375 246.792969 L 75.667969 254.03125 L 73.382813 252.546875 Z M 87.667969 258.855469 L 89.382813 255.703125 L 88.238281 255.144531 C 87.476563 254.589844 86.714844 254.21875 86.332031 254.21875 C 86.144531 254.21875 85.761719 254.21875 85.570313 254.21875 C 85 254.589844 85 254.773438 84.617188 255.144531 C 84.429688 255.515625 84.429688 256.070313 84.429688 256.257813 C 84.429688 256.628906 84.617188 257.1875 85 257.371094 C 85.191406 257.371094 85.761719 257.742188 86.714844 258.300781 Z M 95.09375 251.0625 L 88.808594 262.011719 L 85.191406 259.972656 C 83.855469 259.230469 82.90625 258.671875 82.714844 258.300781 C 82.144531 257.742188 81.761719 257.1875 81.761719 256.257813 C 81.570313 255.515625 81.761719 254.589844 82.332031 253.660156 C 82.714844 253.105469 83.285156 252.546875 83.476563 252.359375 C 84.046875 251.988281 84.617188 251.617188 85.191406 251.617188 C 85.761719 251.617188 86.332031 251.617188 86.714844 251.988281 C 87.09375 252.359375 88.046875 252.546875 89.191406 253.105469 L 90.523438 254.03125 L 93 249.761719 L 95.09375 251.0625 "/>
<path style=" stroke:none;fill-rule:nonzero;fill:rgb(92.89856%,11.799622%,14.498901%);fill-opacity:1;" d="M 157.761719 265.167969 L 157.761719 262.941406 L 166.144531 262.941406 L 166.144531 264.980469 C 165.191406 265.539063 164.8125 266.28125 163.859375 267.765625 C 163.289063 268.878906 162.714844 270.363281 162.144531 271.851563 C 161.953125 273.148438 161.574219 274.449219 161.574219 275.5625 L 159.289063 275.5625 C 159.289063 273.890625 159.667969 272.035156 160.429688 269.992188 C 161.003906 268.324219 162.144531 266.652344 163.289063 265.167969 Z M 152.621094 270.921875 L 152.621094 266.652344 L 149.574219 270.921875 Z M 152.621094 275.5625 L 152.621094 272.964844 L 147.285156 272.964844 L 147.285156 270.921875 L 153.003906 262.941406 L 154.90625 262.941406 L 154.90625 270.921875 L 156.621094 270.921875 L 156.621094 272.964844 L 154.90625 272.964844 L 154.90625 275.5625 Z M 143.285156 267.210938 C 143.285156 266.652344 143.285156 265.726563 142.714844 265.539063 C 142.523438 264.980469 142.335938 264.980469 141.761719 264.980469 C 141.191406 264.980469 140.8125 264.980469 140.621094 265.167969 C 140.238281 265.726563 140.050781 266.28125 140.050781 267.210938 C 140.050781 267.765625 140.238281 268.695313 140.621094 268.878906 C 140.8125 269.253906 141.382813 269.4375 141.761719 269.4375 C 142.335938 269.4375 142.523438 269.253906 143.097656 268.878906 C 143.285156 268.695313 143.285156 268.136719 143.285156 267.210938 Z M 137.953125 272.59375 L 140.238281 272.40625 C 140.238281 272.964844 140.621094 273.148438 140.8125 273.519531 C 140.8125 273.519531 141.382813 273.890625 141.761719 273.890625 C 142.335938 273.890625 142.523438 273.519531 143.097656 272.964844 C 143.285156 272.59375 143.667969 271.480469 143.667969 269.992188 C 143.097656 270.921875 142.335938 271.292969 141.382813 271.292969 C 140.238281 271.292969 139.476563 270.921875 138.90625 269.992188 C 137.953125 269.253906 137.761719 268.324219 137.761719 267.210938 C 137.761719 265.726563 137.953125 264.609375 138.90625 264.054688 C 139.667969 263.128906 140.621094 262.941406 141.761719 262.941406 C 143.097656 262.941406 144.238281 263.128906 145 264.425781 C 145.574219 265.167969 146.144531 266.839844 146.144531 269.253906 C 146.144531 271.480469 145.574219 273.148438 144.8125 274.078125 C 143.859375 275.191406 142.714844 275.75 141.382813 275.75 C 140.621094 275.75 139.667969 275.5625 139.097656 275.003906 C 138.523438 274.449219 137.953125 273.519531 137.953125 272.59375 Z M 134.144531 275.5625 L 131.859375 275.5625 L 131.859375 266.28125 C 130.714844 267.210938 129.953125 267.765625 128.429688 268.136719 L 128.429688 266.097656 C 129.382813 265.726563 129.953125 265.539063 130.714844 264.980469 C 131.285156 264.425781 131.859375 263.496094 132.046875 262.941406 L 134.144531 262.941406 L 134.144531 275.5625 "/>
<path style=" stroke:none;fill-rule:evenodd;fill:rgb(92.89856%,11.799622%,14.498901%);fill-opacity:1;" d="M 109.382813 258.300781 L 111.097656 263.496094 L 116.429688 263.496094 L 111.859375 266.652344 L 113.570313 271.480469 L 109.382813 268.695313 L 104.808594 271.480469 L 106.523438 266.652344 L 102.332031 263.496094 L 107.667969 263.496094 L 109.382813 258.300781 "/>
<path style=" stroke:none;fill-rule:evenodd;fill:rgb(92.89856%,11.799622%,14.498901%);fill-opacity:1;" d="M 184.621094 258.300781 L 186.335938 263.496094 L 191.667969 263.496094 L 187.480469 266.652344 L 189.191406 271.480469 L 184.621094 268.695313 L 180.429688 271.480469 L 182.144531 266.652344 L 177.574219 263.496094 L 182.90625 263.496094 L 184.621094 258.300781 "/>
<path style=" stroke:none;fill-rule:nonzero;fill:rgb(92.89856%,11.799622%,14.498901%);fill-opacity:1;" d="M 255.082031 109.433594 L 252.796875 109.992188 L 253.367188 111.664063 C 252.605469 112.03125 250.890625 112.589844 249.746094 114.074219 C 248.796875 114.816406 248.605469 115.746094 249.175781 117.789063 C 249.367188 118.714844 249.9375 119.273438 250.320313 119.457031 C 251.082031 120.015625 251.652344 120.015625 252.605469 120.386719 C 253.367188 120.386719 255.082031 119.828125 255.082031 119.828125 L 254.507813 117.789063 C 253.9375 117.789063 253.175781 118.34375 252.222656 117.972656 C 251.652344 117.789063 251.460938 117.417969 251.460938 116.859375 C 250.890625 115.746094 251.460938 115.191406 252.035156 114.816406 C 252.605469 114.632813 253.746094 114.261719 253.9375 114.074219 L 254.699219 116.117188 L 256.796875 115.191406 L 256.222656 113.148438 L 267.464844 109.804688 L 266.890625 107.394531 L 255.652344 111.105469 Z M 257.367188 115.746094 L 255.082031 116.304688 L 258.511719 129.851563 L 260.605469 129.296875 L 258.511719 120.570313 L 260.035156 120.015625 C 260.414063 120.570313 260.984375 122.429688 262.128906 123.542969 C 263.84375 125.769531 267.464844 126.695313 268.035156 126.695313 C 268.605469 126.324219 269.746094 125.210938 269.9375 123.171875 C 270.511719 121.128906 271.082031 119.457031 269.746094 117.789063 C 268.605469 116.304688 266.320313 115.5625 265.746094 116.304688 C 265.558594 116.675781 267.464844 117.230469 268.035156 118.714844 C 268.222656 119.457031 268.605469 119.828125 268.222656 121.128906 C 268.035156 122.613281 267.652344 124.46875 267.082031 124.097656 C 267.082031 124.65625 264.605469 123.542969 263.464844 121.5 C 261.746094 118.714844 261.746094 117.230469 261.746094 117.230469 L 257.9375 118.34375 Z M 265.175781 133.9375 L 265.746094 138.390625 C 264.984375 138.390625 264.035156 138.390625 263.269531 138.761719 C 262.699219 138.945313 262.320313 138.945313 262.128906 139.316406 L 261.558594 134.492188 Z M 260.984375 130.039063 L 258.511719 130.410156 L 260.035156 143.960938 L 262.699219 143.589844 L 262.320313 141.917969 C 262.320313 141.359375 263.84375 140.988281 264.984375 140.988281 C 269.175781 140.246094 269.9375 141.917969 271.84375 141.546875 C 272.796875 141.546875 273.367188 140.804688 273.367188 139.875 C 272.984375 138.203125 269.746094 138.761719 268.035156 138.203125 L 267.464844 133.566406 L 272.984375 133.007813 L 272.796875 130.78125 L 261.175781 132.078125 Z M 259.269531 141.546875 C 259.269531 141.546875 257.558594 141.546875 256.414063 142.101563 C 255.84375 142.476563 255.269531 142.84375 255.082031 143.402344 C 254.699219 143.960938 254.507813 144.515625 254.507813 145.257813 C 254.507813 147.300781 255.082031 148.414063 256.222656 149.15625 C 257.558594 149.714844 259.652344 149.714844 260.035156 149.714844 L 260.414063 151.382813 L 262.699219 151.382813 L 262.699219 149.714844 L 274.511719 149.34375 L 274.128906 147.113281 L 262.699219 147.300781 L 262.320313 143.589844 L 260.035156 143.589844 L 260.035156 147.300781 C 259.652344 147.300781 258.511719 147.300781 258.128906 147.300781 C 257.367188 147.113281 256.796875 146.742188 256.796875 145.628906 C 256.796875 145.074219 256.796875 144.703125 257.367188 144.144531 C 257.9375 143.960938 259.082031 143.960938 259.269531 143.960938 Z M 270.890625 157.136719 C 271.082031 157.136719 271.652344 157.324219 271.84375 157.695313 C 271.84375 158.25 271.652344 158.808594 271.273438 158.808594 C 270.320313 160.851563 268.035156 161.964844 267.082031 161.964844 C 266.511719 161.964844 266.511719 161.777344 266.511719 160.851563 L 266.890625 156.765625 Z M 262.699219 151.941406 L 260.414063 151.941406 L 259.652344 164.5625 L 261.746094 164.933594 L 262.320313 156.578125 L 264.605469 156.765625 C 264.414063 158.25 264.414063 161.222656 264.414063 161.222656 C 264.035156 162.519531 264.414063 164.003906 266.511719 164.375 C 269.175781 164.5625 273.558594 161.222656 274.128906 158.621094 C 274.699219 156.023438 272.414063 154.910156 270.511719 154.910156 L 262.699219 154.167969 Z M 261.746094 164.933594 L 259.652344 164.375 L 256.984375 177.738281 L 259.269531 178.296875 L 260.984375 169.761719 L 262.320313 170.132813 L 261.558594 174.957031 C 260.984375 176.628906 262.320313 178.296875 264.035156 178.296875 C 266.511719 178.667969 267.082031 176.441406 267.652344 176.441406 C 268.796875 176.070313 271.082031 175.511719 272.226563 173.285156 C 272.796875 171.988281 272.226563 170.132813 272.226563 170.132813 L 270.890625 169.386719 C 270.511719 169.386719 271.082031 171.242188 269.9375 172.542969 C 269.175781 173.472656 268.796875 173.84375 268.035156 173.84375 L 268.796875 169.203125 L 266.511719 168.644531 L 265.175781 175.511719 C 265.175781 175.699219 264.605469 176.070313 264.414063 176.070313 C 263.84375 176.070313 263.84375 175.140625 263.84375 174.585938 L 264.984375 168.089844 L 261.558594 167.160156 Z M 259.269531 177.183594 L 256.984375 176.996094 L 256.796875 178.667969 C 255.84375 178.296875 254.320313 178.113281 252.605469 178.667969 C 251.460938 178.855469 250.511719 179.597656 249.9375 181.824219 C 249.9375 182.382813 249.9375 183.308594 250.320313 183.863281 C 250.511719 184.421875 250.890625 184.980469 251.652344 185.351563 C 252.605469 186.09375 254.320313 186.464844 254.320313 186.464844 L 254.699219 184.050781 C 254.320313 184.050781 253.175781 184.050781 252.605469 183.308594 C 252.222656 182.9375 252.222656 182.382813 252.222656 181.824219 C 252.605469 180.710938 253.367188 180.710938 254.320313 180.339844 C 254.507813 180.339844 255.652344 180.710938 256.222656 180.898438 L 255.652344 182.9375 L 257.9375 183.308594 L 258.511719 181.269531 L 269.9375 184.050781 L 270.511719 181.824219 L 259.082031 179.226563 Z M 258.128906 183.308594 L 255.84375 182.753906 L 251.652344 195.003906 L 253.746094 195.929688 L 255.269531 191.289063 L 256.796875 191.660156 C 256.222656 194.074219 258.128906 196.671875 260.035156 197.230469 C 261.746094 197.972656 264.605469 197.972656 266.511719 195.003906 L 264.414063 194.074219 C 263.464844 195.558594 262.128906 195.558594 260.984375 195.375 C 260.414063 195.003906 258.511719 193.890625 259.269531 191.289063 C 260.035156 188.507813 262.699219 188.691406 262.890625 189.0625 C 264.035156 189.25 265.175781 190.363281 265.175781 191.847656 L 267.464844 192.773438 C 267.464844 189.25 265.558594 187.578125 263.84375 187.023438 C 261.746094 186.09375 258.699219 187.023438 257.558594 189.25 L 256.222656 189.0625 Z M 268.796875 204.28125 L 266.890625 203.355469 C 266.890625 203.355469 266.890625 205.398438 265.9375 207.066406 C 265.558594 208.738281 263.84375 210.59375 263.84375 210.59375 L 265.746094 211.335938 C 265.746094 211.335938 267.464844 209.296875 268.035156 207.996094 C 268.605469 206.511719 268.796875 204.28125 268.796875 204.28125 Z M 265.746094 202.796875 L 263.464844 201.871094 C 263.464844 201.871094 263.84375 204.28125 262.890625 205.953125 C 262.320313 207.625 260.605469 209.109375 260.605469 209.109375 L 262.699219 210.039063 C 262.699219 210.039063 264.414063 208.550781 264.984375 206.882813 C 265.746094 204.839844 265.746094 202.796875 265.746094 202.796875 Z M 255.652344 199.273438 L 253.9375 202.984375 C 255.269531 203.726563 258.699219 204.839844 258.128906 205.398438 C 258.128906 205.398438 257.558594 205.953125 256.984375 206.511719 C 256.414063 207.066406 255.652344 207.4375 255.652344 207.066406 C 255.082031 207.4375 253.9375 205.582031 252.796875 204.839844 C 251.652344 204.28125 250.320313 203.726563 249.746094 203.726563 L 252.222656 197.972656 Z M 253.9375 194.074219 L 252.035156 192.960938 L 246.128906 206.140625 L 248.414063 207.066406 L 248.796875 205.582031 C 249.175781 205.398438 250.320313 205.953125 251.652344 207.066406 C 252.796875 207.625 254.320313 209.296875 255.082031 209.667969 C 255.269531 209.667969 256.414063 209.667969 257.9375 208.738281 C 258.511719 208.550781 259.082031 207.996094 259.269531 207.4375 C 260.414063 206.511719 260.605469 205.582031 260.605469 205.582031 C 261.558594 204.46875 260.605469 203.910156 259.269531 202.984375 C 258.699219 202.796875 257.9375 202.242188 256.984375 201.871094 L 257.9375 200.570313 L 262.890625 202.796875 L 264.035156 200.570313 L 253.367188 195.929688 Z M 249.175781 218.019531 C 249.367188 218.574219 249.367188 220.246094 248.796875 221.175781 C 248.414063 222.101563 247.269531 222.289063 246.320313 222.660156 C 246.320313 222.101563 246.320313 221.359375 246.128906 220.804688 C 246.128906 220.246094 246.128906 220.058594 246.128906 219.132813 L 247.84375 217.089844 Z M 245.746094 215.792969 L 244.414063 217.648438 C 243.460938 218.203125 242.699219 218.574219 241.9375 218.203125 C 241.367188 218.574219 240.984375 218.203125 240.796875 218.019531 L 243.460938 213.933594 Z M 246.128906 210.222656 L 244.03125 209.109375 L 236.222656 220.246094 L 238.128906 221.730469 L 239.269531 220.058594 C 239.652344 220.246094 240.414063 220.617188 241.367188 220.804688 C 242.128906 220.804688 242.699219 220.617188 243.84375 220.246094 C 243.84375 220.617188 243.84375 221.359375 244.03125 222.101563 C 244.03125 223.214844 244.414063 224.328125 244.984375 224.515625 C 246.699219 225.816406 250.320313 223.214844 250.511719 222.660156 C 251.460938 221.359375 251.460938 220.804688 251.460938 219.503906 L 253.175781 220.617188 L 254.507813 218.945313 L 244.605469 212.265625 Z M 237.367188 222.289063 L 235.652344 220.804688 L 232.03125 225.441406 L 233.9375 226.929688 L 234.890625 225.816406 L 239.84375 229.527344 L 241.367188 227.671875 L 236.222656 223.773438 Z M 233.367188 227.113281 L 231.84375 225.441406 L 222.507813 235.464844 L 224.222656 236.949219 L 230.699219 230.269531 L 233.367188 232.867188 L 230.128906 236.394531 L 229.175781 235.464844 C 228.414063 234.722656 227.269531 236.582031 227.269531 237.878906 C 227.269531 239.179688 228.605469 241.21875 229.558594 240.476563 C 229.558594 240.476563 229.746094 240.105469 230.128906 239.550781 C 230.699219 240.105469 232.222656 241.59375 234.320313 243.632813 L 236.03125 241.777344 L 231.84375 237.878906 L 235.078125 234.351563 L 239.078125 238.4375 L 240.796875 236.582031 L 232.03125 228.597656 Z M 218.320313 234.722656 C 217.746094 233.796875 217.175781 233.425781 216.222656 233.425781 C 215.652344 233.425781 215.269531 233.425781 214.128906 234.351563 C 212.984375 235.28125 212.984375 235.835938 212.984375 236.582031 C 212.984375 237.320313 213.558594 238.066406 214.128906 238.621094 C 215.460938 239.734375 217.367188 238.621094 216.605469 238.4375 C 216.605469 238.4375 215.460938 237.878906 215.269531 237.507813 C 214.699219 236.949219 214.699219 236.394531 215.460938 235.835938 C 216.03125 234.910156 216.605469 235.28125 217.175781 235.464844 C 217.746094 236.023438 217.9375 236.949219 217.9375 236.949219 C 218.320313 237.878906 219.460938 236.023438 218.320313 234.722656 Z M 225.367188 235.835938 L 223.652344 234.167969 L 220.03125 236.949219 L 225.558594 243.632813 C 225.558594 243.820313 224.984375 245.488281 224.792969 245.859375 C 223.269531 246.972656 221.9375 246.972656 221.558594 246.972656 C 221.367188 246.417969 220.792969 244.746094 219.652344 242.890625 C 219.078125 241.777344 216.222656 240.105469 215.269531 241.21875 L 213.558594 242.890625 L 214.890625 244.746094 L 216.03125 243.820313 C 216.605469 242.890625 217.367188 243.820313 217.9375 244.375 C 219.078125 246.417969 219.652344 249.015625 220.03125 249.386719 C 220.222656 249.386719 223.269531 250.128906 225.9375 247.902344 C 226.507813 247.34375 226.890625 246.230469 227.269531 245.304688 L 229.175781 247.53125 L 231.269531 246.230469 L 223.269531 237.320313 L 225.367188 235.835938 "/>
<path style=" stroke:none;fill-rule:nonzero;fill:rgb(92.89856%,11.799622%,14.498901%);fill-opacity:1;" d="M 214.550781 42.441406 C 214.550781 42.441406 215.882813 37.800781 213.980469 36.6875 C 213.21875 36.128906 211.691406 36.128906 211.121094 37.058594 C 210.359375 38.171875 210.550781 39.84375 210.550781 40.214844 L 208.644531 38.730469 C 208.644531 38.730469 208.453125 37.058594 209.21875 35.574219 C 210.359375 34.089844 212.644531 33.902344 214.738281 35.203125 C 218.167969 37.242188 216.453125 43.554688 216.265625 43.554688 L 217.597656 44.480469 L 216.453125 45.96875 L 215.3125 45.039063 L 209.40625 54.878906 L 207.503906 53.390625 L 213.40625 43.925781 L 211.691406 42.8125 L 212.644531 41.328125 Z M 201.40625 34.644531 L 212.644531 40.957031 L 211.691406 42.441406 L 209.40625 41.328125 L 207.882813 44.667969 L 203.3125 42.253906 C 202.550781 41.882813 201.40625 42.253906 200.835938 43.367188 C 199.121094 46.523438 203.121094 49.863281 205.789063 48.007813 L 206.929688 49.863281 C 205.21875 50.792969 203.3125 50.421875 201.597656 49.679688 C 198.738281 48.007813 197.40625 44.480469 198.738281 41.882813 C 199.882813 40.214844 201.980469 39.65625 203.503906 40.398438 L 206.738281 42.253906 L 207.503906 40.398438 L 200.453125 36.503906 Z M 185.40625 28.707031 L 199.882813 34.089844 L 199.3125 35.945313 L 197.980469 35.203125 L 193.980469 45.96875 L 191.882813 45.039063 L 193.980469 39.65625 L 191.503906 38.355469 L 190.929688 36.6875 L 194.550781 37.800781 L 195.691406 34.460938 L 192.453125 32.972656 L 191.3125 36.128906 C 190.738281 37.613281 189.023438 37.800781 187.882813 37.242188 C 187.882813 37.242188 188.074219 39.101563 188.453125 39.84375 C 189.023438 40.957031 189.597656 42.8125 189.597656 42.8125 L 187.503906 43.367188 C 187.3125 43.367188 186.550781 40.957031 185.980469 37.800781 C 185.40625 35.945313 184.835938 33.53125 184.835938 33.34375 L 186.929688 32.972656 C 186.550781 34.460938 188.074219 37.058594 189.023438 35.015625 L 190.167969 32.046875 L 184.835938 30.191406 Z M 186.550781 24.4375 C 184.835938 23.878906 183.691406 24.621094 183.121094 26.105469 C 183.121094 27.035156 183.121094 27.777344 183.121094 27.777344 L 184.453125 28.335938 L 184.265625 29.820313 L 182.738281 29.445313 L 179.691406 40.398438 L 177.40625 39.84375 L 180.644531 28.890625 L 178.550781 28.335938 L 179.121094 26.664063 L 181.214844 27.21875 C 181.214844 27.21875 180.835938 26.105469 181.214844 25.179688 C 181.980469 22.949219 184.265625 22.023438 186.929688 22.949219 C 191.3125 24.066406 193.980469 28.890625 193.980469 28.890625 C 194.359375 28.890625 193.980469 28.148438 194.359375 27.59375 C 194.929688 25.179688 197.980469 25.179688 199.3125 26.664063 L 199.121094 28.148438 C 197.980469 27.21875 196.074219 27.21875 195.691406 28.707031 C 195.121094 29.820313 196.074219 31.304688 196.265625 31.488281 L 193.980469 30.933594 C 193.980469 30.933594 190.359375 25.550781 186.550781 24.4375 Z M 167.121094 24.066406 L 178.550781 26.664063 L 177.980469 28.335938 L 176.835938 28.148438 L 174.359375 39.101563 L 172.074219 38.730469 L 173.023438 35.574219 C 169.976563 36.503906 165.976563 34.644531 166.738281 30.933594 C 167.3125 28.335938 170.738281 27.59375 173.023438 28.890625 L 173.023438 30.746094 C 173.023438 30.746094 172.453125 30.191406 171.503906 29.820313 C 168.835938 29.261719 168.265625 33.53125 170.738281 34.089844 C 172.074219 34.460938 173.214844 33.34375 173.214844 32.972656 L 174.738281 27.59375 L 166.550781 25.734375 Z M 152.453125 22.578125 L 165.40625 23.507813 L 165.40625 25.179688 L 164.070313 25.179688 L 163.121094 36.503906 L 160.835938 36.503906 L 161.214844 29.445313 L 157.214844 29.261719 L 157.023438 30.933594 C 157.023438 31.304688 157.023438 31.859375 156.453125 31.859375 C 155.5 31.859375 153.40625 28.707031 153.40625 28.148438 C 153.597656 27.21875 154.359375 27.21875 154.359375 27.21875 L 161.40625 27.777344 L 161.40625 24.992188 L 152.265625 24.4375 Z M 151.691406 24.4375 L 150.167969 24.4375 L 150.167969 35.574219 L 147.882813 35.574219 L 147.882813 24.4375 L 145.976563 24.4375 L 145.976563 22.578125 L 147.882813 22.578125 C 147.882813 22.578125 147.691406 21.46875 147.691406 20.722656 C 147.691406 18.3125 149.40625 16.640625 152.453125 16.640625 C 157.023438 16.640625 163.5 22.578125 163.5 22.578125 L 160.835938 22.578125 C 160.835938 22.578125 155.3125 18.3125 152.453125 18.3125 C 150.550781 18.3125 149.597656 19.425781 149.597656 20.910156 C 149.597656 21.839844 149.976563 22.578125 149.976563 22.578125 L 151.691406 22.578125 Z M 143.5 39.285156 L 144.261719 40.769531 C 142.359375 41.511719 138.929688 40.769531 138.929688 38.171875 C 138.929688 36.503906 140.644531 35.574219 142.929688 35.574219 C 146.929688 35.574219 149.023438 40.398438 149.023438 40.398438 L 147.121094 41.511719 C 147.121094 41.328125 145.40625 37.242188 142.550781 37.242188 C 141.785156 37.242188 141.023438 37.613281 141.023438 38.355469 C 141.023438 39.285156 142.550781 39.84375 143.5 39.285156 Z M 141.785156 24.066406 L 138.359375 24.4375 C 139.882813 26.664063 139.308594 29.261719 136.835938 30.191406 C 137.597656 32.417969 141.597656 32.417969 142.167969 29.820313 Z M 132.261719 23.136719 L 145.40625 22.394531 L 145.40625 24.066406 L 144.070313 24.066406 L 144.835938 35.203125 L 142.550781 35.574219 L 142.359375 32.417969 C 139.308594 35.015625 134.167969 32.789063 133.976563 28.707031 C 134.738281 28.890625 137.214844 28.707031 137.023438 26.664063 C 137.023438 25.734375 136.261719 24.621094 135.882813 24.621094 L 132.453125 24.992188 Z M 109.023438 29.820313 L 108.453125 28.335938 L 119.882813 24.992188 L 120.453125 26.664063 L 119.121094 27.035156 L 122.167969 37.800781 L 119.882813 38.355469 L 119.121094 35.203125 C 117.023438 37.800781 112.644531 37.800781 111.691406 34.460938 C 110.929688 31.488281 113.785156 29.261719 116.261719 29.445313 L 116.835938 30.933594 C 116.835938 30.933594 116.261719 30.933594 115.308594 30.933594 C 114.738281 31.304688 114.546875 31.488281 114.355469 31.859375 L 118.546875 33.34375 L 116.835938 27.59375 Z M 118.167969 34.089844 L 113.785156 32.789063 C 113.785156 32.972656 113.785156 33.53125 113.976563 33.902344 C 114.355469 35.015625 115.308594 35.945313 116.453125 35.203125 C 117.40625 35.203125 118.167969 34.089844 118.167969 34.089844 Z M 103.117188 30.191406 L 108.453125 28.335938 L 109.023438 30.191406 L 107.882813 30.375 L 110.929688 41.328125 L 108.644531 42.253906 L 105.214844 31.304688 L 103.5 31.859375 Z M 86.738281 37.242188 L 101.976563 30.375 L 102.546875 32.046875 L 101.40625 32.789063 L 105.785156 42.996094 L 103.882813 43.925781 L 100.835938 37.242188 L 98.167969 38.355469 C 98.546875 38.355469 99.691406 39.65625 99.882813 40.398438 C 100.835938 42.253906 100.261719 44.109375 98.167969 45.039063 C 93.976563 46.710938 89.59375 40.769531 89.59375 40.769531 L 90.929688 39.101563 C 90.929688 39.101563 94.929688 44.480469 97.40625 43.554688 C 98.167969 42.996094 98.546875 42.441406 97.976563 41.511719 C 97.214844 39.84375 94.546875 38.355469 94.355469 38.355469 L 100.261719 35.945313 L 99.117188 33.53125 L 87.308594 38.730469 Z M 79.5 34.644531 L 81.59375 33.34375 L 83.117188 35.203125 L 80.644531 36.6875 Z M 85.023438 49.308594 C 82.546875 51.164063 80.261719 49.121094 79.691406 48.566406 L 77.785156 45.039063 L 76.261719 45.96875 L 75.308594 44.480469 L 85.40625 38.171875 L 86.164063 39.65625 L 85.023438 40.398438 L 91.308594 49.863281 L 89.214844 51.164063 L 86.738281 47.636719 C 86.546875 48.566406 86.164063 48.753906 85.023438 49.308594 Z M 83.117188 41.511719 L 79.691406 43.925781 L 81.976563 47.265625 C 82.164063 48.195313 83.308594 48.566406 84.453125 48.007813 C 85.40625 47.265625 85.59375 45.96875 85.59375 45.597656 L 83.117188 41.511719 "/>
<path style=" stroke:none;fill-rule:evenodd;fill:rgb(92.89856%,11.799622%,14.498901%);fill-opacity:1;" d="M 56.617188 68.234375 L 58.332031 73.058594 L 63.664063 73.058594 L 59.09375 76.214844 L 60.808594 81.410156 L 56.617188 78.257813 L 52.046875 81.410156 L 53.761719 76.214844 L 49.570313 73.058594 L 54.902344 73.058594 L 56.617188 68.234375 "/>
<path style=" stroke:none;fill-rule:evenodd;fill:rgb(92.89856%,11.799622%,14.498901%);fill-opacity:1;" d="M 245.382813 75.65625 L 247.097656 80.855469 L 252.433594 80.855469 L 248.050781 84.011719 L 249.765625 88.835938 L 245.382813 86.050781 L 241.191406 88.835938 L 242.71875 84.011719 L 238.335938 80.855469 L 243.859375 80.855469 L 245.382813 75.65625 "/>
<path style=" stroke:none;fill-rule:nonzero;fill:rgb(92.89856%,11.799622%,14.498901%);fill-opacity:1;" d="M 147.859375 11.460938 C 72.648438 11.460938 11.460938 72.648438 11.460938 147.859375 C 11.460938 223.070313 72.648438 284.261719 147.859375 284.261719 C 223.070313 284.261719 284.257813 223.070313 284.257813 147.859375 C 284.257813 72.648438 223.070313 11.460938 147.859375 11.460938 Z M 147.859375 285.261719 C 72.097656 285.261719 10.460938 223.625 10.460938 147.859375 C 10.460938 72.097656 72.097656 10.460938 147.859375 10.460938 C 223.621094 10.460938 285.257813 72.097656 285.257813 147.859375 C 285.257813 223.625 223.621094 285.261719 147.859375 285.261719 "/>
<path style=" stroke:none;fill-rule:evenodd;fill:rgb(92.89856%,11.799622%,14.498901%);fill-opacity:1;" d="M 42.679688 147.335938 C 42.828125 206.378906 89.746094 251.367188 148.355469 251.351563 C 206.007813 251.328125 253.171875 205.363281 253.039063 147.371094 C 252.972656 119.46875 241.707031 93.398438 221.714844 74.027344 C 180.703125 34.292969 114.066406 34.421875 73.085938 74.800781 C 53.605469 93.992188 42.609375 119.949219 42.679688 147.335938 Z M 128.25 51.289063 C 129.785156 49.289063 142.773438 48.777344 145.621094 48.785156 C 149.710938 48.800781 147.875 52.089844 147.511719 55.414063 C 147.34375 56.941406 147.015625 62.863281 146.226563 63.621094 C 144.226563 63.222656 143.4375 58.605469 140.835938 59.519531 C 138.824219 60.230469 138.289063 64.78125 136.84375 65.464844 C 136.03125 65.164063 128.261719 52.371094 128.25 51.289063 Z M 155.59375 66.191406 C 154.441406 65.089844 154.132813 59.246094 153.976563 57.414063 C 153.75 54.742188 152.441406 51.425781 152.667969 49.207031 C 155.230469 48.667969 171.097656 49.898438 172.117188 52.105469 C 172.9375 53.886719 170.308594 58.25 169.695313 60.203125 C 169.246094 61.632813 167.808594 67.402344 166.1875 67.328125 C 164.972656 65.777344 165.90625 55.644531 161.929688 58.738281 C 159.929688 60.292969 157.476563 66.480469 155.59375 66.191406 Z M 115.8125 71.460938 C 114.347656 71.621094 107.730469 64.261719 106.152344 62.851563 C 101.5625 58.761719 102.703125 58.675781 111.695313 55.296875 C 127.011719 49.539063 122.65625 50.976563 125.90625 62.695313 C 126.394531 64.457031 127.804688 68.476563 126.980469 70.015625 C 125.246094 70.601563 120.589844 65.21875 116.621094 67.433594 C 115.480469 69.277344 117.078125 69.957031 115.8125 71.460938 Z M 175.804688 53.59375 C 178.644531 52.808594 182.65625 54.628906 185.359375 55.710938 C 197.097656 60.410156 195.761719 60.074219 190.507813 66.40625 C 189.558594 67.550781 188.675781 68.429688 187.65625 69.484375 C 186.644531 70.527344 186.148438 72.191406 184.792969 72.097656 C 183.511719 70.578125 184.835938 69.105469 183.691406 67.101563 C 180.160156 65.066406 174.765625 72.859375 173.289063 72.527344 C 172.324219 70.863281 175.109375 56.28125 175.804688 53.59375 Z M 139.585938 86.03125 C 137.320313 88.105469 135.839844 82.882813 135.257813 81.527344 C 132.828125 75.90625 130.769531 70.066406 129.214844 64.148438 C 128.816406 62.640625 128.351563 61.308594 128.875 60.175781 C 130.835938 60.023438 132.09375 63.984375 132.894531 65.488281 C 138.785156 76.578125 135.222656 71.578125 138.039063 79.082031 C 138.628906 80.65625 140.878906 84.847656 139.585938 86.03125 Z M 111.890625 72.414063 C 113.03125 73.898438 115.078125 75.816406 116.457031 77.203125 C 119.683594 80.453125 122.125 84.03125 124.785156 87.625 C 125.816406 89.015625 128.765625 91.367188 128.132813 93.03125 C 126.253906 93.820313 124.398438 90.71875 123.277344 89.441406 C 119.933594 85.625 114.996094 78.582031 111.609375 74.269531 C 110.601563 73.613281 108.925781 71.351563 108.980469 70.121094 C 109.976563 70.023438 111.492188 71.496094 111.890625 72.414063 Z M 124.925781 82.464844 C 123.355469 80.320313 119.246094 73.097656 119.976563 70.753906 C 124.355469 69.742188 131.21875 80.699219 132.628906 83.882813 C 133.445313 85.71875 135.605469 87.921875 133.507813 89.671875 C 131.046875 91.730469 130.269531 89.082031 128.859375 87.269531 C 127.59375 85.648438 126.152344 84.132813 124.925781 82.464844 Z M 143.542969 82.398438 C 143.125 81.867188 140.316406 74.585938 139.933594 73.417969 C 139.050781 70.730469 139.09375 65.898438 141.589844 63.960938 C 146.328125 65.902344 145.964844 81.253906 143.542969 82.398438 Z M 179.761719 75.941406 C 178.796875 78.328125 173.410156 87.957031 171 87.960938 C 170.460938 86.222656 171.875 83.050781 172.539063 81.277344 C 173.203125 79.503906 174.847656 77.230469 175.121094 75.9375 C 175.46875 74.246094 179.496094 70.117188 181.140625 70.585938 C 181.722656 72.035156 180.96875 74.5625 180.210938 75.914063 Z M 186.464844 78.332031 C 185.222656 79.660156 182.46875 85 180.902344 87.070313 C 180.003906 88.269531 178.667969 89.902344 177.703125 91.070313 C 176.617188 92.386719 176.152344 94.445313 174.617188 95.253906 C 173.300781 94.960938 172.605469 94.257813 172.167969 92.984375 C 172.464844 91.5625 182.339844 80.242188 184.019531 78.605469 C 184.457031 77.40625 188.878906 72.324219 189.6875 72.328125 C 189.707031 72.949219 188.808594 74.546875 188.480469 75.292969 C 187.894531 76.636719 187.671875 77.617188 186.464844 78.332031 Z M 166.78125 88.601563 C 165.128906 89.382813 163.167969 88.1875 163.535156 86.273438 C 163.792969 84.933594 168.15625 73.117188 168.75 72.464844 C 169.824219 73.789063 168.421875 78.632813 168.183594 80.519531 Z M 199.898438 85.253906 C 199.066406 85.855469 198.253906 86.4375 197.285156 86.285156 C 197.070313 85.105469 197.503906 84.558594 198.367188 83.761719 C 199.902344 82.0625 199.53125 82.296875 201.511719 81.117188 C 202.671875 80.429688 204.347656 79 202.832031 77.640625 C 201.390625 76.351563 195.011719 77.9375 193.128906 78.433594 C 192.261719 79.410156 190.546875 80.175781 189.285156 79.6875 C 189.082031 78.507813 190.652344 76.105469 191.628906 75.363281 C 192.453125 73.566406 197.558594 63.523438 198.539063 62.878906 C 201.015625 62.578125 216.460938 73.757813 216.882813 76.113281 C 216.148438 77.691406 210.054688 79.808594 208.226563 80.726563 C 205.4375 82.132813 202.625 83.835938 199.898438 85.253906 Z M 160.601563 85.53125 C 158.414063 86.542969 155.5 85.753906 155.445313 82.71875 C 155.410156 80.945313 155.742188 76.964844 156.292969 75.339844 C 156.976563 73.308594 159.742188 64.921875 162.03125 64.675781 C 164.347656 66.941406 162.210938 82.363281 160.601563 85.53125 Z M 97.941406 61.867188 C 100.195313 61.601563 101.21875 64.011719 102.195313 65.578125 C 103.960938 68.40625 111.804688 79.300781 111.488281 80.117188 C 110.796875 81.898438 98.648438 79.480469 104.425781 85.796875 C 109.296875 91.125 98.550781 85.746094 97.453125 85.335938 C 93.476563 83.847656 89.632813 82.25 85.53125 81.054688 C 78.3125 78.945313 75.234375 78.84375 78.992188 75.398438 C 81.726563 72.890625 94.988281 62.214844 97.941406 61.867188 Z M 178.25 97.804688 C 177.253906 95.011719 190.296875 79.578125 195.378906 81.652344 C 195.859375 83.503906 190.1875 90.226563 188.613281 91.699219 C 187.859375 92.40625 184.484375 94.394531 183.433594 94.972656 C 182 95.761719 179.804688 98.230469 178.25 97.804688 Z M 148.402344 83.980469 C 147.796875 82.710938 148.644531 79.363281 148.703125 77.710938 C 148.785156 75.410156 148.640625 73.136719 148.742188 70.839844 C 148.816406 69.242188 149.804688 59.941406 150.632813 59.21875 C 152.566406 60.171875 152.886719 81.527344 151.859375 83.980469 C 150.597656 84.664063 149.675781 84.597656 148.402344 83.980469 Z M 204.925781 87.660156 C 202.429688 90.117188 182.960938 104.382813 180.667969 104.464844 C 179.507813 103.800781 179.273438 103.230469 179.390625 101.902344 C 180.355469 100.261719 183.820313 99.117188 185.484375 97.910156 C 190.355469 94.382813 198.40625 88.542969 203.519531 86.539063 C 204.519531 85.507813 206.59375 84.257813 207.925781 84.664063 C 207.976563 86.003906 206.109375 87.140625 204.925781 87.660156 Z M 118.886719 89.457031 C 122.859375 94.113281 127.113281 96.371094 123.671875 98.246094 C 122.414063 98.160156 115.496094 93.945313 114.125 92.949219 C 112.839844 92.015625 112.882813 90.078125 109.296875 86.554688 C 108.527344 85.800781 107.914063 85.296875 108.035156 84.457031 C 111.324219 83.214844 116.84375 87.066406 118.886719 89.457031 Z M 112.425781 99.363281 C 106.195313 95.910156 92.902344 89.9375 88.351563 85.828125 C 91.851563 85.519531 102.578125 90.472656 106.085938 92.253906 C 107.8125 93.128906 121.464844 100.121094 120.847656 101.964844 C 120.214844 103.851563 114.054688 100.265625 112.425781 99.363281 Z M 219.472656 79.429688 C 225.96875 82.230469 234.257813 96.648438 237.761719 102.953125 C 246.582031 118.824219 232.300781 105.964844 214.703125 109.695313 C 207.140625 111.300781 198.957031 113.980469 191.214844 113.992188 C 189.511719 113.992188 186.140625 113.925781 184.585938 113.410156 C 183.296875 112.988281 181.828125 111.585938 183.683594 110.808594 C 184.84375 110.320313 188.195313 110.953125 189.679688 111 C 197.132813 111.242188 199.660156 109.433594 205.539063 106.09375 C 207.117188 105.195313 213.304688 102.46875 212.089844 100.304688 C 210.539063 97.546875 203.898438 97.929688 201.226563 97.429688 C 196.605469 96.5625 202.671875 93.214844 204.222656 91.980469 C 206.820313 89.917969 209.46875 87.851563 212.015625 85.734375 C 214.644531 83.550781 216.609375 81.472656 219.472656 79.429688 Z M 92.558594 101.757813 C 91.734375 103.871094 89.859375 103.828125 90.871094 106.234375 C 92.800781 107.246094 103.941406 106.058594 102.792969 109.527344 C 101.4375 110.207031 97.113281 109.808594 95.171875 109.953125 C 89.367188 110.011719 83.765625 111.472656 77.871094 111.808594 C 70.753906 112.21875 67.375 112.839844 59.96875 111.914063 C 57.4375 111.601563 54.019531 111.65625 55.410156 108.066406 C 57.421875 102.859375 62.742188 94.1875 66.011719 89.898438 C 74.78125 78.386719 71.582031 79.757813 87.925781 89.476563 C 91.984375 91.890625 96.261719 94.136719 100.410156 96.40625 C 106.28125 99.625 98.058594 97.210938 92.558594 101.757813 Z M 184.183594 106.953125 C 184.703125 103.910156 201.859375 98.191406 206.109375 101.292969 C 206.191406 102.78125 205.589844 102.601563 204.398438 103.132813 C 203.257813 103.644531 199.164063 106.773438 197.242188 107.269531 C 194.539063 107.964844 186.195313 108.886719 184.183594 106.953125 Z M 95.851563 103.546875 C 97.734375 98.855469 118.886719 104.007813 119.070313 107.058594 C 119.257813 110.117188 115.355469 108.578125 113.761719 108.46875 C 112.15625 108.355469 107.976563 108.359375 106.679688 107.855469 C 105.199219 107.277344 104.835938 105.460938 101.898438 104.882813 C 100.328125 104.570313 96.90625 104.636719 95.851563 103.546875 Z M 110.363281 111.433594 C 111.851563 110.925781 113.527344 111.234375 115.054688 111.476563 C 116.8125 111.753906 118.605469 111.21875 118.238281 113.171875 C 116.4375 114.03125 112.285156 112.144531 110.363281 111.433594 Z M 143.6875 88.226563 C 154.914063 86.074219 166.699219 90.523438 173.636719 99.648438 C 175.410156 101.984375 182.234375 112.769531 175.71875 112.707031 C 172.5 112.675781 169.121094 112.003906 165.875 111.871094 C 155.707031 111.457031 146.6875 113.121094 135.929688 113.410156 C 125.667969 113.683594 119.878906 116.417969 121.980469 108.757813 C 124.558594 99.363281 135.550781 89.785156 143.6875 88.226563 Z M 105.570313 117.402344 C 104.523438 118.066406 96.457031 117.191406 95.714844 116.375 C 97.089844 114.867188 103.917969 116.148438 105.570313 117.402344 Z M 214.171875 116.648438 C 214.925781 115.105469 221.175781 115.042969 222.835938 115.289063 C 224.367188 115.519531 225.960938 115.878906 227.425781 116.082031 C 228.648438 116.253906 230.710938 116.027344 230.96875 117.292969 C 229.234375 117.917969 225.007813 116.980469 222.722656 116.941406 C 220.859375 116.914063 215.535156 117.144531 214.171875 116.648438 Z M 93.023438 118.6875 C 99.875 118.300781 110.035156 120.519531 117.007813 121.605469 C 125.476563 122.925781 132.15625 121.203125 140.472656 120.316406 C 149.199219 119.390625 157.964844 119.164063 166.730469 119.535156 C 175.089844 119.890625 183.128906 121.691406 191.488281 121.722656 C 199.855469 121.753906 207.703125 119.550781 215.996094 119.097656 C 221.558594 118.792969 235.246094 119.585938 240.480469 121.074219 C 244.84375 122.3125 239.5625 122.539063 238.242188 122.449219 C 234.292969 122.171875 230.195313 121.519531 226.195313 121.191406 C 208.355469 119.726563 197.617188 125.332031 176.667969 122.261719 C 154.203125 118.96875 147.449219 122.234375 127.273438 124.007813 C 120.023438 124.644531 110.878906 122.910156 103.539063 121.945313 C 93.351563 120.605469 89.144531 121.507813 79.273438 122.628906 C 53.597656 125.550781 48.613281 120.070313 56.15625 120.75 C 67.308594 121.753906 70.03125 121.675781 81.292969 120.410156 C 84.898438 120.007813 89.707031 118.878906 93.023438 118.6875 Z M 91.792969 122.75 C 98.066406 122.433594 108.980469 124.332031 115.46875 125.316406 C 130.015625 127.519531 143.566406 121.84375 164.488281 122.875 C 172.792969 123.285156 180.4375 125.074219 188.914063 125.015625 C 197.511719 124.953125 205.324219 123.386719 213.738281 122.796875 C 223.117188 122.136719 248.996094 125.3125 242.035156 125.558594 C 238.429688 125.6875 234.066406 124.941406 230.414063 124.582031 C 221.257813 123.679688 214.65625 124.109375 205.59375 125.160156 C 178.058594 128.359375 176.769531 123.09375 155.433594 124.105469 C 147.074219 124.503906 139.289063 125.5625 131.03125 126.738281 C 122.390625 127.96875 115.710938 126.414063 107.253906 125.421875 C 96.972656 124.210938 92.871094 124.484375 82.71875 125.761719 C 60.566406 128.550781 49.566406 124.492188 55.402344 124.695313 C 59.574219 124.839844 63.078125 125.484375 67.496094 125.382813 C 77.566406 125.15625 85.183594 123.085938 91.792969 122.75 Z M 50.914063 127.023438 C 51.039063 126.335938 55.828125 127.769531 56.519531 127.910156 C 61.917969 129.023438 75.621094 128.441406 80.816406 127.679688 C 84.820313 127.09375 92.203125 125.636719 95.894531 125.875 C 97.464844 125.976563 109.199219 127.09375 109.488281 128.0625 C 107.769531 129.132813 97.574219 127.449219 94.734375 127.515625 C 85.511719 127.730469 81.207031 130.402344 64.128906 129.851563 C 61.597656 129.769531 52.667969 128.605469 50.914063 127.023438 Z M 217.65625 128.015625 C 221.691406 127.914063 226.339844 128.421875 230.375 128.824219 C 233.914063 129.175781 238.953125 129.476563 242.289063 130.152344 C 247.191406 131.152344 242.269531 131.3125 240.539063 131.222656 C 236.65625 131.023438 232.359375 130.394531 228.4375 130.003906 C 219.136719 129.078125 212.273438 129.835938 203.121094 130.960938 C 182.460938 133.503906 174.089844 128.65625 152.058594 129.800781 C 143.761719 130.230469 135.886719 131.9375 127.769531 132.546875 C 119.480469 133.175781 111.160156 131.707031 102.859375 131.140625 C 87.601563 130.101563 67.425781 135.640625 53.28125 130.628906 C 49.328125 129.230469 56.019531 130.4375 56.378906 130.511719 C 60.359375 131.324219 64.441406 131.621094 68.5 131.648438 C 77.292969 131.703125 84.980469 129.921875 93.402344 129.488281 C 101.503906 129.074219 110.195313 130.597656 118.308594 131.261719 C 132.1875 132.398438 147.734375 126.523438 168.46875 128.492188 C 177.042969 129.304688 184.199219 130.882813 193.015625 130.464844 C 201.164063 130.078125 209.75 128.210938 217.65625 128.015625 Z M 150.253906 133.453125 C 159.628906 132.6875 169.019531 133.398438 178.3125 134.625 C 200.246094 137.519531 208.851563 131.28125 233.574219 134.183594 C 237.207031 134.609375 243.1875 134.53125 245.921875 136.945313 C 248.730469 139.433594 248.886719 145.660156 248.28125 149.058594 C 247.386719 154.097656 243.824219 154.792969 239.386719 154.519531 C 219.222656 153.269531 218.882813 153.066406 197.4375 154.546875 C 178.164063 155.878906 160.632813 151.234375 141.582031 152.753906 C 126.28125 153.972656 116.988281 156.671875 100.480469 156.070313 C 95.933594 155.902344 91.691406 155.058594 87.214844 154.796875 C 78.46875 154.285156 69.429688 156.5 60.179688 156.113281 C 48.722656 155.640625 45.683594 151.453125 47.480469 139.859375 C 48.800781 131.363281 55.265625 136.144531 68.238281 136.320313 C 77.847656 136.453125 86.625 134.660156 95.953125 134.566406 C 105.226563 134.472656 114.648438 136.367188 123.761719 136.304688 C 132.347656 136.246094 141.601563 134.160156 150.253906 133.453125 Z M 178.902344 158.953125 C 179.175781 158.859375 203.21875 158.214844 203.757813 158.367188 C 201.816406 160.222656 181.128906 160.910156 178.902344 158.953125 Z M 66.003906 161.542969 C 62.460938 161.589844 49.25 161.59375 47.535156 158.273438 C 49.761719 157.46875 53.472656 159.34375 56.035156 159.519531 C 59.371094 159.75 62.601563 159.949219 65.949219 159.703125 C 68.257813 159.535156 83.785156 158.179688 84.65625 158.84375 C 83.011719 160.355469 68.84375 161.507813 66.003906 161.542969 Z M 142.394531 158.078125 C 152.828125 157.144531 164.148438 158.636719 174.445313 160.445313 C 187.1875 162.683594 192.734375 162.15625 205.367188 160.402344 C 218.058594 158.636719 225.496094 160.179688 237.785156 161.042969 C 239.746094 161.183594 243.65625 161.320313 245.367188 161.964844 C 247.691406 162.839844 243.238281 162.875 242.9375 162.863281 C 237.894531 162.722656 232.636719 161.699219 227.558594 161.28125 C 215.4375 160.28125 207.050781 162.464844 195.441406 163.320313 C 183.828125 164.175781 175.597656 161.703125 164.476563 160.367188 C 142.597656 157.734375 129.195313 162.878906 125.566406 162.335938 C 123.296875 161.992188 127.445313 160.695313 127.6875 160.625 C 132.359375 159.292969 137.554688 158.511719 142.394531 158.078125 Z M 128.667969 164.210938 C 129.941406 162.695313 153.429688 160.210938 155.359375 161.710938 C 154.09375 162.699219 144.15625 162.910156 141.78125 163.226563 C 139.597656 163.511719 129.984375 165.035156 128.667969 164.210938 Z M 54.652344 163.375 C 55.855469 162.835938 61.949219 163.492188 63.820313 163.496094 C 67.628906 163.507813 78.355469 162.667969 81.980469 161.695313 C 83.957031 161.164063 88.386719 160.492188 90.019531 161.867188 C 88.730469 164.550781 56.242188 165.71875 54.652344 163.375 Z M 200.136719 166.769531 C 200.828125 166.097656 209.351563 165.238281 211.019531 164.949219 C 218.425781 163.671875 227.761719 165.179688 235.296875 165.96875 C 237.101563 166.15625 245.773438 166.25 246.34375 167.589844 C 245.222656 169.03125 237.441406 167.539063 235.515625 167.296875 C 231.488281 166.78125 228.0625 166.308594 223.96875 166.117188 C 220.710938 165.964844 201.269531 167.804688 200.136719 166.769531 Z M 150.195313 167.324219 C 151.695313 165.414063 176.214844 166.785156 178.453125 168.355469 C 177.097656 169.265625 166.640625 168.164063 164.253906 168.085938 C 161.992188 168.011719 151.433594 168.199219 150.195313 167.324219 Z M 178.546875 171.390625 C 180.050781 170.355469 194.015625 170.992188 194.796875 171.261719 C 194.761719 172.328125 193.222656 173.320313 192.140625 173.441406 C 189.394531 173.746094 189.40625 173.042969 187.589844 172.628906 C 187.4375 172.59375 180.292969 172.898438 178.546875 171.390625 Z M 109.269531 174.320313 C 109.910156 175.125 109.992188 175.316406 109.617188 176.296875 C 108.59375 176.714844 108.453125 176.703125 107.675781 175.941406 C 107.632813 174.730469 108.027344 174.382813 109.269531 174.320313 Z M 155.105469 175.601563 C 156.753906 174.191406 159.476563 174.796875 161.53125 174.828125 C 163.371094 174.859375 166.644531 174.765625 168.175781 175.703125 C 169.109375 177.132813 169.078125 180.082031 168.199219 181.527344 C 166.761719 182.515625 164.277344 182.363281 162.59375 182.023438 C 160.027344 181.496094 160.613281 179.683594 158.886719 179.558594 C 157.367188 180.445313 158.148438 181.824219 156.328125 182.324219 C 155.105469 182.664063 129.964844 182.632813 127.183594 182.550781 C 125.109375 182.492188 124.429688 182.441406 123.09375 180.820313 C 118.597656 175.367188 122.785156 176.347656 131.46875 175.828125 C 135.035156 175.613281 138.621094 175.210938 142.179688 175.0625 C 151.144531 174.695313 145.539063 177.890625 149.164063 179.691406 C 152.53125 181.363281 156.050781 179.335938 155.105469 175.601563 Z M 203.929688 176.074219 C 204.152344 173.921875 206.121094 174.363281 205.691406 176.25 C 204.519531 176.691406 204.960938 176.710938 203.929688 176.074219 Z M 58.371094 178.378906 C 62.546875 178.464844 66.472656 178.640625 70.683594 178.550781 C 73.15625 178.496094 81.027344 177.617188 82.632813 178.171875 C 83.714844 179.53125 83.019531 183.261719 86.496094 181.597656 C 87.074219 180.183594 86.808594 176.980469 89.988281 178.011719 C 91.5625 182.105469 89.21875 188.546875 89 190.03125 C 87.742188 198.542969 90.1875 200.214844 85.230469 200.167969 C 84.015625 199.878906 83.492188 199.882813 83.21875 198.628906 L 84.710938 197.9375 L 85.351563 196.898438 C 84.148438 195.96875 82.109375 196.289063 80.902344 196.886719 C 78.300781 199.589844 84.644531 206.824219 93.339844 201.835938 C 99.625 198.230469 95.710938 186.804688 97.011719 184.648438 C 98.667969 183.109375 101.886719 182.273438 104.128906 182.011719 C 108.617188 181.492188 108.625 182.472656 112.164063 183.402344 C 113.859375 183.863281 115.203125 185.058594 116.140625 186.503906 C 117.816406 189.085938 118.054688 187.886719 118.335938 191.367188 C 118.558594 194.179688 118.503906 201.773438 116.785156 204 C 114.414063 213.859375 111.621094 223.753906 108.71875 233.46875 C 107.222656 238.46875 107.792969 239.679688 98.339844 234.316406 C 79.347656 223.539063 61.160156 204.914063 53.976563 184.027344 C 52.738281 182.855469 51.015625 178.605469 51.578125 176.945313 C 52.824219 176.59375 57.371094 177.601563 58.371094 178.378906 Z M 96.296875 178.863281 L 94.898438 178.828125 L 94.828125 177.230469 L 96.144531 177.023438 C 96.757813 178.011719 96.675781 177.808594 96.296875 178.863281 Z M 172.265625 181.273438 C 171.191406 179.984375 170.582031 177.753906 170.992188 176.140625 C 172.921875 175.40625 182.1875 176.9375 183.714844 178.285156 C 183.351563 180.957031 182.125 181.375 179.644531 181.421875 C 177.488281 181.457031 174.3125 181.640625 172.265625 181.273438 Z M 198.605469 226.734375 C 197.359375 224.835938 198.902344 223.660156 197.679688 222.105469 C 196.453125 222.894531 197.515625 223.570313 196.617188 224.886719 C 195.402344 224.972656 195.039063 223.675781 194.730469 222.589844 C 194.375 220.425781 190.472656 211.882813 189.398438 208.492188 C 188.128906 204.484375 185.773438 196.273438 185.84375 192.3125 C 185.902344 188.894531 186.960938 185.304688 190.523438 183.824219 C 191.582031 182.230469 193.714844 181.800781 195.550781 181.761719 C 199.164063 181.683594 204.472656 179.972656 206.769531 183.898438 C 207.167969 184.578125 207.542969 189.617188 207.53125 190.640625 C 207.851563 194.871094 207.816406 196.980469 212.097656 198.898438 C 221.183594 202.976563 226.820313 190.617188 222.328125 188.085938 C 219.144531 186.292969 217.601563 192.847656 215.121094 190.710938 C 212.949219 188.839844 215.351563 186.257813 212.9375 180.527344 C 210.859375 175.589844 217.761719 176.722656 220.53125 176.730469 C 224.894531 176.75 229.164063 176.421875 233.527344 176.652344 C 236.277344 176.796875 243.09375 176.144531 243.03125 179.925781 C 242.980469 183.242188 236.8125 194.558594 234.910156 197.925781 C 229.207031 208.011719 219.375 218.75 210.21875 225.722656 C 208.558594 226.984375 204.484375 230.628906 202.410156 230.101563 C 199.355469 229.320313 202.996094 224.265625 198.605469 226.734375 Z M 190.515625 178.523438 C 191.734375 178.007813 192.546875 177.984375 193.5 178.929688 L 193.433594 180.050781 C 192.015625 180.984375 189.976563 180.335938 190.515625 178.523438 Z M 207.769531 180.421875 C 209.320313 180.699219 209.234375 182.769531 209.898438 184.261719 C 210.445313 185.492188 211.875 187.035156 211.710938 188.191406 C 209.851563 188.726563 209.039063 186.902344 208.480469 185.289063 C 208.027344 183.984375 206.945313 181.515625 207.769531 180.421875 Z M 115.265625 181.167969 C 116.738281 179.886719 118.074219 180.890625 117.402344 182.523438 C 116.429688 183.035156 116.433594 183.058594 115.519531 182.460938 Z M 180.410156 186.875 C 180.785156 188.28125 180.671875 188.824219 179.296875 189.390625 C 176.480469 188.792969 177.945313 184.84375 180.410156 186.875 Z M 92.496094 189.507813 C 93.597656 189.1875 93.644531 189.238281 94.453125 190.035156 C 94.738281 191.601563 94.25 192.042969 92.695313 191.835938 C 91.9375 190.953125 91.785156 190.507813 92.496094 189.507813 Z M 212.453125 195.207031 C 215.082031 194.90625 213.488281 197.558594 217.304688 194.398438 C 218.691406 193.257813 220.121094 190.78125 221.320313 190.9375 C 221.800781 192.707031 219.464844 195.070313 218.089844 196.128906 C 216.113281 197.652344 211.519531 198.761719 212.453125 195.207031 Z M 127.183594 195.371094 C 123.363281 196.441406 123.699219 188.933594 124.304688 186.886719 C 125.894531 186.375 127.929688 188.003906 128.128906 189.519531 C 128.265625 190.570313 127.703125 194.535156 127.183594 195.371094 Z M 92.085938 195.949219 C 93.734375 195.566406 93.980469 196.71875 93.082031 197.851563 C 91.734375 197.722656 91.566406 197.195313 92.085938 195.949219 Z M 90.285156 200.058594 C 91.632813 199.609375 92.050781 200.125 91.664063 201.441406 L 90.226563 201.648438 C 89.898438 200.605469 89.796875 201.128906 90.285156 200.058594 Z M 180.808594 201.972656 C 182.808594 201.738281 183.589844 209.496094 183.480469 209.886719 C 181.175781 210.34375 181.78125 208.441406 181.3125 206.773438 C 180.832031 205.054688 179.832031 203.875 180.808594 201.972656 Z M 121.492188 204.105469 C 122.304688 203.566406 122.175781 203.636719 123.144531 203.867188 C 124.667969 206.507813 120.523438 206.9375 121.492188 204.105469 Z M 154.347656 210.222656 C 150.363281 210.078125 132.53125 210.828125 130.386719 210.042969 C 130.007813 208.65625 130.484375 206.816406 130.882813 205.402344 C 131.398438 203.566406 130.746094 202.320313 131.992188 201.039063 C 132.132813 197.917969 134.152344 186.742188 137.347656 185.566406 C 138.148438 185.269531 166.804688 185.0625 168.3125 185.46875 C 170.445313 186.042969 171.15625 190.839844 171.726563 192.765625 C 172.53125 195.515625 173.195313 198.140625 173.957031 200.875 C 174.585938 203.117188 176.726563 206.976563 175.519531 209.101563 C 174.144531 209.921875 157.101563 210.257813 154.347656 210.222656 Z M 117.675781 237.421875 C 116.335938 237.347656 116.441406 236.550781 116.203125 235.273438 C 115.613281 232.117188 113.910156 229.539063 115.554688 223.792969 C 116.230469 221.429688 117.128906 219.660156 117.953125 217.46875 C 118.492188 216.027344 119.410156 212.039063 120.890625 211.761719 C 121.917969 213.121094 118.332031 219.976563 117.265625 223.84375 C 116.300781 227.34375 116.242188 227.15625 116.898438 230.710938 C 117.203125 232.367188 118.699219 236.179688 117.675781 237.421875 Z M 129.21875 215.109375 C 130.296875 212.898438 131.386719 213.246094 133.742188 213.242188 L 165.589844 212.695313 C 167.652344 212.683594 176.878906 211.851563 177.71875 213.566406 C 178.855469 215.875 175.636719 215.773438 174.335938 215.769531 C 172.148438 215.761719 169.960938 215.761719 167.773438 215.753906 C 163.488281 215.738281 159.253906 215.566406 154.976563 215.542969 C 150.097656 215.515625 132.640625 215.785156 129.21875 215.109375 Z M 188.339844 219.039063 C 189.433594 219.898438 189.734375 223.675781 188.957031 224.804688 C 187.195313 224.296875 186.980469 219.953125 188.339844 219.039063 Z M 172.15625 235.246094 C 169.589844 236.507813 166.660156 235.707031 164.257813 236.421875 C 163.644531 237.960938 164.71875 238.1875 163.640625 240.011719 C 162.195313 240.699219 143.132813 240.65625 141.691406 239.945313 C 140.851563 238.421875 141.53125 238.082031 140.988281 236.640625 C 137.484375 235.113281 127.09375 236.433594 125.050781 234.796875 C 124.558594 233.375 125.230469 228.667969 126.132813 227.558594 C 126.582031 225.667969 127.328125 220.296875 128.277344 218.945313 C 130.71875 217.695313 164.425781 218.460938 169.960938 218.492188 C 181.632813 218.558594 178.164063 217.378906 182.253906 227.148438 C 186.027344 236.167969 181.800781 235.050781 172.15625 235.246094 Z M 121.828125 240.042969 L 123.480469 239.917969 L 123.609375 241.679688 L 121.832031 241.855469 C 121.449219 240.765625 121.453125 241.035156 121.828125 240.042969 Z M 144.722656 245.097656 C 143.289063 245.40625 141.414063 245.597656 140.28125 244.835938 L 140.242188 243.585938 C 141.539063 243.121094 143.46875 243.1875 144.691406 243.527344 Z M 157.859375 244.488281 C 158.476563 242.746094 159.675781 243.324219 159.574219 244.945313 C 158.328125 245.316406 158.671875 245.429688 157.859375 244.488281 "/>
<path style=" stroke:none;fill-rule:evenodd;fill:rgb(92.89856%,20.399475%,22.399902%);fill-opacity:1;" d="M 216.183594 212.363281 C 214.261719 212.082031 215.023438 210.488281 212.882813 211.171875 C 211.910156 214.941406 220.121094 215.835938 220.167969 212.066406 C 218.609375 211.105469 218.15625 212.65625 216.183594 212.363281 "/>
<path style=" stroke:none;fill-rule:evenodd;fill:rgb(92.89856%,20.399475%,22.399902%);fill-opacity:1;" d="M 136.425781 179.667969 C 138.242188 181.179688 143.460938 180.621094 141.773438 178.367188 C 140.695313 176.933594 136.101563 176.863281 136.425781 179.667969 "/>
<path style=" stroke:none;fill-rule:evenodd;fill:rgb(92.89856%,20.399475%,22.399902%);fill-opacity:1;" d="M 95.171875 109.953125 C 97.113281 109.808594 101.4375 110.207031 102.792969 109.527344 C 103.941406 106.058594 92.800781 107.246094 90.871094 106.234375 C 89.859375 103.828125 91.734375 103.871094 92.558594 101.757813 C 90.960938 103.105469 89.640625 104.097656 90.3125 106.347656 C 92.539063 108.035156 100.933594 106.539063 101.914063 108.929688 C 100.078125 110.261719 96.964844 108.125 95.171875 109.953125 "/>
<path style=" stroke:none;fill-rule:evenodd;fill:rgb(92.89856%,20.399475%,22.399902%);fill-opacity:1;" d="M 126.796875 178.882813 C 126.691406 182.203125 132.113281 181.796875 131.714844 178.726563 C 130.34375 177.886719 128.066406 177.898438 126.796875 178.882813 "/>
<path style=" stroke:none;fill-rule:evenodd;fill:rgb(92.89856%,20.399475%,22.399902%);fill-opacity:1;" d="M 195.117188 189.074219 C 196.207031 187.335938 193.011719 184.617188 191.808594 187.273438 C 190.78125 189.535156 193.527344 191.613281 195.117188 189.074219 "/>
<path style=" stroke:none;fill-rule:evenodd;fill:rgb(92.89856%,20.399475%,22.399902%);fill-opacity:1;" d="M 95.714844 116.375 C 96.457031 117.191406 104.523438 118.066406 105.570313 117.402344 C 103.917969 116.148438 97.089844 114.867188 95.714844 116.375 "/>
<path style=" stroke:none;fill-rule:evenodd;fill:rgb(92.89856%,20.399475%,22.399902%);fill-opacity:1;" d="M 225.96875 186.382813 C 226.238281 188.785156 229.953125 188.578125 229.730469 186.140625 C 229.503906 183.691406 225.640625 183.46875 225.96875 186.382813 "/>
<path style=" stroke:none;fill-rule:evenodd;fill:rgb(92.89856%,20.399475%,22.399902%);fill-opacity:1;" d="M 192.449219 195.75 C 193.734375 193.738281 190.652344 191.503906 189.402344 193.308594 C 187.824219 195.601563 191.160156 197.769531 192.449219 195.75 "/>
<path style=" stroke:none;fill-rule:evenodd;fill:rgb(92.89856%,20.399475%,22.399902%);fill-opacity:1;" d="M 195.164063 206.304688 C 193.609375 208.917969 195.308594 210.863281 198.007813 209.148438 C 198.710938 206.832031 197.515625 205.476563 195.164063 206.304688 "/>
<path style=" stroke:none;fill-rule:evenodd;fill:rgb(92.89856%,20.399475%,22.399902%);fill-opacity:1;" d="M 195.398438 199.917969 C 193.78125 197.429688 191.476563 198.480469 191.898438 200.984375 C 192.320313 203.480469 195.605469 202.738281 195.398438 199.917969 "/>
<path style=" stroke:none;fill-rule:evenodd;fill:rgb(92.89856%,20.399475%,22.399902%);fill-opacity:1;" d="M 227.625 196.460938 C 230.480469 197.753906 231.882813 195.253906 230.441406 193.632813 C 229.167969 192.191406 226.390625 193.683594 227.625 196.460938 "/>
<path style=" stroke:none;fill-rule:evenodd;fill:rgb(92.89856%,20.399475%,22.399902%);fill-opacity:1;" d="M 66.179688 183.402344 C 65.480469 187.042969 68.800781 186.789063 69.609375 185.328125 C 70.535156 183.65625 68.59375 181.507813 66.179688 183.402344 "/>
<path style=" stroke:none;fill-rule:evenodd;fill:rgb(92.89856%,20.399475%,22.399902%);fill-opacity:1;" d="M 70.570313 203.433594 C 71.277344 202.210938 71.261719 201.65625 70.769531 200.34375 C 66.3125 198.230469 66.648438 205.144531 70.570313 203.433594 "/>
<path style=" stroke:none;fill-rule:evenodd;fill:rgb(92.89856%,20.399475%,22.399902%);fill-opacity:1;" d="M 207.804688 206.054688 C 208.324219 208 212.246094 207.398438 211.289063 204.671875 C 210.4375 202.234375 207.199219 203.78125 207.804688 206.054688 "/>
<path style=" stroke:none;fill-rule:evenodd;fill:rgb(92.89856%,20.399475%,22.399902%);fill-opacity:1;" d="M 199.175781 192.003906 C 199.550781 193.460938 203.515625 194.410156 202.640625 190.871094 C 201.984375 188.230469 198.636719 189.898438 199.175781 192.003906 "/>
<path style=" stroke:none;fill-rule:evenodd;fill:rgb(92.89856%,20.399475%,22.399902%);fill-opacity:1;" d="M 220.207031 204.15625 C 220.183594 201.105469 217.257813 201.058594 216.761719 202.984375 C 216.054688 205.707031 218.8125 206.546875 220.207031 204.15625 "/>
<path style=" stroke:none;fill-rule:evenodd;fill:rgb(92.89856%,20.399475%,22.399902%);fill-opacity:1;" d="M 201.269531 223.128906 C 204.058594 224.273438 205.0625 221.386719 203.890625 220.203125 C 202.558594 218.855469 199.644531 220.207031 201.269531 223.128906 "/>
<path style=" stroke:none;fill-rule:evenodd;fill:rgb(92.89856%,20.399475%,22.399902%);fill-opacity:1;" d="M 64.652344 194.039063 C 62.578125 195.050781 64.453125 198.261719 66.683594 197.050781 C 68.355469 196.136719 67.492188 192.65625 64.652344 194.039063 "/>
<path style=" stroke:none;fill-rule:evenodd;fill:rgb(92.89856%,20.399475%,22.399902%);fill-opacity:1;" d="M 70.882813 189.363281 C 68.304688 191.105469 70.757813 193.515625 72.519531 192.578125 C 74.714844 191.410156 72.828125 188.050781 70.882813 189.363281 "/>
<path style=" stroke:none;fill-rule:evenodd;fill:rgb(92.89856%,20.399475%,22.399902%);fill-opacity:1;" d="M 201.074219 200.324219 C 202.28125 197.742188 200.75 196.09375 198.449219 197.375 C 197.914063 198.558594 197.925781 199.152344 198.46875 200.335938 C 199.640625 200.863281 199.902344 200.730469 201.074219 200.324219 "/>
<path style=" stroke:none;fill-rule:evenodd;fill:rgb(92.89856%,20.399475%,22.399902%);fill-opacity:1;" d="M 204.148438 207.160156 C 204.667969 204.785156 203.546875 203.472656 201.171875 204.511719 C 200.621094 205.6875 200.609375 206.183594 201.121094 207.375 C 202.589844 208.039063 202.789063 207.800781 204.148438 207.160156 "/>
<path style=" stroke:none;fill-rule:evenodd;fill:rgb(92.89856%,20.399475%,22.399902%);fill-opacity:1;" d="M 234.117188 181.863281 C 235.242188 179.894531 232.015625 178.019531 230.980469 180 C 229.632813 182.570313 233.011719 183.792969 234.117188 181.863281 "/>
<path style=" stroke:none;fill-rule:evenodd;fill:rgb(92.89856%,20.399475%,22.399902%);fill-opacity:1;" d="M 227.789063 202.527344 C 223.726563 200.648438 223.152344 207.15625 227.902344 205.308594 C 228.402344 204.046875 228.378906 203.769531 227.789063 202.527344 "/>
<path style=" stroke:none;fill-rule:evenodd;fill:rgb(92.89856%,20.399475%,22.399902%);fill-opacity:1;" d="M 60.195313 187.714844 C 58.242188 188.660156 60.097656 191.792969 62.410156 190.613281 C 64.070313 189.769531 62.957031 186.375 60.195313 187.714844 "/>
<path style=" stroke:none;fill-rule:evenodd;fill:rgb(92.89856%,20.399475%,22.399902%);fill-opacity:1;" d="M 235.554688 188.972656 C 236.503906 185.757813 233.261719 185.523438 232.570313 186.878906 C 231.554688 188.863281 233.449219 191.085938 235.554688 188.972656 "/>
<path style=" stroke:none;fill-rule:evenodd;fill:rgb(92.89856%,20.399475%,22.399902%);fill-opacity:1;" d="M 202.675781 211.050781 C 203.226563 212.558594 206.851563 212.652344 206.167969 209.863281 C 205.640625 207.707031 201.792969 208.617188 202.675781 211.050781 "/>
<path style=" stroke:none;fill-rule:evenodd;fill:rgb(92.89856%,20.399475%,22.399902%);fill-opacity:1;" d="M 110.363281 111.433594 C 112.285156 112.144531 116.4375 114.03125 118.238281 113.171875 C 118.605469 111.21875 116.8125 111.753906 115.054688 111.476563 C 113.527344 111.234375 111.851563 110.925781 110.363281 111.433594 "/>
<path style=" stroke:none;fill-rule:evenodd;fill:rgb(92.89856%,20.399475%,22.399902%);fill-opacity:1;" d="M 224.152344 179.0625 C 222.769531 181.132813 224.488281 183.375 226.410156 181.9375 C 228.003906 180.746094 226.816406 177.925781 224.152344 179.0625 "/>
<path style=" stroke:none;fill-rule:evenodd;fill:rgb(92.89856%,20.399475%,22.399902%);fill-opacity:1;" d="M 199.972656 186.421875 L 200.117188 186.496094 C 201.503906 183.921875 199.59375 182.34375 198.027344 183.511719 C 197.046875 184.242188 196.855469 186.804688 199.972656 186.421875 "/>
<path style=" stroke:none;fill-rule:evenodd;fill:rgb(92.89856%,20.399475%,22.399902%);fill-opacity:1;" d="M 219.910156 179.234375 C 219.328125 178.320313 219.011719 178.324219 217.964844 178.253906 C 216.925781 179.5625 216.539063 179.757813 217.335938 181.46875 C 219.5625 182.253906 219.90625 181.09375 219.910156 179.234375 "/>
<path style=" stroke:none;fill-rule:evenodd;fill:rgb(92.89856%,20.399475%,22.399902%);fill-opacity:1;" d="M 76.863281 211.574219 C 75.046875 212.703125 77.070313 215.226563 79.292969 213.703125 C 81.105469 212.464844 78.320313 210.671875 76.863281 211.574219 "/>
<path style=" stroke:none;fill-rule:evenodd;fill:rgb(92.89856%,20.399475%,22.399902%);fill-opacity:1;" d="M 102.394531 215.863281 C 99.878906 214.550781 98.070313 216.523438 99.53125 217.789063 C 100.457031 218.589844 103.367188 218.300781 102.394531 215.863281 "/>
<path style=" stroke:none;fill-rule:evenodd;fill:rgb(92.89856%,20.399475%,22.399902%);fill-opacity:1;" d="M 184.019531 78.605469 C 185.523438 77.730469 185.6875 76.21875 187.074219 75.65625 C 187.570313 76.574219 186.8125 77.046875 186.464844 78.332031 C 187.671875 77.617188 187.894531 76.636719 188.480469 75.292969 C 188.808594 74.546875 189.707031 72.949219 189.6875 72.328125 C 188.878906 72.324219 184.457031 77.40625 184.019531 78.605469 "/>
<path style=" stroke:none;fill-rule:evenodd;fill:rgb(92.89856%,20.399475%,22.399902%);fill-opacity:1;" d="M 79.933594 184.085938 C 79.074219 186.761719 81.597656 186.789063 83.074219 185.628906 C 83.4375 183.167969 81.617188 183.265625 79.933594 184.085938 "/>
<path style=" stroke:none;fill-rule:evenodd;fill:rgb(92.89856%,20.399475%,22.399902%);fill-opacity:1;" d="M 78.6875 204.808594 C 79.503906 207.046875 82.730469 206.128906 82.359375 204.636719 C 81.96875 203.070313 79.53125 202.835938 78.6875 204.808594 "/>
<path style=" stroke:none;fill-rule:evenodd;fill:rgb(92.89856%,20.399475%,22.399902%);fill-opacity:1;" d="M 92.792969 226.273438 C 91.921875 229.054688 95.289063 229.230469 96.09375 227.195313 C 95.585938 225.449219 94.203125 225.382813 92.792969 226.273438 "/>
<path style=" stroke:none;fill-rule:evenodd;fill:rgb(92.89856%,20.399475%,22.399902%);fill-opacity:1;" d="M 110.078125 208.8125 C 111.613281 209.417969 113.914063 209.25 113.105469 207.007813 C 111.421875 206.019531 108.996094 206.457031 110.078125 208.8125 "/>
<path style=" stroke:none;fill-rule:evenodd;fill:rgb(92.89856%,20.399475%,22.399902%);fill-opacity:1;" d="M 218.226563 183.992188 C 214.042969 184.261719 216.492188 189.128906 218.902344 186.28125 C 219.0625 184.90625 218.953125 185.105469 218.226563 183.992188 "/>
<path style=" stroke:none;fill-rule:evenodd;fill:rgb(92.89856%,20.399475%,22.399902%);fill-opacity:1;" d="M 91.761719 214.308594 C 91.222656 217.058594 95.960938 217.011719 95.019531 214.1875 C 93.777344 213.5 92.933594 213.441406 91.761719 214.308594 "/>
<path style=" stroke:none;fill-rule:evenodd;fill:rgb(92.89856%,20.399475%,22.399902%);fill-opacity:1;" d="M 102.871094 232.292969 C 101.835938 235.261719 107.074219 235.472656 105.765625 232.171875 C 104.570313 231.707031 104.015625 231.671875 102.871094 232.292969 "/>
<path style=" stroke:none;fill-rule:evenodd;fill:rgb(92.89856%,20.399475%,22.399902%);fill-opacity:1;" d="M 94.335938 208.238281 C 92.820313 211.988281 99.078125 210.382813 97.171875 208.277344 C 96.023438 207.691406 95.507813 207.722656 94.335938 208.238281 "/>
<path style=" stroke:none;fill-rule:evenodd;fill:rgb(92.89856%,20.399475%,22.399902%);fill-opacity:1;" d="M 87.1875 221.722656 C 87.464844 223.460938 88.632813 223.585938 90.171875 223.0625 C 90.75 222.09375 90.769531 221.839844 90.191406 220.875 C 88.902344 220.515625 87.890625 220.527344 87.1875 221.722656 "/>
<path style=" stroke:none;fill-rule:evenodd;fill:rgb(92.89856%,20.399475%,22.399902%);fill-opacity:1;" d="M 59.0625 184.128906 C 59.488281 183.152344 59.488281 183.351563 59.082031 182.371094 C 55.1875 180.113281 54.976563 186.410156 59.0625 184.128906 "/>
<path style=" stroke:none;fill-rule:evenodd;fill:rgb(92.89856%,20.399475%,22.399902%);fill-opacity:1;" d="M 82.820313 191.730469 C 84.023438 192.246094 84.472656 192.253906 85.652344 191.6875 C 86.105469 190.675781 86.105469 190.859375 85.636719 189.851563 C 83.945313 189.199219 81.964844 189.421875 82.820313 191.730469 "/>
<path style=" stroke:none;fill-rule:evenodd;fill:rgb(92.89856%,20.399475%,22.399902%);fill-opacity:1;" d="M 53.976563 184.027344 C 53.527344 182.003906 51.738281 179.710938 52.316406 177.691406 C 54.054688 177.199219 56.488281 178.242188 58.371094 178.378906 C 57.371094 177.601563 52.824219 176.59375 51.578125 176.945313 C 51.015625 178.605469 52.738281 182.855469 53.976563 184.027344 "/>
<path style=" stroke:none;fill-rule:evenodd;fill:rgb(92.89856%,20.399475%,22.399902%);fill-opacity:1;" d="M 98.988281 188.359375 C 100.054688 189.125 101.234375 189.097656 102.292969 188.34375 C 102.960938 185.703125 98.394531 185.597656 98.988281 188.359375 "/>
<path style=" stroke:none;fill-rule:evenodd;fill:rgb(92.89856%,20.399475%,22.399902%);fill-opacity:1;" d="M 84.542969 209.933594 L 84.414063 211.554688 C 85.671875 212.328125 86.28125 212.328125 87.394531 211.546875 L 87.542969 209.921875 C 86.316406 209.21875 85.605469 209.160156 84.542969 209.933594 "/>
<path style=" stroke:none;fill-rule:evenodd;fill:rgb(92.89856%,20.399475%,22.399902%);fill-opacity:1;" d="M 88.925781 207.457031 C 90.109375 207.871094 90.777344 207.941406 91.789063 207.175781 C 92.246094 205.113281 90.417969 204.914063 88.921875 205.550781 C 88.484375 206.664063 88.472656 206.300781 88.925781 207.457031 "/>
<path style=" stroke:none;fill-rule:evenodd;fill:rgb(92.89856%,20.399475%,22.399902%);fill-opacity:1;" d="M 108.375 213.550781 L 108.203125 215.210938 C 109.550781 215.707031 110.144531 215.675781 111.339844 215.175781 C 112.007813 213.015625 109.980469 212.6875 108.375 213.550781 "/>
<path style=" stroke:none;fill-rule:evenodd;fill:rgb(92.89856%,20.399475%,22.399902%);fill-opacity:1;" d="M 107.015625 227.136719 C 107.476563 224.601563 103.390625 224.378906 103.828125 227.183594 C 104.863281 227.929688 105.992188 227.917969 107.015625 227.136719 "/>
<path style=" stroke:none;fill-rule:evenodd;fill:rgb(92.89856%,20.399475%,22.399902%);fill-opacity:1;" d="M 107.886719 197.65625 C 106.746094 196.867188 105.984375 197.027344 104.6875 197.527344 C 104.082031 199.949219 108.164063 200.734375 107.886719 197.65625 "/>
<path style=" stroke:none;fill-rule:evenodd;fill:rgb(92.89856%,20.399475%,22.399902%);fill-opacity:1;" d="M 81.839844 216.582031 C 80.792969 219.359375 85.835938 219.472656 84.820313 216.566406 C 83.621094 216.109375 83.035156 216.078125 81.839844 216.582031 "/>
<path style=" stroke:none;fill-rule:evenodd;fill:rgb(92.89856%,20.399475%,22.399902%);fill-opacity:1;" d="M 96.019531 202.867188 C 97.042969 203.660156 97.722656 203.585938 98.914063 203.070313 C 99.238281 201.996094 99.269531 202.410156 98.804688 201.347656 C 97.246094 200.574219 95.671875 200.78125 96.019531 202.867188 "/>
<path style=" stroke:none;fill-rule:evenodd;fill:rgb(92.89856%,20.399475%,22.399902%);fill-opacity:1;" d="M 175.121094 75.9375 C 176.550781 74.679688 178.683594 71.160156 180.734375 71.347656 C 181.097656 72.792969 180.308594 74.550781 179.761719 75.941406 L 180.210938 75.914063 C 180.96875 74.5625 181.722656 72.035156 181.140625 70.585938 C 179.496094 70.117188 175.46875 74.246094 175.121094 75.9375 "/>
<path style=" stroke:none;fill-rule:evenodd;fill:rgb(92.89856%,20.399475%,22.399902%);fill-opacity:1;" d="M 73.894531 197.460938 L 73.902344 199.238281 C 77.636719 200.933594 77.460938 195.207031 73.894531 197.460938 "/>
<path style=" stroke:none;fill-rule:evenodd;fill:rgb(92.89856%,20.399475%,22.399902%);fill-opacity:1;" d="M 73.796875 183.203125 C 74.863281 183.964844 75.808594 183.992188 76.820313 183.152344 L 76.898438 182.109375 C 75.679688 181.0625 73.621094 181.023438 73.796875 183.203125 "/>
<path style=" stroke:none;fill-rule:evenodd;fill:rgb(92.89856%,20.399475%,22.399902%);fill-opacity:1;" d="M 98.792969 193.574219 L 99.1875 195.25 C 100.441406 195.679688 100.511719 195.710938 101.617188 195.152344 L 101.828125 193.730469 C 100.554688 192.875 100.0625 193.136719 98.792969 193.574219 "/>
<path style=" stroke:none;fill-rule:evenodd;fill:rgb(92.89856%,20.399475%,22.399902%);fill-opacity:1;" d="M 98.792969 193.574219 Z M 98.792969 193.574219 C 100.0625 193.136719 100.554688 192.875 101.828125 193.730469 L 101.617188 195.152344 C 100.511719 195.710938 100.441406 195.679688 99.1875 195.25 L 98.792969 193.574219 "/>
<path style=" stroke:none;fill-rule:evenodd;fill:rgb(92.89856%,20.399475%,22.399902%);fill-opacity:1;" d="M 109.105469 194.222656 L 109.175781 193.109375 C 107.835938 192.476563 107.628906 192.164063 106.214844 192.945313 L 106.089844 194.085938 C 107.160156 195.160156 107.898438 194.871094 109.105469 194.222656 "/>
<path style=" stroke:none;fill-rule:evenodd;fill:rgb(92.89856%,20.399475%,22.399902%);fill-opacity:1;" d="M 106.125 205.046875 L 106.050781 203.390625 C 104.578125 203.039063 103.109375 202.746094 103.246094 204.6875 C 104.332031 205.449219 104.824219 205.21875 106.125 205.046875 "/>
<path style=" stroke:none;fill-rule:evenodd;fill:rgb(92.89856%,20.399475%,22.399902%);fill-opacity:1;" d="M 113.429688 194.8125 L 113.589844 196.179688 C 114.632813 196.554688 115.371094 196.746094 116.265625 196.085938 L 116.28125 194.789063 C 115.125 194.070313 114.566406 194.402344 113.429688 194.8125 "/>
<path style=" stroke:none;fill-rule:evenodd;fill:rgb(92.89856%,20.399475%,22.399902%);fill-opacity:1;" d="M 111.609375 74.269531 L 111.097656 72.699219 L 111.890625 72.414063 C 111.492188 71.496094 109.976563 70.023438 108.980469 70.121094 C 108.925781 71.351563 110.601563 73.613281 111.609375 74.269531 "/>
<path style=" stroke:none;fill-rule:evenodd;fill:rgb(92.89856%,20.399475%,22.399902%);fill-opacity:1;" d="M 203.519531 86.539063 C 204.933594 86.300781 205.109375 85.75 206.296875 85.878906 L 204.925781 87.660156 C 206.109375 87.140625 207.976563 86.003906 207.925781 84.664063 C 206.59375 84.257813 204.519531 85.507813 203.519531 86.539063 "/>
<path style=" stroke:none;fill-rule:evenodd;fill:rgb(92.89856%,20.399475%,22.399902%);fill-opacity:1;" d="M 101.28125 228.644531 L 101.414063 228.617188 C 99.992188 228.152344 97.996094 227.777344 98.621094 229.945313 C 99.816406 230.382813 99.859375 230.367188 101.148438 229.855469 L 101.28125 228.644531 "/>
<path style=" stroke:none;fill-rule:evenodd;fill:rgb(92.89856%,20.399475%,22.399902%);fill-opacity:1;" d="M 193.128906 78.433594 C 191.957031 78.679688 191.128906 79.261719 190.175781 79.066406 C 190.089844 77.765625 191.15625 76.5625 191.628906 75.363281 C 190.652344 76.105469 189.082031 78.507813 189.285156 79.6875 C 190.546875 80.175781 192.261719 79.410156 193.128906 78.433594 "/>
<path style=" stroke:none;fill-rule:evenodd;fill:rgb(92.89856%,20.399475%,22.399902%);fill-opacity:1;" d="M 199.898438 85.253906 L 198.351563 85.152344 L 198.367188 83.761719 C 197.503906 84.558594 197.070313 85.105469 197.285156 86.285156 C 198.253906 86.4375 199.066406 85.855469 199.898438 85.253906 "/>
<path style=" stroke:none;fill-rule:evenodd;fill:rgb(92.89856%,20.399475%,22.399902%);fill-opacity:1;" d="M 85.230469 200.167969 L 84.378906 199.140625 L 84.710938 197.9375 L 83.21875 198.628906 C 83.492188 199.882813 84.015625 199.878906 85.230469 200.167969 "/>
<path style=" stroke:none;fill-rule:evenodd;fill:rgb(92.89856%,20.399475%,22.399902%);fill-opacity:1;" d="M 198.023438 216.730469 C 200.8125 217.878906 201.816406 214.988281 200.644531 213.808594 C 199.308594 212.457031 196.398438 213.8125 198.023438 216.730469 "/>
<path style=" stroke:none;fill-rule:evenodd;fill:rgb(92.89856%,20.399475%,22.399902%);fill-opacity:1;" d="M 206.8125 218.527344 C 209.605469 219.675781 210.609375 216.78125 209.4375 215.601563 C 208.101563 214.253906 205.191406 215.605469 206.8125 218.527344 "/>
<path style=" stroke:none;fill-rule:evenodd;fill:rgb(92.89856%,20.399475%,22.399902%);fill-opacity:1;" d="M 104.582031 209.707031 C 102.070313 208.398438 100.257813 210.367188 101.722656 211.632813 C 102.644531 212.433594 105.554688 212.144531 104.582031 209.707031 "/>
<path style=" stroke:none;fill-rule:evenodd;fill:rgb(92.89856%,20.399475%,22.399902%);fill-opacity:1;" d="M 100.996094 221.191406 C 98.480469 219.878906 96.667969 221.851563 98.132813 223.117188 C 99.058594 223.917969 101.96875 223.628906 100.996094 221.191406 "/>
<path style=" stroke:none;fill-rule:evenodd;fill:rgb(92.89856%,20.399475%,22.399902%);fill-opacity:1;" d="M 72.585938 207.144531 C 70.769531 208.269531 72.789063 210.792969 75.011719 209.273438 C 76.824219 208.03125 74.042969 206.238281 72.585938 207.144531 "/>
<path style=" stroke:none;fill-rule:nonzero;fill:rgb(92.89856%,11.799622%,14.498901%);fill-opacity:1;" d="M 164.21875 197.191406 L 165.703125 197.191406 L 165.703125 199.179688 L 164.21875 199.179688 Z M 162.90625 197.191406 L 162.90625 199.179688 L 162.074219 199.179688 C 161.679688 199.179688 161.421875 199.421875 161.421875 199.800781 C 161.421875 199.96875 161.457031 200.148438 161.554688 200.34375 C 161.816406 200.816406 162.050781 201.347656 162.894531 201.859375 C 163.105469 201.980469 163.328125 202.027344 163.523438 202.027344 C 163.921875 202.027344 164.21875 201.800781 164.21875 201.316406 C 164.21875 201.089844 164.21875 200.601563 164.21875 200.359375 L 165.703125 200.359375 L 165.703125 202.953125 L 167.019531 203.863281 L 167.019531 197.191406 L 168.257813 197.191406 L 168.257813 202.953125 L 169.570313 203.863281 L 169.570313 197.191406 L 170.808594 197.191406 L 170.066406 196.132813 L 160.429688 196.132813 L 161.171875 197.191406 L 162.90625 197.191406 "/>
<path style=" stroke:none;fill-rule:nonzero;fill:rgb(92.89856%,11.799622%,14.498901%);fill-opacity:1;" d="M 143.976563 197.191406 L 145.464844 197.191406 L 145.464844 199.179688 L 143.976563 199.179688 Z M 150.296875 197.191406 L 152.289063 197.191406 L 152.289063 199.191406 C 151.707031 199.617188 151.609375 199.769531 151.113281 199.769531 C 150.714844 199.769531 150.519531 199.617188 150.195313 199.449219 C 150.234375 199.449219 150.492188 198.980469 150.492188 198.042969 C 150.457031 197.542969 150.417969 197.617188 150.296875 197.191406 Z M 138.996094 197.191406 L 138.996094 198.4375 L 136.011719 198.4375 C 135.183594 198.4375 134.835938 198.9375 134.835938 199.707031 C 134.835938 201.179688 135.925781 202.695313 137.449219 203.863281 L 137.847656 203.4375 C 136.667969 202.210938 135.976563 201.558594 135.976563 200.542969 C 135.976563 199.996094 136.222656 199.617188 136.816406 199.617188 L 138.996094 199.617188 L 138.996094 202.953125 L 140.3125 203.863281 L 140.3125 197.191406 L 142.664063 197.191406 L 142.664063 199.179688 L 141.835938 199.179688 C 141.4375 199.179688 141.179688 199.421875 141.179688 199.800781 C 141.179688 199.96875 141.214844 200.148438 141.3125 200.34375 C 141.574219 200.816406 141.808594 201.347656 142.652344 201.859375 C 142.863281 201.980469 143.085938 202.027344 143.285156 202.027344 C 143.679688 202.027344 143.976563 201.800781 143.976563 201.316406 C 143.976563 201.089844 143.976563 200.601563 143.976563 200.359375 L 145.464844 200.359375 L 145.464844 202.953125 L 146.777344 203.863281 L 146.777344 197.191406 L 149.429688 197.191406 C 149.539063 197.570313 149.574219 197.601563 149.574219 198.011719 C 149.574219 198.558594 149.328125 198.859375 149.042969 199.011719 C 148.820313 199.011719 148.535156 198.9375 148.335938 198.9375 C 147.855469 198.964844 147.644531 199.132813 147.644531 199.464844 C 147.644531 200.601563 149.503906 202.710938 150.742188 203.894531 L 151.160156 203.453125 C 150.59375 202.769531 149.851563 201.921875 149.527344 200.980469 C 149.640625 200.769531 149.726563 200.710938 149.910156 200.222656 C 149.910156 200.222656 150.417969 200.679688 151.261719 200.738281 C 151.65625 200.738281 151.953125 200.648438 152.289063 200.390625 L 152.289063 202.953125 L 153.601563 203.863281 L 153.601563 197.191406 L 154.839844 197.191406 L 154.839844 202.953125 L 156.152344 203.863281 L 156.152344 197.191406 L 157.394531 197.191406 L 156.648438 196.132813 L 155.785156 196.132813 C 154.753906 193.914063 154.378906 192.492188 152.722656 192.492188 C 152.5625 192.492188 151.90625 192.566406 151.730469 192.597656 L 152.535156 193.585938 C 152.746094 193.585938 152.773438 193.554688 152.945313 193.554688 C 153.894531 193.554688 154.367188 194.472656 155.140625 196.132813 L 133.472656 196.132813 L 134.214844 197.191406 L 138.996094 197.191406 "/>
<path style=" stroke:none;fill-rule:nonzero;fill:rgb(92.89856%,11.799622%,14.498901%);fill-opacity:1;" d="M 176.550781 227.875 C 175.898438 228.738281 174.9375 228.941406 174.398438 228.941406 C 173.691406 228.847656 173.492188 228.566406 173.140625 228.015625 C 174.695313 227.90625 175.105469 227.015625 175.105469 226.167969 C 175.105469 225.761719 174.878906 225.382813 174.683594 224.992188 L 176.550781 224.992188 Z M 169.476563 227.046875 L 167.777344 227.046875 L 167.777344 224.992188 L 169.476563 224.992188 Z M 140.996094 227.875 C 140.347656 228.738281 139.386719 228.941406 138.847656 228.941406 C 138.140625 228.847656 137.941406 228.566406 137.589844 228.015625 C 139.144531 227.90625 139.554688 227.015625 139.554688 226.167969 C 139.554688 225.761719 139.328125 225.382813 139.128906 224.992188 L 140.996094 224.992188 Z M 178.613281 223.894531 L 163.210938 223.894531 C 161.78125 223.050781 161.523438 222.5 161.523438 221.9375 C 161.523438 221.339844 162.09375 220.964844 162.953125 220.964844 C 163.378906 221.011719 163.535156 221.152344 164.027344 221.59375 L 164.609375 221.058594 C 164.058594 220.230469 163.378906 219.773438 162.558594 219.742188 C 161.230469 219.742188 160.421875 220.527344 160.421875 221.652344 C 160.492188 222.421875 161.03125 223.238281 162.019531 223.894531 L 148.679688 223.894531 C 148.453125 223.425781 148.367188 223.050781 148.339844 222.6875 C 148.339844 221.953125 148.835938 221.625 149.683594 221.625 C 149.867188 221.625 150.050781 221.640625 150.265625 221.671875 C 152.074219 222.046875 153.050781 222.515625 154.382813 223.503906 L 155.386719 223.503906 C 152.34375 220.917969 150.941406 220.527344 149.597656 220.449219 C 149.5 220.449219 149.386719 220.433594 149.285156 220.433594 C 147.84375 220.433594 146.910156 221.042969 146.910156 222.25 C 146.96875 222.859375 147.039063 223.332031 147.207031 223.894531 L 144.992188 223.894531 C 143.8125 221.605469 143.386719 220.136719 141.492188 220.136719 C 141.308594 220.136719 140.558594 220.214844 140.359375 220.242188 L 141.28125 221.261719 C 141.519531 221.261719 141.550781 221.230469 141.746094 221.230469 C 142.832031 221.230469 143.371094 222.183594 144.253906 223.894531 L 127.996094 223.894531 L 128.84375 224.992188 L 138.011719 224.992188 C 138.210938 225.242188 138.308594 225.554688 138.308594 225.820313 C 138.308594 226.503906 137.75 227.160156 136.839844 227.339844 L 136.839844 226.277344 L 131.617188 226.277344 C 132.777344 227.027344 133.398438 228.40625 133.570313 229.316406 C 133.585938 229.394531 133.597656 229.488281 133.597656 229.566406 C 133.585938 229.769531 133.511719 229.960938 133.386719 230.148438 C 133.1875 230.367188 132.933594 230.507813 132.679688 230.507813 C 131.488281 230.507813 130.273438 227.828125 130.117188 226.355469 L 129.550781 226.996094 C 130.527344 230.242188 131.605469 231.777344 132.960938 231.808594 C 134.320313 231.808594 135.140625 231.007813 135.140625 229.851563 C 135.140625 229.269531 134.816406 228.203125 134.265625 227.5 L 136.378906 227.5 C 136.816406 229.003906 137.527344 230.289063 139.128906 230.289063 C 139.128906 230.242188 140.644531 229.898438 140.996094 229.191406 L 140.996094 230.945313 L 142.496094 231.886719 L 142.496094 224.992188 L 143.910156 224.992188 L 143.910156 230.945313 L 145.410156 231.886719 L 145.410156 224.992188 L 147.109375 224.992188 L 147.109375 230.945313 L 148.609375 231.886719 L 148.609375 224.992188 L 154.777344 224.992188 L 154.777344 226.277344 L 151.367188 226.277344 C 150.417969 226.277344 150.023438 226.792969 150.023438 227.59375 C 150.023438 229.113281 151.269531 230.679688 153.007813 231.886719 L 153.460938 231.445313 C 152.117188 230.179688 151.324219 229.503906 151.324219 228.457031 C 151.324219 227.890625 151.609375 227.5 152.285156 227.5 L 154.777344 227.5 L 154.777344 230.945313 L 156.277344 231.886719 L 156.277344 224.992188 L 159.105469 224.992188 L 159.105469 227.171875 L 158.015625 227.171875 C 157.5625 227.171875 157.269531 227.40625 157.269531 227.8125 C 157.269531 227.96875 157.308594 228.15625 157.421875 228.378906 C 157.71875 228.863281 158.128906 229.394531 159.105469 229.941406 C 159.332031 230.054688 159.601563 230.117188 159.8125 230.117188 C 160.265625 230.117188 160.605469 229.863281 160.605469 229.378906 C 160.605469 229.394531 160.605469 225.195313 160.605469 224.992188 L 162.019531 224.992188 L 162.019531 230.945313 L 163.519531 231.886719 L 163.519531 224.992188 L 166.277344 224.992188 L 166.277344 227.046875 L 165.332031 227.046875 C 164.878906 227.046875 164.582031 227.296875 164.582031 227.6875 C 164.582031 227.859375 164.625 228.046875 164.734375 228.25 C 165.035156 228.738281 165.304688 229.285156 166.265625 229.816406 C 166.507813 229.941406 166.761719 229.988281 166.984375 229.988281 C 167.4375 229.988281 167.777344 229.757813 167.777344 229.253906 C 167.777344 229.019531 167.777344 228.519531 167.777344 228.265625 L 169.476563 228.265625 L 169.476563 230.945313 L 170.976563 231.886719 L 170.976563 224.992188 L 173.566406 224.992188 C 173.761719 225.242188 173.859375 225.554688 173.859375 225.820313 C 173.859375 226.621094 173.097656 227.390625 171.894531 227.390625 C 172.335938 228.941406 173.039063 230.289063 174.683594 230.289063 C 174.683594 230.242188 176.195313 229.898438 176.550781 229.191406 L 176.550781 230.945313 L 178.050781 231.886719 L 178.050781 224.992188 L 179.464844 224.992188 L 178.613281 223.894531 "/>
</g>
</svg>
